{
.formatVersion = 3;
axes = (
{
name = Weight;
tag = wght;
}
);
classes = (
{
code = "quotesingle parenleft parenright hyphen colon less greater at A O bracketleft bracketright a i o braceleft braceright exclamdown copyright guillemotleft periodcentered guillemotright questiondown Scedilla scedilla Tcedilla tcedilla Decyr Zhecyr Kacyr Elcyr becyr vecyr gecyr decyr zhecyr zecyr icyr ishortcyr kacyr elcyr encyr pecyr tecyr tsecyr checyr shacyr shchacyr softcyr yucyr igravecyr endash emdash guilsinglleft guilsinglright arrowleft arrowright";
name = aalt;
},
{
code = "quoteright parenleft.case parenright.case hyphen.case colon.case less.case greater.case at.case ordfeminine ordmasculine bracketleft.case bracketright.case ordfeminine i.loclTRK ordmasculine braceleft.case braceright.case exclamdown.case copyright.case guillemotleft.case periodcentered.case guillemotright.case questiondown.case Scommaaccent scommaaccent Tcommaaccent tcommaaccent Decyr.loclBGR Zhecyr.loclBGR Kacyr.loclBGR Elcyr.loclBGR becyr.loclSRB vecyr.loclBGR gecyr.loclBGR decyr.loclBGR zhecyr.loclBGR zecyr.loclBGR icyr.loclBGR ishortcyr.loclBGR kacyr.loclBGR elcyr.loclBGR encyr.loclBGR pecyr.loclBGR tecyr.loclBGR tsecyr.loclBGR checyr.loclBGR shacyr.loclBGR shchacyr.loclBGR softcyr.loclBGR yucyr.loclBGR igravecyr.loclBGR endash.case emdash.case guilsinglleft.case guilsinglright.case arrowleft.case arrowright.case";
name = aalt2;
},
{
code = "quotesingle parenleft parenright hyphen colon less greater at bracketleft bracketright braceleft braceright exclamdown guillemotleft periodcentered guillemotright questiondown endash emdash arrowleft arrowright";
name = calt;
},
{
code = "quoteright parenleft.case parenright.case hyphen.case colon.case less.case greater.case at.case bracketleft.case bracketright.case braceleft.case braceright.case exclamdown.case guillemotleft.case periodcentered.case guillemotright.case questiondown.case endash.case emdash.case arrowleft.case arrowright.case";
name = calt2;
},
{

glyphs = (
{
glyphname = .notdef;
layers = (
{
layerId = "52B6FC9B-A007-47B3-A216-6773BDC6150A";
shapes = (
{
closed = 1;
nodes = (
(53,0,l),
(1111,0,l),
(1130,114,l),
(72,114,l)
);
},
{
closed = 1;
nodes = (
(77,144,l),
(1135,144,l),
(1148,224,l),
(90,224,l)
);
},
{
closed = 1;
nodes = (
(96,260,l),
(1154,260,l),
(1167,334,l),
(108,334,l)
);
},
{
closed = 1;
nodes = (
(115,374,l),
(1173,374,l),
(1185,444,l),
(127,444,l)
);
},
{
closed = 1;
nodes = (
(134,490,l),
(1193,490,l),
(1203,556,l),
(145,556,l)
);
},
{
closed = 1;
nodes = (
(153,606,l),
(1212,606,l),
(1222,666,l),
(163,666,l)
);
},
{
closed = 1;
nodes = (
(172,720,l),
(1231,720,l),
(1240,776,l),
(181,776,l)
);
},
{
closed = 1;
nodes = (
(192,838,l),
(1250,838,l),
(1258,886,l),
(200,886,l)
);
},
{
closed = 1;
nodes = (
(211,952,l),
(1269,952,l),
(1276,996,l),
(218,996,l)
);
},
{
closed = 1;
nodes = (
(229,1066,l),
(1288,1066,l),
(1295,1108,l),
(236,1108,l)
);
},
{
closed = 1;
nodes = (
(249,1184,l),
(1307,1184,l),
(1313,1220,l),
(255,1220,l)
);
},
{
closed = 1;
nodes = (
(268,1298,l),
(1326,1298,l),
(1332,1330,l),
(273,1330,l)
);
},
{
closed = 1;
nodes = (
(287,1414,l),
(1345,1414,l),
(1350,1440,l),
(291,1440,l)
);
}
);
width = 1422;
},
{
layerId = "8674DFB1-DD33-4B55-AF75-50F2BA2F7F30";
shapes = (
{
closed = 1;
nodes = (
(13,0,l),
(1071,0,l),
(1090,114,l),
(32,114,l)
);
},
{
closed = 1;
nodes = (
(37,144,l),
(1095,144,l),
(1108,224,l),
(50,224,l)
);
},
{
closed = 1;
nodes = (
(56,260,l),
(1114,260,l),
(1127,334,l),
(68,334,l)
);
},
{
closed = 1;
nodes = (
(75,374,l),
(1133,374,l),
(1145,444,l),
(87,444,l)
);
},
{
closed = 1;
nodes = (
(94,490,l),
(1153,490,l),
(1163,556,l),
(105,556,l)
);
},
{
closed = 1;
nodes = (
(113,606,l),
(1172,606,l),
(1182,666,l),
(123,666,l)
);
},
{
closed = 1;
nodes = (
(132,720,l),
(1191,720,l),
(1200,776,l),
(141,776,l)
);
},
{
closed = 1;
nodes = (
(152,838,l),
(1210,838,l),
(1218,886,l),
(160,886,l)
);
},
{
closed = 1;
nodes = (
(171,952,l),
(1229,952,l),
(1236,996,l),
(178,996,l)
);
},
{
closed = 1;
nodes = (
(189,1066,l),
(1248,1066,l),
(1255,1108,l),
(196,1108,l)
);
},
{
closed = 1;
nodes = (
(209,1184,l),
(1267,1184,l),
(1273,1220,l),
(215,1220,l)
);
},
{
closed = 1;
nodes = (
(228,1298,l),
(1286,1298,l),
(1292,1330,l),
(233,1330,l)
);
},
{
closed = 1;
nodes = (
(247,1414,l),
(1305,1414,l),
(1310,1440,l),
(251,1440,l)
);
}
);
width = 1422;
},
{
layerId = "3BB79724-DEC0-46E7-8764-1315E4CC4648";
shapes = (
{
closed = 1;
nodes = (
(53,0,l),
(1111,0,l),
(1130,114,l),
(72,114,l)
);
},
{
closed = 1;
nodes = (
(77,144,l),
(1135,144,l),
(1148,224,l),
(90,224,l)
);
},
{
closed = 1;
nodes = (
(96,260,l),
(1154,260,l),
(1167,334,l),
(108,334,l)
);
},
{
closed = 1;
nodes = (
(115,374,l),
(1173,374,l),
(1185,444,l),
(127,444,l)
);
},
{
closed = 1;
nodes = (
(134,490,l),
(1193,490,l),
(1203,556,l),
(145,556,l)
);
},
{
closed = 1;
nodes = (
(153,606,l),
(1212,606,l),
(1222,666,l),
(163,666,l)
);
},
{
closed = 1;
nodes = (
(172,720,l),
(1231,720,l),
(1240,776,l),
(181,776,l)
);
},
{
closed = 1;
nodes = (
(192,838,l),
(1250,838,l),
(1258,886,l),
(200,886,l)
);
},
{
closed = 1;
nodes = (
(211,952,l),
(1269,952,l),
(1276,996,l),
(218,996,l)
);
},
{
closed = 1;
nodes = (
(229,1066,l),
(1288,1066,l),
(1295,1108,l),
(236,1108,l)
);
},
{
closed = 1;
nodes = (
(249,1184,l),
(1307,1184,l),
(1313,1220,l),
(255,1220,l)
);
},
{
closed = 1;
nodes = (
(268,1298,l),
(1326,1298,l),
(1332,1330,l),
(273,1330,l)
);
},
{
closed = 1;
nodes = (
(287,1414,l),
(1345,1414,l),
(1350,1440,l),
(291,1440,l)
);
}
);
width = 1422;
}
);
},
{
glyphname = exclam;
layers = (
{
layerId = "52B6FC9B-A007-47B3-A216-6773BDC6150A";
shapes = (
{
closed = 1;
nodes = (
(349,-22,o),
(390,-7,o),
(425,24,cs),
(460,55,o),
(481,92,o),
(489,136,cs),
(496,181,o),
(487,218,o),
(462,249,cs),
(437,279,o),
(402,294,o),
(356,294,cs),
(311,294,o),
(270,279,o),
(235,249,cs),
(199,218,o),
(178,181,o),
(171,136,cs),
(163,92,o),
(172,55,o),
(198,24,cs),
(223,-7,o),
(258,-22,o),
(303,-22,cs)
);
},
{
closed = 1;
nodes = (
(261,420,l),
(493,420,l),
(589,833,l),
(689,1440,l),
(401,1440,l),
(301,833,l)
);
}
);
width = 706;
},
{
layerId = "8674DFB1-DD33-4B55-AF75-50F2BA2F7F30";
shapes = (
{
closed = 1;
nodes = (
(253,-13,o),
(281,-3,o),
(307,19,cs),
(332,41,o),
(347,67,o),
(353,99,cs),
(358,131,o),
(352,158,o),
(334,180,cs),
(315,202,o),
(290,212,o),
(258,212,cs),
(225,212,o),
(197,202,o),
(172,180,cs),
(146,158,o),
(131,131,o),
(125,99,cs),
(120,68,o),
(126,42,o),
(145,20,c),
(163,-3,o),
(188,-13,o),
(220,-13,cs)
);
},
{
closed = 1;
nodes = (
(222,388,l),
(358,388,l),
(447,815,l),
(550,1440,l),
(371,1440,l),
(268,815,l)
);
}
);
width = 608;
},
{
layerId = "3BB79724-DEC0-46E7-8764-1315E4CC4648";
shapes = (
{
closed = 1;
nodes = (
(241,-6,o),
(259,1,o),
(276,15,cs),
(293,29,o),
(303,46,o),
(306,67,cs),
(310,88,o),
(306,106,o),
(294,120,cs),
(281,134,o),
(265,141,o),
(244,141,cs),
(223,141,o),
(205,134,o),
(189,120,cs),
(172,106,o),
(162,88,o),
(158,67,cs),
(155,47,o),
(159,30,o),
(172,16,c),
(183,1,o),
(199,-6,o),
(220,-6,cs)
);
},
{
closed = 1;
nodes = (
(261,360,l),
(313,360,l),
(395,800,l),
(501,1440,l),
(417,1440,l),
(311,800,l)
);
}
);
width = 523;
}
);
unicode = 33;
},
{
glyphname = numbersign;
layers = (
{
layerId = "52B6FC9B-A007-47B3-A216-6773BDC6150A";
shapes = (
{
closed = 1;
nodes = (
(282,2,l),
(540,2,l),
(701,378,l),
(912,378,l),
(752,2,l),
(1011,2,l),
(1171,378,l),
(1512,378,l),
(1621,634,l),
(1280,634,l),
(1369,840,l),
(1710,840,l),
(1819,1094,l),
(1478,1094,l),
(1627,1440,l),
(1368,1440,l),
(1219,1094,l),
(1007,1094,l),
(1157,1440,l),
(898,1440,l),
(749,1094,l),
(409,1094,l),
(299,840,l),
(640,840,l),
(553,634,l),
(212,634,l),
(103,378,l),
(444,378,l)
);
},
{
closed = 1;
nodes = (
(812,634,l),
(899,840,l),
(1110,840,l),
(1021,634,l)
);
}
);
width = 1815;
},
{
layerId = "8674DFB1-DD33-4B55-AF75-50F2BA2F7F30";
shapes = (
{
closed = 1;
nodes = (
(317,1,l),
(482,1,l),
(663,423,l),
(966,423,l),
(787,1,l),
(953,1,l),
(1134,423,l),
(1521,423,l),
(1590,587,l),
(1203,587,l),
(1332,885,l),
(1719,885,l),
(1788,1048,l),
(1401,1048,l),
(1569,1440,l),
(1403,1440,l),
(1236,1048,l),
(931,1048,l),
(1099,1440,l),
(933,1440,l),
(765,1048,l),
(378,1048,l),
(308,885,l),
(694,885,l),
(568,587,l),
(180,587,l),
(110,423,l),
(497,423,l)
);
},
{
closed = 1;
nodes = (
(734,587,l),
(861,885,l),
(1164,885,l),
(1038,587,l)
);
}
);
width = 1792;
},
{
layerId = "3BB79724-DEC0-46E7-8764-1315E4CC4648";
shapes = (
{
closed = 1;
nodes = (
(348,0,l),
(432,0,l),
(630,462,l),
(1014,462,l),
(818,0,l),
(903,0,l),
(1101,462,l),
(1528,462,l),
(1563,546,l),
(1136,546,l),
(1299,924,l),
(1726,924,l),
(1761,1008,l),
(1334,1008,l),
(1519,1440,l),
(1433,1440,l),
(1250,1008,l),
(864,1008,l),
(1049,1440,l),
(963,1440,l),
(779,1008,l),
(350,1008,l),
(315,924,l),
(742,924,l),
(581,546,l),
(152,546,l),
(117,462,l),
(544,462,l)
);
},
{
closed = 1;
nodes = (
(666,546,l),
(828,924,l),
(1212,924,l),
(1052,546,l)
);
}
);
width = 1772;
}
);
unicode = 35;
},
{
glyphname = dollar;
layers = (
{
layerId = "52B6FC9B-A007-47B3-A216-6773BDC6150A";
shapes = (
{
closed = 1;
nodes = (
(398,-200,l),
(665,-200,l),
(704,40,l),
(438,40,l)
);
},
{
closed = 1;
nodes = (
(663,1398,l),
(929,1398,l),
(969,1638,l),
(702,1638,l)
);
},
{
closed = 1;
nodes = (
(849,-30,o),
(1125,130,o),
(1174,428,cs),
(1212,660,o),
(1096,761,o),
(887,826,cs),
(650,898,ls),
(530,934,o),
(483,983,o),
(495,1052,cs),
(515,1167,o),
(651,1216,o),
(754,1214,cs),
(890,1209,o),
(975,1128,o),
(984,996,c),
(1267,1046,l),
(1244,1327,o),
(1067,1465,o),
(800,1468,cs),
(518,1469,o),
(278,1324,o),
(229,1038,cs),
(197,850,o),
(276,726,o),
(468,662,cs),
(799,552,ls),
(873,526,o),
(918,492,o),
(906,408,cs),
(886,280,o),
(732,224,o),
(619,224,cs),
(460,224,o),
(358,325,o),
(348,482,c),
(77,440,l),
(69,133,o),
(275,-30,o),
(561,-30,cs)
);
}
);
width = 1245;
},
{
layerId = "8674DFB1-DD33-4B55-AF75-50F2BA2F7F30";
shapes = (
{
closed = 1;
nodes = (
(402,-198,l),
(571,-198,l),
(609,33,l),
(441,33,l)
);
},
{
closed = 1;
nodes = (
(668,1408,l),
(836,1408,l),
(875,1639,l),
(706,1639,l)
);
},
{
closed = 1;
nodes = (
(800,-30,o),
(1054,119,o),
(1099,399,cs),
(1135,618,o),
(1033,715,o),
(834,779,cs),
(582,860,ls),
(433,908,o),
(376,974,o),
(393,1073,cs),
(420,1230,o),
(583,1307,o),
(728,1306,cs),
(907,1303,o),
(1024,1193,o),
(1023,1016,c),
(1199,1048,l),
(1194,1322,o),
(1015,1468,o),
(756,1469,cs),
(499,1470,o),
(267,1328,o),
(224,1066,cs),
(194,893,o),
(270,777,o),
(454,715,cs),
(757,614,ls),
(872,576,o),
(955,526,o),
(933,392,cs),
(903,215,o),
(727,133,o),
(563,133,cs),
(380,133,o),
(242,236,o),
(230,424,c),
(60,396,l),
(60,113,o),
(268,-30,o),
(528,-30,cs)
);
}
);
width = 1165;
},
{
layerId = "3BB79724-DEC0-46E7-8764-1315E4CC4648";
shapes = (
{
closed = 1;
nodes = (
(406,-196,l),
(488,-196,l),
(525,26,l),
(443,26,l)
);
},
{
closed = 1;
nodes = (
(673,1416,l),
(755,1416,l),
(792,1640,l),
(710,1640,l)
);
},
{
closed = 1;
nodes = (
(758,-30,o),
(991,109,o),
(1033,374,cs),
(1067,581,o),
(977,674,o),
(788,738,cs),
(522,826,ls),
(349,886,o),
(283,967,o),
(304,1092,cs),
(336,1286,o),
(524,1386,o),
(705,1386,cs),
(922,1386,o),
(1067,1249,o),
(1058,1034,c),
(1139,1050,l),
(1150,1318,o),
(969,1470,o),
(717,1470,cs),
(483,1470,o),
(257,1331,o),
(219,1090,cs),
(192,930,o),
(265,822,o),
(441,762,cs),
(721,668,ls),
(872,619,o),
(987,556,o),
(956,378,cs),
(918,159,o),
(722,54,o),
(514,54,cs),
(310,54,o),
(141,158,o),
(126,374,c),
(45,358,l),
(53,95,o),
(262,-30,o),
(500,-30,cs)
);
}
);
width = 1095;
}
);
leftKerningGroup = S2;
rightKerningGroup = S;
unicode = 36;
},
{
glyphname = percent;
layers = (
{
layerId = "52B6FC9B-A007-47B3-A216-6773BDC6150A";
shapes = (
{
closed = 1;
nodes = (
(275,0,l),
(1718,1258,l),
(1572,1440,l),
(129,180,l)
);
},
{
closed = 1;
nodes = (
(1310,-30,o),
(1404,11,o),
(1479,76,cs),
(1554,140,o),
(1608,230,o),
(1624,330,cs),
(1640,430,o),
(1616,520,o),
(1563,585,cs),
(1510,650,o),
(1429,690,o),
(1330,690,cs),
(1235,690,o),
(1140,648,o),
(1065,583,cs),
(990,518,o),
(934,427,o),
(918,330,cs),
(902,231,o),
(927,141,o),
(980,76,cs),
(1033,11,o),
(1114,-30,o),
(1211,-30,cs)
);
},
{
closed = 1;
nodes = (
(1216,200,o),
(1186,215,o),
(1167,239,cs),
(1147,263,o),
(1138,295,o),
(1143,330,c),
(1150,365,o),
(1169,397,o),
(1197,421,cs),
(1224,445,o),
(1259,460,o),
(1292,460,cs),
(1327,460,o),
(1355,445,o),
(1375,421,cs),
(1395,397,o),
(1403,365,o),
(1398,330,cs),
(1393,295,o),
(1373,263,o),
(1345,239,cs),
(1317,215,o),
(1282,200,o),
(1249,200,cs)
);
},
{
closed = 1;
nodes = (
(614,750,o),
(708,791,o),
(784,856,cs),
(859,921,o),
(914,1011,o),
(930,1110,cs),
(946,1210,o),
(921,1300,o),
(869,1365,cs),
(816,1429,o),
(735,1470,o),
(636,1470,cs),
(541,1470,o),
(446,1428,o),
(371,1363,cs),
(296,1298,o),
(240,1207,o),
(224,1110,cs),
(208,1010,o),
(233,920,o),
(286,856,cs),
(338,791,o),
(418,750,o),
(517,750,cs)
);
},
{
closed = 1;
nodes = (
(522,980,o),
(492,995,o),
(473,1019,cs),
(453,1043,o),
(444,1075,o),
(449,1110,c),
(456,1145,o),
(475,1177,o),
(503,1201,cs),
(530,1225,o),
(565,1240,o),
(598,1240,cs),
(633,1240,o),
(661,1225,o),
(681,1201,cs),
(701,1177,o),
(709,1145,o),
(704,1110,cs),
(699,1075,o),
(678,1043,o),
(651,1019,cs),
(623,995,o),
(588,980,o),
(555,980,cs)
);
}
);
width = 1747;
},
{
layerId = "8674DFB1-DD33-4B55-AF75-50F2BA2F7F30";
shapes = (
{
closed = 1;
nodes = (
(213,0,l),
(1731,1324,l),
(1637,1440,l),
(118,116,l)
);
},
{
closed = 1;
nodes = (
(1312,-30,o),
(1406,11,o),
(1481,76,cs),
(1556,140,o),
(1610,230,o),
(1626,330,cs),
(1642,430,o),
(1618,520,o),
(1565,585,cs),
(1512,650,o),
(1431,690,o),
(1332,690,cs),
(1237,690,o),
(1142,648,o),
(1067,583,cs),
(992,518,o),
(936,427,o),
(920,330,cs),
(904,231,o),
(929,141,o),
(982,76,cs),
(1035,11,o),
(1116,-30,o),
(1213,-30,cs)
);
},
{
closed = 1;
nodes = (
(1183,122,o),
(1136,146,o),
(1105,184,cs),
(1074,222,o),
(1060,274,o),
(1069,330,c),
(1080,387,o),
(1110,439,o),
(1154,477,cs),
(1197,515,o),
(1251,538,o),
(1307,538,cs),
(1363,538,o),
(1410,515,o),
(1441,477,cs),
(1472,439,o),
(1485,387,o),
(1476,331,cs),
(1468,274,o),
(1436,222,o),
(1392,184,cs),
(1348,146,o),
(1293,122,o),
(1238,122,cs)
);
},
{
closed = 1;
nodes = (
(614,750,o),
(708,791,o),
(784,856,cs),
(859,921,o),
(914,1011,o),
(930,1110,cs),
(946,1210,o),
(921,1300,o),
(869,1365,cs),
(816,1429,o),
(735,1470,o),
(636,1470,cs),
(541,1470,o),
(446,1428,o),
(371,1363,cs),
(296,1298,o),
(240,1207,o),
(224,1110,cs),
(208,1010,o),
(233,920,o),
(286,856,cs),
(338,791,o),
(418,750,o),
(517,750,cs)
);
},
{
closed = 1;
nodes = (
(487,902,o),
(440,926,o),
(409,964,cs),
(378,1002,o),
(364,1054,o),
(373,1110,cs),
(382,1167,o),
(414,1219,o),
(458,1257,cs),
(501,1295,o),
(555,1318,o),
(611,1318,cs),
(667,1318,o),
(713,1295,o),
(745,1257,cs),
(776,1219,o),
(789,1167,o),
(780,1111,cs),
(772,1054,o),
(739,1002,o),
(696,964,cs),
(652,926,o),
(597,902,o),
(542,902,cs)
);
}
);
width = 1749;
},
{
layerId = "3BB79724-DEC0-46E7-8764-1315E4CC4648";
shapes = (
{
closed = 1;
nodes = (
(158,0,l),
(1743,1382,l),
(1694,1440,l),
(109,60,l)
);
},
{
closed = 1;
nodes = (
(1314,-30,o),
(1407,11,o),
(1483,76,cs),
(1558,140,o),
(1612,230,o),
(1628,330,cs),
(1644,430,o),
(1620,520,o),
(1567,585,cs),
(1514,650,o),
(1433,690,o),
(1334,690,cs),
(1239,690,o),
(1144,648,o),
(1069,583,cs),
(994,518,o),
(938,427,o),
(922,330,cs),
(906,231,o),
(931,141,o),
(984,76,cs),
(1037,11,o),
(1118,-30,o),
(1215,-30,cs)
);
},
{
closed = 1;
nodes = (
(1156,54,o),
(1092,86,o),
(1052,136,cs),
(1011,186,o),
(992,255,o),
(1004,330,cs),
(1017,406,o),
(1059,475,o),
(1116,525,cs),
(1173,575,o),
(1245,606,o),
(1320,606,cs),
(1395,606,o),
(1458,576,o),
(1499,526,cs),
(1539,476,o),
(1557,406,o),
(1545,331,cs),
(1533,255,o),
(1490,186,o),
(1433,136,cs),
(1376,86,o),
(1302,54,o),
(1229,54,cs)
);
},
{
closed = 1;
nodes = (
(614,750,o),
(708,791,o),
(784,856,cs),
(859,921,o),
(914,1011,o),
(930,1110,cs),
(946,1210,o),
(921,1300,o),
(869,1365,cs),
(816,1429,o),
(735,1470,o),
(636,1470,cs),
(541,1470,o),
(446,1428,o),
(371,1363,cs),
(296,1298,o),
(240,1207,o),
(224,1110,cs),
(208,1010,o),
(233,920,o),
(286,856,cs),
(338,791,o),
(418,750,o),
(517,750,cs)
);
},
{
closed = 1;
nodes = (
(458,834,o),
(394,866,o),
(354,916,cs),
(313,966,o),
(294,1035,o),
(306,1110,cs),
(319,1186,o),
(361,1255,o),
(418,1305,cs),
(475,1355,o),
(547,1386,o),
(622,1386,cs),
(697,1386,o),
(760,1356,o),
(801,1306,cs),
(841,1256,o),
(859,1186,o),
(847,1111,cs),
(835,1035,o),
(792,966,o),
(735,916,cs),
(678,866,o),
(604,834,o),
(531,834,cs)
);
}
);
width = 1751;
}
);
unicode = 37;
},
{
glyphname = ampersand;
layers = (
{
layerId = "52B6FC9B-A007-47B3-A216-6773BDC6150A";
shapes = (
{
closed = 1;
nodes = (
(604,-30,o),
(673,-24,o),
(741,-5,cs),
(809,15,o),
(874,46,o),
(942,98,c),
(1050,-28,l),
(1252,158,l),
(1106,320,l),
(1129,379,o),
(1138,440,o),
(1147,500,cs),
(1193,774,l),
(962,774,l),
(954,733,o),
(948,691,o),
(941,650,cs),
(934,609,o),
(928,568,o),
(921,528,c),
(648,834,ls),
(623,863,o),
(589,894,o),
(565,930,cs),
(540,966,o),
(523,1007,o),
(531,1052,cs),
(540,1108,o),
(569,1148,o),
(606,1174,cs),
(643,1200,o),
(693,1212,o),
(742,1212,cs),
(783,1212,o),
(821,1205,o),
(850,1187,cs),
(878,1169,o),
(897,1138,o),
(901,1094,c),
(1174,1148,l),
(1167,1256,o),
(1124,1335,o),
(1056,1388,cs),
(987,1440,o),
(895,1466,o),
(792,1466,cs),
(668,1466,o),
(547,1433,o),
(452,1365,cs),
(356,1297,o),
(286,1195,o),
(263,1056,cs),
(255,1003,o),
(256,958,o),
(268,915,cs),
(279,872,o),
(298,834,o),
(326,794,c),
(189,695,o),
(119,581,o),
(92,422,cs),
(67,270,o),
(108,157,o),
(189,82,cs),
(270,7,o),
(392,-30,o),
(529,-30,cs)
);
},
{
closed = 1;
nodes = (
(518,228,o),
(456,243,o),
(415,277,cs),
(374,311,o),
(351,362,o),
(363,438,cs),
(375,513,o),
(414,573,o),
(489,604,c),
(780,280,l),
(749,260,o),
(716,247,o),
(683,239,cs),
(650,231,o),
(615,228,o),
(583,228,cs)
);
}
);
width = 1312;
},
{
layerId = "8674DFB1-DD33-4B55-AF75-50F2BA2F7F30";
shapes = (
{
closed = 1;
nodes = (
(590,-30,o),
(668,-21,o),
(743,4,cs),
(818,28,o),
(888,68,o),
(948,132,c),
(1075,-13,l),
(1205,107,l),
(1053,276,l),
(1082,344,o),
(1094,413,o),
(1105,482,cs),
(1144,713,l),
(989,713,l),
(981,664,o),
(974,612,o),
(966,561,cs),
(958,509,o),
(948,459,o),
(935,410,c),
(579,809,l),
(546,849,o),
(508,885,o),
(482,928,cs),
(456,971,o),
(441,1020,o),
(450,1081,c),
(463,1158,o),
(501,1214,o),
(553,1251,cs),
(604,1287,o),
(671,1305,o),
(740,1305,cs),
(789,1305,o),
(837,1296,o),
(877,1274,cs),
(916,1252,o),
(944,1217,o),
(953,1165,c),
(1125,1210,l),
(1110,1301,o),
(1065,1365,o),
(1001,1407,cs),
(937,1449,o),
(855,1468,o),
(766,1468,cs),
(650,1468,o),
(538,1435,o),
(451,1370,cs),
(363,1305,o),
(299,1208,o),
(278,1081,cs),
(267,1017,o),
(273,965,o),
(290,917,cs),
(307,869,o),
(335,827,o),
(370,782,c),
(207,701,o),
(117,573,o),
(88,400,cs),
(64,253,o),
(106,146,o),
(186,75,cs),
(266,4,o),
(385,-30,o),
(514,-30,cs)
);
},
{
closed = 1;
nodes = (
(461,135,o),
(382,155,o),
(329,200,cs),
(276,244,o),
(246,312,o),
(262,408,cs),
(283,535,o),
(353,619,o),
(478,658,c),
(846,251,l),
(802,204,o),
(756,175,o),
(705,158,cs),
(654,141,o),
(601,135,o),
(545,135,cs)
);
}
);
width = 1276;
},
{
layerId = "3BB79724-DEC0-46E7-8764-1315E4CC4648";
shapes = (
{
closed = 1;
nodes = (
(578,-30,o),
(665,-19,o),
(746,10,cs),
(826,39,o),
(901,87,o),
(954,162,c),
(1096,0,l),
(1163,62,l),
(1006,238,l),
(1042,313,o),
(1056,389,o),
(1069,466,cs),
(1101,660,l),
(1013,660,l),
(1004,603,o),
(997,542,o),
(988,483,cs),
(979,423,o),
(967,363,o),
(947,306,c),
(519,788,l),
(478,836,o),
(436,877,o),
(409,926,cs),
(381,974,o),
(368,1030,o),
(380,1106,cs),
(395,1202,o),
(442,1272,o),
(506,1318,cs),
(570,1364,o),
(651,1386,o),
(738,1386,cs),
(794,1386,o),
(852,1375,o),
(900,1350,cs),
(948,1325,o),
(984,1285,o),
(999,1228,c),
(1082,1264,l),
(1061,1339,o),
(1014,1391,o),
(954,1424,cs),
(894,1456,o),
(820,1470,o),
(744,1470,cs),
(633,1470,o),
(530,1437,o),
(450,1374,cs),
(369,1311,o),
(311,1219,o),
(291,1102,cs),
(279,1030,o),
(287,971,o),
(310,919,cs),
(333,867,o),
(369,821,o),
(409,772,c),
(222,705,o),
(116,568,o),
(85,380,cs),
(62,240,o),
(104,137,o),
(184,70,cs),
(263,2,o),
(378,-30,o),
(501,-30,cs)
);
},
{
closed = 1;
nodes = (
(412,54,o),
(317,79,o),
(253,132,cs),
(189,185,o),
(154,267,o),
(173,382,cs),
(202,553,o),
(300,659,o),
(468,706,c),
(904,226,l),
(848,157,o),
(789,114,o),
(724,88,cs),
(659,62,o),
(588,54,o),
(511,54,cs)
);
}
);
width = 1245;
}
);
unicode = 38;
},
{
glyphname = parenleft;
layers = (
{
layerId = "52B6FC9B-A007-47B3-A216-6773BDC6150A";
shapes = (
{
closed = 1;
nodes = (
(699,-240,l),
(572,-44,o),
(518,150,o),
(514,351,cs),
(513,451,o),
(520,553,o),
(536,660,c),
(573,873,o),
(638,1070,o),
(761,1267,cs),
(822,1364,o),
(901,1461,o),
(997,1560,c),
(823,1708,l),
(640,1525,o),
(493,1292,o),
(396,1037,cs),
(345,909,o),
(314,785,o),
(295,660,c),
(248,409,o),
(262,153,o),
(333,-79,cs),
(369,-195,o),
(416,-296,o),
(476,-388,c)
);
}
);
width = 880;
},
{
layerId = "8674DFB1-DD33-4B55-AF75-50F2BA2F7F30";
shapes = (
{
closed = 1;
nodes = (
(633,-267,l),
(510,-84,o),
(446,120,o),
(433,336,cs),
(426,443,o),
(432,549,o),
(449,660,c),
(488,881,o),
(569,1093,o),
(702,1297,cs),
(769,1398,o),
(848,1493,o),
(940,1588,c),
(831,1685,l),
(647,1504,o),
(499,1278,o),
(399,1030,cs),
(348,906,o),
(315,784,o),
(295,660,cs),
(251,412,o),
(271,163,o),
(344,-62,cs),
(381,-174,o),
(430,-274,o),
(491,-365,c)
);
}
);
width = 823;
},
{
layerId = "3BB79724-DEC0-46E7-8764-1315E4CC4648";
shapes = (
{
closed = 1;
nodes = (
(575,-290,l),
(456,-119,o),
(383,95,o),
(362,322,cs),
(350,435,o),
(354,547,o),
(373,660,cs),
(412,889,o),
(509,1114,o),
(650,1323,cs),
(722,1427,o),
(801,1523,o),
(890,1612,c),
(838,1664,l),
(654,1484,o),
(504,1265,o),
(401,1024,c),
(352,903,o),
(315,784,o),
(295,660,cs),
(254,413,o),
(277,172,o),
(354,-47,cs),
(393,-156,o),
(441,-255,o),
(505,-344,c)
);
}
);
width = 773;
}
);
leftKerningGroup = parenleft2;
rightKerningGroup = parenleft;
unicode = 40;
},
{
glyphname = parenright;
layers = (
{
layerId = "52B6FC9B-A007-47B3-A216-6773BDC6150A";
shapes = (
{
closed = 1;
nodes = (
(138,-388,l),
(321,-205,o),
(467,29,o),
(566,284,cs),
(615,411,o),
(647,535,o),
(666,660,c),
(713,911,o),
(700,1168,o),
(629,1400,cs),
(593,1516,o),
(545,1616,o),
(485,1708,c),
(262,1560,l),
(389,1364,o),
(444,1170,o),
(448,970,cs),
(449,869,o),
(441,767,o),
(425,660,c),
(388,447,o),
(323,250,o),
(200,54,cs),
(137,-45,o),
(60,-141,o),
(-36,-240,c)
);
}
);
width = 880;
},
{
layerId = "8674DFB1-DD33-4B55-AF75-50F2BA2F7F30";
shapes = (
{
closed = 1;
nodes = (
(73,-365,l),
(257,-184,o),
(405,43,o),
(506,290,cs),
(555,414,o),
(589,536,o),
(609,660,cs),
(653,908,o),
(635,1158,o),
(560,1382,cs),
(523,1495,o),
(475,1594,o),
(412,1685,c),
(272,1588,l),
(393,1401,o),
(460,1198,o),
(473,985,cs),
(478,878,o),
(472,771,o),
(455,660,cs),
(418,440,o),
(334,226,o),
(201,23,cs),
(133,-80,o),
(56,-175,o),
(-35,-267,c)
);
}
);
width = 823;
},
{
layerId = "3BB79724-DEC0-46E7-8764-1315E4CC4648";
shapes = (
{
closed = 1;
nodes = (
(17,-344,l),
(201,-164,o),
(350,55,o),
(453,296,cs),
(504,417,o),
(539,536,o),
(559,660,cs),
(600,907,o),
(577,1148,o),
(500,1367,cs),
(461,1476,o),
(413,1575,o),
(349,1664,c),
(280,1612,l),
(399,1433,o),
(474,1223,o),
(494,999,cs),
(503,886,o),
(500,775,o),
(481,660,cs),
(444,435,o),
(345,206,o),
(202,-5,cs),
(130,-110,o),
(53,-205,o),
(-35,-290,c)
);
}
);
width = 773;
}
);
leftKerningGroup = parenright2;
rightKerningGroup = parenright;
unicode = 41;
},
{
glyphname = asterisk;
layers = (
{
layerId = "52B6FC9B-A007-47B3-A216-6773BDC6150A";
shapes = (
{
closed = 1;
nodes = (
(364,710,l),
(511,900,l),
(595,710,l),
(808,850,l),
(691,1018,l),
(916,1074,l),
(881,1302,l),
(663,1212,l),
(718,1440,l),
(483,1440,l),
(463,1212,l),
(274,1302,l),
(163,1074,l),
(370,1018,l),
(197,850,l)
);
}
);
width = 916;
},
{
layerId = "8674DFB1-DD33-4B55-AF75-50F2BA2F7F30";
shapes = (
{
closed = 1;
nodes = (
(321,765,l),
(494,973,l),
(597,765,l),
(737,857,l),
(617,1054,l),
(866,1125,l),
(843,1274,l),
(598,1187,l),
(648,1440,l),
(494,1440,l),
(461,1187,l),
(244,1274,l),
(172,1125,l),
(397,1054,l),
(212,857,l)
);
}
);
width = 857;
},
{
layerId = "3BB79724-DEC0-46E7-8764-1315E4CC4648";
shapes = (
{
closed = 1;
nodes = (
(283,814,l),
(479,1036,l),
(599,814,l),
(674,864,l),
(553,1086,l),
(822,1170,l),
(810,1250,l),
(541,1166,l),
(587,1440,l),
(504,1440,l),
(459,1166,l),
(218,1250,l),
(179,1170,l),
(420,1086,l),
(225,864,l)
);
}
);
width = 806;
}
);
unicode = 42;
},
{
glyphname = plus;
layers = (
{
layerId = "52B6FC9B-A007-47B3-A216-6773BDC6150A";
shapes = (
{
closed = 1;
nodes = (
(424,270,l),
(630,270,l),
(687,616,l),
(1024,616,l),
(1059,826,l),
(722,826,l),
(779,1170,l),
(573,1170,l),
(516,826,l),
(177,826,l),
(142,616,l),
(481,616,l)
);
}
);
width = 1100;
},
{
layerId = "8674DFB1-DD33-4B55-AF75-50F2BA2F7F30";
shapes = (
{
closed = 1;
nodes = (
(461,265,l),
(601,265,l),
(664,649,l),
(1040,649,l),
(1064,792,l),
(688,792,l),
(752,1175,l),
(611,1175,l),
(548,792,l),
(171,792,l),
(147,649,l),
(524,649,l)
);
}
);
width = 1111;
},
{
layerId = "3BB79724-DEC0-46E7-8764-1315E4CC4648";
shapes = (
{
closed = 1;
nodes = (
(493,260,l),
(575,260,l),
(644,678,l),
(1054,678,l),
(1068,762,l),
(658,762,l),
(728,1180,l),
(645,1180,l),
(576,762,l),
(166,762,l),
(152,678,l),
(562,678,l)
);
}
);
width = 1120;
}
);
unicode = 43;
},
{
glyphname = comma;
layers = (
{
layerId = "52B6FC9B-A007-47B3-A216-6773BDC6150A";
shapes = (
{
closed = 1;
nodes = (
(162,272,l),
(-22,-329,l),
(144,-329,l),
(414,272,l)
);
}
);
width = 599;
},
{
layerId = "8674DFB1-DD33-4B55-AF75-50F2BA2F7F30";
shapes = (
{
closed = 1;
nodes = (
(145,223,l),
(-27,-282,l),
(84,-282,l),
(312,223,l)
);
}
);
width = 520;
},
{
layerId = "3BB79724-DEC0-46E7-8764-1315E4CC4648";
shapes = (
{
closed = 1;
nodes = (
(131,180,l),
(-32,-240,l),
(32,-240,l),
(222,180,l)
);
}
);
width = 450;
}
);
leftKerningGroup = comma;
unicode = 44;
},
{
glyphname = hyphen;
layers = (
{
layerId = "52B6FC9B-A007-47B3-A216-6773BDC6150A";
shapes = (
{
closed = 1;
nodes = (
(112,435,l),
(700,435,l),
(735,645,l),
(147,645,l)
);
}
);
width = 806;
},
{
layerId = "8674DFB1-DD33-4B55-AF75-50F2BA2F7F30";
shapes = (
{
closed = 1;
nodes = (
(118,469,l),
(706,469,l),
(730,611,l),
(142,611,l)
);
}
);
width = 806;
},
{
layerId = "3BB79724-DEC0-46E7-8764-1315E4CC4648";
shapes = (
{
closed = 1;
nodes = (
(123,498,l),
(711,498,l),
(725,582,l),
(137,582,l)
);
}
);
width = 806;
}
);
unicode = 45;
},
{
glyphname = period;
layers = (
{
layerId = "52B6FC9B-A007-47B3-A216-6773BDC6150A";
shapes = (
{
closed = 1;
nodes = (
(274,-22,o),
(316,-5,o),
(349,23,cs),
(381,51,o),
(404,91,o),
(412,136,cs),
(419,181,o),
(409,221,o),
(386,249,cs),
(362,277,o),
(326,294,o),
(282,294,cs),
(238,294,o),
(196,277,o),
(164,249,cs),
(131,221,o),
(108,181,o),
(100,136,cs),
(92,91,o),
(102,51,o),
(126,23,cs),
(150,-5,o),
(186,-22,o),
(230,-22,cs)
);
}
);
width = 604;
},
{
layerId = "8674DFB1-DD33-4B55-AF75-50F2BA2F7F30";
shapes = (
{
closed = 1;
nodes = (
(211,-13,o),
(240,-1,o),
(264,19,cs),
(287,39,o),
(305,67,o),
(310,99,cs),
(315,132,o),
(307,160,o),
(291,180,cs),
(274,200,o),
(249,212,o),
(217,212,cs),
(185,212,o),
(156,200,o),
(132,180,cs),
(108,160,o),
(92,132,o),
(87,99,c),
(80,67,o),
(89,39,o),
(106,19,cs),
(122,-1,o),
(148,-13,o),
(179,-13,cs)
);
}
);
width = 501;
},
{
layerId = "3BB79724-DEC0-46E7-8764-1315E4CC4648";
shapes = (
{
closed = 1;
nodes = (
(156,-6,o),
(174,2,o),
(190,15,cs),
(205,28,o),
(217,47,o),
(220,67,cs),
(224,88,o),
(219,107,o),
(208,120,cs),
(197,133,o),
(181,141,o),
(160,141,cs),
(139,141,o),
(120,133,o),
(105,120,cs),
(89,107,o),
(79,88,o),
(75,67,cs),
(71,47,o),
(77,28,o),
(88,15,cs),
(99,2,o),
(115,-6,o),
(135,-6,cs)
);
}
);
width = 410;
}
);
leftKerningGroup = comma;
unicode = 46;
},
{
glyphname = slash;
layers = (
{
layerId = "52B6FC9B-A007-47B3-A216-6773BDC6150A";
shapes = (
{
closed = 1;
nodes = (
(655,1440,l),
(40,0,l),
(307,0,l),
(921,1440,l)
);
}
);
width = 861;
},
{
layerId = "8674DFB1-DD33-4B55-AF75-50F2BA2F7F30";
shapes = (
{
closed = 1;
nodes = (
(655,1440,l),
(40,0,l),
(212,0,l),
(826,1440,l)
);
}
);
width = 766;
},
{
layerId = "3BB79724-DEC0-46E7-8764-1315E4CC4648";
shapes = (
{
closed = 1;
nodes = (
(655,1440,l),
(40,0,l),
(128,0,l),
(743,1440,l)
);
}
);
width = 682;
}
);
unicode = 47;
},
{
glyphname = zero;
layers = (
{
layerId = "52B6FC9B-A007-47B3-A216-6773BDC6150A";
shapes = (
{
closed = 1;
nodes = (
(1179,-30,o),
(1361,410,o),
(1361,876,cs),
(1361,1166,o),
(1221,1469,o),
(891,1469,cs),
(372,1469,o),
(188,1030,o),
(188,563,cs),
(188,273,o),
(331,-30,o),
(660,-30,cs)
);
},
{
closed = 1;
nodes = (
(521,225,o),
(472,427,o),
(472,572,cs),
(472,808,o),
(544,1213,o),
(852,1213,cs),
(1033,1213,o),
(1077,1011,o),
(1077,867,cs),
(1077,630,o),
(1005,225,o),
(700,225,cs)
);
}
);
width = 1379;
},
{
layerId = "8674DFB1-DD33-4B55-AF75-50F2BA2F7F30";
shapes = (
{
closed = 1;
nodes = (
(1111,-33,o),
(1274,464,o),
(1274,876,cs),
(1274,1180,o),
(1142,1461,o),
(799,1461,cs),
(313,1461,o),
(148,963,o),
(148,549,cs),
(148,245,o),
(288,-33,o),
(626,-33,cs)
);
},
{
closed = 1;
nodes = (
(406,131,o),
(329,352,o),
(329,555,cs),
(329,830,o),
(426,1297,o),
(779,1297,cs),
(1020,1297,o),
(1094,1078,o),
(1094,873,cs),
(1094,597,o),
(996,131,o),
(644,131,cs)
);
}
);
width = 1336;
},
{
layerId = "3BB79724-DEC0-46E7-8764-1315E4CC4648";
shapes = (
{
closed = 1;
nodes = (
(1122,-35,o),
(1274,511,o),
(1274,876,cs),
(1274,1192,o),
(1149,1454,o),
(795,1454,cs),
(342,1454,o),
(190,904,o),
(190,536,cs),
(190,221,o),
(326,-35,o),
(672,-35,cs)
);
},
{
closed = 1;
nodes = (
(382,49,o),
(279,287,o),
(279,541,cs),
(279,849,o),
(400,1370,o),
(792,1370,cs),
(1084,1370,o),
(1185,1135,o),
(1185,877,cs),
(1185,568,o),
(1065,49,o),
(671,49,cs)
);
}
);
width = 1298;
}
);
unicode = 48;
},
{
glyphname = one;
layers = (
{
layerId = "52B6FC9B-A007-47B3-A216-6773BDC6150A";
shapes = (
{
closed = 1;
nodes = (
(466,0,l),
(730,0,l),
(953,1440,l),
(686,1440,l),
(264,1198,l),
(347,991,l),
(638,1152,l)
);
}
);
width = 965;
},
{
layerId = "8674DFB1-DD33-4B55-AF75-50F2BA2F7F30";
shapes = (
{
closed = 1;
nodes = (
(380,0,l),
(548,0,l),
(769,1440,l),
(600,1440,l),
(228,1226,l),
(282,1092,l),
(571,1255,l)
);
}
);
width = 823;
},
{
layerId = "3BB79724-DEC0-46E7-8764-1315E4CC4648";
shapes = (
{
closed = 1;
nodes = (
(382,0,l),
(464,0,l),
(684,1440,l),
(602,1440,l),
(272,1250,l),
(301,1181,l),
(589,1345,l)
);
}
);
width = 699;
}
);
unicode = 49;
},
{
glyphname = two;
layers = (
{
layerId = "52B6FC9B-A007-47B3-A216-6773BDC6150A";
shapes = (
{
closed = 1;
nodes = (
(120,257,l),
(81,0,l),
(1086,0,l),
(1125,257,l),
(540,257,l),
(976,588,ls),
(1135,710,o),
(1251,862,o),
(1251,1078,cs),
(1251,1322,o),
(1040,1469,o),
(818,1469,cs),
(527,1469,o),
(339,1376,o),
(224,1097,c),
(502,1023,l),
(549,1157,o),
(635,1216,o),
(772,1216,cs),
(873,1216,o),
(968,1162,o),
(968,1049,cs),
(968,915,o),
(891,856,o),
(796,784,cs)
);
}
);
width = 1197;
},
{
layerId = "8674DFB1-DD33-4B55-AF75-50F2BA2F7F30";
shapes = (
{
closed = 1;
nodes = (
(72,165,l),
(47,0,l),
(987,0,l),
(1012,165,l),
(331,165,l),
(881,622,ls),
(1028,744,o),
(1155,891,o),
(1155,1098,cs),
(1155,1341,o),
(940,1471,o),
(723,1471,cs),
(461,1471,o),
(271,1346,o),
(184,1095,c),
(355,1049,l),
(403,1212,o),
(533,1308,o),
(698,1308,cs),
(830,1308,o),
(978,1236,o),
(978,1082,cs),
(978,925,o),
(862,823,o),
(754,733,cs)
);
}
);
width = 1138;
},
{
layerId = "3BB79724-DEC0-46E7-8764-1315E4CC4648";
shapes = (
{
closed = 1;
nodes = (
(106,84,l),
(93,0,l),
(975,0,l),
(989,84,l),
(223,84,l),
(874,652,ls),
(1010,771,o),
(1145,917,o),
(1145,1116,cs),
(1145,1358,o),
(926,1472,o),
(715,1472,cs),
(478,1472,o),
(290,1320,o),
(224,1094,c),
(302,1072,l),
(351,1260,o),
(518,1388,o),
(708,1388,cs),
(868,1388,o),
(1061,1299,o),
(1061,1112,cs),
(1061,934,o),
(911,794,o),
(792,689,cs)
);
}
);
width = 1086;
}
);
unicode = 50;
},
{
glyphname = three;
layers = (
{
layerId = "52B6FC9B-A007-47B3-A216-6773BDC6150A";
shapes = (
{
closed = 1;
nodes = (
(939,-30,o),
(1207,106,o),
(1207,486,cs),
(1207,656,o),
(1058,851,o),
(878,851,cs),
(877,851,l),
(1257,1184,l),
(1295,1440,l),
(349,1440,l),
(310,1184,l),
(934,1184,l),
(572,867,l),
(539,650,l),
(710,650,ls),
(832,650,o),
(924,587,o),
(924,457,cs),
(924,315,o),
(810,221,o),
(679,221,cs),
(508,221,o),
(412,313,o),
(400,482,c),
(123,440,l),
(149,177,o),
(332,-30,o),
(604,-30,cs)
);
}
);
width = 1256;
},
{
layerId = "8674DFB1-DD33-4B55-AF75-50F2BA2F7F30";
shapes = (
{
closed = 1;
nodes = (
(855,-30,o),
(1108,154,o),
(1108,497,cs),
(1108,712,o),
(938,842,o),
(734,842,cs),
(732,842,l),
(1179,1276,l),
(1204,1440,l),
(315,1440,l),
(290,1276,l),
(971,1276,l),
(533,849,l),
(511,704,l),
(651,704,ls),
(804,704,o),
(931,645,o),
(931,475,cs),
(931,270,o),
(770,132,o),
(579,132,cs),
(375,132,o),
(273,226,o),
(251,425,c),
(78,396,l),
(102,140,o),
(263,-30,o),
(538,-30,cs)
);
}
);
width = 1195;
},
{
layerId = "3BB79724-DEC0-46E7-8764-1315E4CC4648";
shapes = (
{
closed = 1;
nodes = (
(855,-30,o),
(1095,196,o),
(1095,506,cs),
(1095,760,o),
(906,834,o),
(682,834,cs),
(679,834,l),
(1184,1356,l),
(1197,1440,l),
(359,1440,l),
(346,1356,l),
(1077,1356,l),
(572,834,l),
(560,751,l),
(674,751,ls),
(852,751,o),
(1011,697,o),
(1011,491,cs),
(1011,231,o),
(808,54,o),
(565,54,cs),
(332,54,o),
(225,150,o),
(194,374,c),
(113,358,l),
(134,106,o),
(277,-30,o),
(554,-30,cs)
);
}
);
width = 1142;
}
);
unicode = 51;
},
{
glyphname = four;
layers = (
{
layerId = "52B6FC9B-A007-47B3-A216-6773BDC6150A";
shapes = (
{
closed = 1;
nodes = (
(719,0,l),
(985,0,l),
(1023,244,l),
(1156,244,l),
(1196,498,l),
(1061,498,l),
(1127,929,l),
(863,929,l),
(797,498,l),
(424,498,l),
(1009,1440,l),
(719,1440,l),
(135,498,l),
(96,244,l),
(757,244,l)
);
}
);
width = 1238;
},
{
layerId = "8674DFB1-DD33-4B55-AF75-50F2BA2F7F30";
shapes = (
{
closed = 1;
nodes = (
(731,0,l),
(899,0,l),
(942,277,l),
(1077,277,l),
(1102,440,l),
(966,440,l),
(1042,929,l),
(874,929,l),
(799,440,l),
(271,440,l),
(890,1440,l),
(707,1440,l),
(87,440,l),
(61,277,l),
(775,277,l)
);
}
);
width = 1192;
},
{
layerId = "3BB79724-DEC0-46E7-8764-1315E4CC4648";
shapes = (
{
closed = 1;
nodes = (
(814,0,l),
(896,0,l),
(944,305,l),
(1079,305,l),
(1092,389,l),
(956,389,l),
(1039,929,l),
(956,929,l),
(873,389,l),
(209,389,l),
(859,1440,l),
(767,1440,l),
(118,389,l),
(104,305,l),
(862,305,l)
);
}
);
width = 1152;
}
);
unicode = 52;
},
{
glyphname = five;
layers = (
{
layerId = "52B6FC9B-A007-47B3-A216-6773BDC6150A";
shapes = (
{
closed = 1;
nodes = (
(942,-30,o),
(1208,109,o),
(1208,490,cs),
(1208,746,o),
(990,907,o),
(755,907,cs),
(565,907,l),
(623,1184,l),
(1220,1184,l),
(1258,1440,l),
(413,1440,l),
(243,650,l),
(709,650,ls),
(830,650,o),
(924,585,o),
(924,457,cs),
(924,294,o),
(798,222,o),
(651,222,cs),
(494,222,o),
(412,334,o),
(403,482,c),
(124,440,l),
(147,183,o),
(329,-30,o),
(605,-30,cs)
);
}
);
width = 1256;
},
{
layerId = "8674DFB1-DD33-4B55-AF75-50F2BA2F7F30";
shapes = (
{
closed = 1;
nodes = (
(855,-30,o),
(1103,118,o),
(1103,473,cs),
(1103,720,o),
(901,866,o),
(675,866,cs),
(420,866,l),
(508,1276,l),
(1138,1276,l),
(1162,1440,l),
(376,1440,l),
(217,702,l),
(646,702,ls),
(807,702,o),
(926,627,o),
(926,455,cs),
(926,231,o),
(766,132,o),
(562,132,cs),
(375,132,o),
(274,253,o),
(252,425,c),
(78,396,l),
(107,154,o),
(274,-30,o),
(534,-30,cs)
);
}
);
width = 1195;
},
{
layerId = "3BB79724-DEC0-46E7-8764-1315E4CC4648";
shapes = (
{
closed = 1;
nodes = (
(855,-30,o),
(1087,125,o),
(1087,460,cs),
(1087,698,o),
(899,831,o),
(680,831,cs),
(371,831,l),
(483,1356,l),
(1142,1356,l),
(1153,1440,l),
(418,1440,l),
(271,748,l),
(666,748,ls),
(862,748,o),
(1003,663,o),
(1003,453,cs),
(1003,177,o),
(814,53,o),
(560,53,cs),
(346,53,o),
(230,183,o),
(194,374,c),
(113,358,l),
(148,130,o),
(301,-30,o),
(546,-30,cs)
);
}
);
width = 1142;
}
);
unicode = 53;
},
{
glyphname = six;
layers = (
{
layerId = "52B6FC9B-A007-47B3-A216-6773BDC6150A";
shapes = (
{
closed = 1;
nodes = (
(963,-30,o),
(1192,162,o),
(1192,500,cs),
(1192,795,o),
(971,923,o),
(708,923,cs),
(592,923,o),
(487,899,o),
(403,813,c),
(461,1077,o),
(594,1221,o),
(889,1221,cs),
(984,1221,o),
(1072,1195,o),
(1158,1151,c),
(1230,1392,l),
(1114,1440,o),
(975,1469,o),
(851,1469,cs),
(333,1469,o),
(111,1010,o),
(111,554,cs),
(111,190,o),
(272,-30,o),
(646,-30,cs)
);
},
{
closed = 1;
nodes = (
(523,225,o),
(384,282,o),
(384,432,cs),
(384,590,o),
(501,662,o),
(641,662,cs),
(767,662,o),
(905,608,o),
(905,457,cs),
(905,300,o),
(786,225,o),
(648,225,cs)
);
}
);
width = 1189;
},
{
layerId = "8674DFB1-DD33-4B55-AF75-50F2BA2F7F30";
shapes = (
{
closed = 1;
nodes = (
(900,-30,o),
(1120,164,o),
(1120,490,cs),
(1120,788,o),
(894,922,o),
(628,922,cs),
(491,922,o),
(346,881,o),
(264,763,c),
(326,1073,o),
(477,1310,o),
(837,1310,cs),
(932,1310,o),
(1023,1286,o),
(1111,1245,c),
(1156,1402,l),
(1048,1444,o),
(925,1469,o),
(808,1469,cs),
(282,1469,o),
(72,971,o),
(72,518,cs),
(72,186,o),
(213,-30,o),
(593,-30,cs)
);
},
{
closed = 1;
nodes = (
(418,134,o),
(250,215,o),
(250,423,cs),
(250,637,o),
(394,756,o),
(593,756,cs),
(768,756,o),
(938,674,o),
(938,468,cs),
(938,256,o),
(795,134,o),
(597,134,cs)
);
}
);
width = 1164;
},
{
layerId = "3BB79724-DEC0-46E7-8764-1315E4CC4648";
shapes = (
{
closed = 1;
nodes = (
(921,-30,o),
(1132,166,o),
(1132,481,cs),
(1132,781,o),
(903,921,o),
(634,921,cs),
(478,921,o),
(298,866,o),
(217,720,c),
(285,1078,o),
(440,1387,o),
(866,1387,cs),
(962,1387,o),
(1055,1367,o),
(1146,1327,c),
(1165,1409,l),
(1065,1448,o),
(956,1469,o),
(846,1469,cs),
(315,1469,o),
(112,936,o),
(112,486,cs),
(112,183,o),
(237,-30,o),
(621,-30,cs)
);
},
{
closed = 1;
nodes = (
(402,54,o),
(208,156,o),
(208,415,cs),
(208,678,o),
(375,838,o),
(626,838,cs),
(845,838,o),
(1043,732,o),
(1043,478,cs),
(1043,217,o),
(878,54,o),
(627,54,cs)
);
}
);
width = 1142;
}
);
unicode = 54;
},
{
glyphname = seven;
layers = (
{
layerId = "52B6FC9B-A007-47B3-A216-6773BDC6150A";
shapes = (
{
closed = 1;
nodes = (
(171,0,l),
(462,0,l),
(1174,1185,l),
(1212,1440,l),
(281,1440,l),
(241,1185,l),
(884,1185,l)
);
}
);
width = 1090;
},
{
layerId = "8674DFB1-DD33-4B55-AF75-50F2BA2F7F30";
shapes = (
{
closed = 1;
nodes = (
(135,0,l),
(319,0,l),
(1084,1275,l),
(1108,1440,l),
(242,1440,l),
(216,1275,l),
(901,1275,l)
);
}
);
width = 1025;
},
{
layerId = "3BB79724-DEC0-46E7-8764-1315E4CC4648";
shapes = (
{
closed = 1;
nodes = (
(179,0,l),
(268,0,l),
(1080,1353,l),
(1093,1440,l),
(283,1440,l),
(270,1353,l),
(991,1353,l)
);
}
);
width = 969;
}
);
unicode = 55;
},
{
glyphname = eight;
layers = (
{
layerId = "52B6FC9B-A007-47B3-A216-6773BDC6150A";
shapes = (
{
closed = 1;
nodes = (
(751,605,o),
(911,575,o),
(911,429,cs),
(911,285,o),
(801,222,o),
(675,222,cs),
(562,222,o),
(410,259,o),
(410,406,cs),
(410,550,o),
(518,605,o),
(640,605,cs)
);
},
{
closed = 1;
nodes = (
(633,859,o),
(543,915,o),
(543,1022,cs),
(543,1176,o),
(665,1214,o),
(784,1214,cs),
(877,1214,o),
(969,1152,o),
(969,1046,cs),
(969,894,o),
(856,859,o),
(729,859,cs)
);
},
{
closed = 1;
nodes = (
(535,1469,o),
(267,1364,o),
(267,1007,cs),
(267,912,o),
(303,817,o),
(383,768,c),
(219,731,o),
(128,547,o),
(128,384,cs),
(128,75,o),
(412,-33,o),
(668,-33,cs),
(942,-33,o),
(1192,125,o),
(1192,432,cs),
(1192,542,o),
(1134,662,o),
(1035,710,c),
(1180,759,o),
(1246,924,o),
(1246,1075,cs),
(1246,1315,o),
(1045,1469,o),
(824,1469,cs)
);
}
);
width = 1256;
},
{
layerId = "8674DFB1-DD33-4B55-AF75-50F2BA2F7F30";
shapes = (
{
closed = 1;
nodes = (
(753,656,o),
(930,589,o),
(930,419,cs),
(930,204,o),
(751,132,o),
(577,132,cs),
(431,132,o),
(265,217,o),
(265,388,cs),
(265,607,o),
(443,656,o),
(613,656,cs)
);
},
{
closed = 1;
nodes = (
(537,819,o),
(406,903,o),
(406,1045,cs),
(406,1253,o),
(575,1305,o),
(737,1305,cs),
(865,1305,o),
(992,1220,o),
(992,1076,cs),
(992,870,o),
(827,819,o),
(662,819,cs)
);
},
{
closed = 1;
nodes = (
(493,1469,o),
(232,1368,o),
(232,1035,cs),
(232,923,o),
(281,817,o),
(378,765,c),
(199,736,o),
(88,553,o),
(88,376,cs),
(88,106,o),
(330,-31,o),
(566,-31,cs),
(843,-31,o),
(1107,105,o),
(1107,422,cs),
(1107,548,o),
(1036,671,o),
(920,716,c),
(1077,764,o),
(1166,927,o),
(1166,1093,cs),
(1166,1320,o),
(972,1469,o),
(762,1469,cs)
);
}
);
width = 1212;
},
{
layerId = "3BB79724-DEC0-46E7-8764-1315E4CC4648";
shapes = (
{
closed = 1;
nodes = (
(829,700,o),
(1021,601,o),
(1021,410,cs),
(1021,133,o),
(783,54,o),
(565,54,cs),
(390,54,o),
(213,181,o),
(213,373,cs),
(213,657,o),
(451,700,o),
(664,700,cs)
);
},
{
closed = 1;
nodes = (
(526,784,o),
(361,893,o),
(361,1066,cs),
(361,1322,o),
(571,1384,o),
(770,1384,cs),
(927,1384,o),
(1085,1280,o),
(1085,1102,cs),
(1085,848,o),
(874,784,o),
(676,784,cs)
);
},
{
closed = 1;
nodes = (
(530,1469,o),
(276,1372,o),
(276,1059,cs),
(276,934,o),
(336,817,o),
(447,763,c),
(256,740,o),
(127,560,o),
(127,369,cs),
(127,134,o),
(333,-30,o),
(550,-30,cs),
(831,-30,o),
(1107,88,o),
(1107,412,cs),
(1107,553,o),
(1026,680,o),
(894,723,c),
(1063,769,o),
(1170,930,o),
(1170,1109,cs),
(1170,1324,o),
(982,1469,o),
(783,1469,cs)
);
}
);
width = 1173;
}
);
unicode = 56;
},
{
glyphname = nine;
layers = (
{
layerId = "52B6FC9B-A007-47B3-A216-6773BDC6150A";
shapes = (
{
closed = 1;
nodes = (
(395,1469,o),
(166,1278,o),
(166,940,cs),
(166,643,o),
(389,515,o),
(651,515,cs),
(767,515,o),
(871,541,o),
(956,627,c),
(897,362,o),
(766,218,o),
(470,218,cs),
(374,218,o),
(287,245,o),
(200,289,c),
(128,47,l),
(244,0,o),
(384,-30,o),
(508,-30,cs),
(1027,-30,o),
(1247,427,o),
(1247,884,cs),
(1247,1249,o),
(1086,1469,o),
(713,1469,cs)
);
},
{
closed = 1;
nodes = (
(837,1213,o),
(974,1158,o),
(974,1006,cs),
(974,848,o),
(858,778,o),
(717,778,cs),
(592,778,o),
(453,832,o),
(453,983,cs),
(453,1139,o),
(572,1213,o),
(710,1213,cs)
);
}
);
width = 1189;
},
{
layerId = "8674DFB1-DD33-4B55-AF75-50F2BA2F7F30";
shapes = (
{
closed = 1;
nodes = (
(354,1469,o),
(133,1276,o),
(133,950,cs),
(133,652,o),
(359,516,o),
(626,516,cs),
(762,516,o),
(907,558,o),
(990,675,c),
(926,367,o),
(775,129,o),
(417,129,cs),
(320,129,o),
(231,153,o),
(142,194,c),
(97,38,l),
(205,-5,o),
(329,-30,o),
(444,-30,cs),
(968,-30,o),
(1182,468,o),
(1182,921,cs),
(1182,1252,o),
(1040,1469,o),
(660,1469,cs)
);
},
{
closed = 1;
nodes = (
(836,1305,o),
(1004,1225,o),
(1004,1016,cs),
(1004,801,o),
(860,683,o),
(661,683,cs),
(484,683,o),
(315,765,o),
(315,971,cs),
(315,1183,o),
(458,1305,o),
(656,1305,cs)
);
}
);
width = 1164;
},
{
layerId = "3BB79724-DEC0-46E7-8764-1315E4CC4648";
shapes = (
{
closed = 1;
nodes = (
(391,1469,o),
(178,1274,o),
(178,958,cs),
(178,659,o),
(409,517,o),
(678,517,cs),
(833,517,o),
(1012,574,o),
(1094,718,c),
(1025,362,o),
(870,52,o),
(445,52,cs),
(349,52,o),
(256,72,o),
(165,112,c),
(145,30,l),
(246,-9,o),
(356,-30,o),
(464,-30,cs),
(991,-30,o),
(1200,505,o),
(1200,954,cs),
(1200,1255,o),
(1073,1469,o),
(689,1469,cs)
);
},
{
closed = 1;
nodes = (
(910,1385,o),
(1103,1283,o),
(1103,1025,cs),
(1103,760,o),
(936,600,o),
(685,600,cs),
(465,600,o),
(268,708,o),
(268,960,cs),
(268,1222,o),
(433,1385,o),
(684,1385,cs)
);
}
);
width = 1142;
}
);
unicode = 57;
},
{
glyphname = less;
layers = (
{
layerId = "52B6FC9B-A007-47B3-A216-6773BDC6150A";
shapes = (
{
closed = 1;
nodes = (
(684,146,l),
(877,314,l),
(608,630,l),
(981,946,l),
(845,1114,l),
(290,630,l)
);
}
);
width = 1219;
},
{
layerId = "8674DFB1-DD33-4B55-AF75-50F2BA2F7F30";
shapes = (
{
closed = 1;
nodes = (
(674,158,l),
(799,265,l),
(496,630,l),
(919,995,l),
(831,1102,l),
(290,630,l)
);
}
);
width = 1169;
},
{
layerId = "3BB79724-DEC0-46E7-8764-1315E4CC4648";
shapes = (
{
closed = 1;
nodes = (
(666,168,l),
(730,222,l),
(398,630,l),
(865,1038,l),
(819,1092,l),
(290,630,l)
);
}
);
width = 1126;
}
);
unicode = 60;
},
{
glyphname = equal;
layers = (
{
layerId = "52B6FC9B-A007-47B3-A216-6773BDC6150A";
shapes = (
{
closed = 1;
nodes = (
(283,810,l),
(1283,810,l),
(1318,1020,l),
(318,1020,l)
);
},
{
closed = 1;
nodes = (
(219,420,l),
(1219,420,l),
(1253,630,l),
(254,630,l)
);
}
);
width = 1436;
},
{
layerId = "8674DFB1-DD33-4B55-AF75-50F2BA2F7F30";
shapes = (
{
closed = 1;
nodes = (
(286,824,l),
(1285,824,l),
(1309,967,l),
(309,967,l)
);
},
{
closed = 1;
nodes = (
(228,473,l),
(1228,473,l),
(1251,616,l),
(251,616,l)
);
}
);
width = 1436;
},
{
layerId = "3BB79724-DEC0-46E7-8764-1315E4CC4648";
shapes = (
{
closed = 1;
nodes = (
(288,836,l),
(1287,836,l),
(1301,920,l),
(302,920,l)
);
},
{
closed = 1;
nodes = (
(235,520,l),
(1235,520,l),
(1249,604,l),
(249,604,l)
);
}
);
width = 1436;
}
);
unicode = 61;
},
{
glyphname = greater;
layers = (
{
layerId = "52B6FC9B-A007-47B3-A216-6773BDC6150A";
shapes = (
{
closed = 1;
nodes = (
(309,314,l),
(446,146,l),
(1000,630,l),
(606,1114,l),
(413,946,l),
(683,630,l)
);
}
);
width = 1219;
},
{
layerId = "8674DFB1-DD33-4B55-AF75-50F2BA2F7F30";
shapes = (
{
closed = 1;
nodes = (
(321,265,l),
(410,158,l),
(950,630,l),
(566,1102,l),
(442,995,l),
(745,630,l)
);
}
);
width = 1169;
},
{
layerId = "3BB79724-DEC0-46E7-8764-1315E4CC4648";
shapes = (
{
closed = 1;
nodes = (
(332,222,l),
(378,168,l),
(907,630,l),
(531,1092,l),
(467,1038,l),
(799,630,l)
);
}
);
width = 1126;
}
);
unicode = 62;
},
{
glyphname = question;
layers = (
{
layerId = "52B6FC9B-A007-47B3-A216-6773BDC6150A";
shapes = (
{
closed = 1;
nodes = (
(823,391,l),
(830,434,ls),
(876,711,o),
(1340,573,o),
(1340,1091,cs),
(1340,1335,o),
(1169,1470,o),
(873,1470,cs),
(581,1470,o),
(308,1336,o),
(188,989,c),
(466,946,l),
(519,1106,o),
(625,1210,o),
(803,1210,cs),
(951,1210,o),
(1034,1139,o),
(1034,1043,cs),
(1034,785,o),
(600,816,o),
(558,559,cs),
(531,391,l)
);
},
{
closed = 1;
nodes = (
(713,-22,o),
(796,65,o),
(796,165,cs),
(796,241,o),
(743,294,o),
(665,294,cs),
(564,294,o),
(481,208,o),
(481,108,cs),
(481,32,o),
(534,-22,o),
(612,-22,cs)
);
}
);
width = 1313;
},
{
layerId = "8674DFB1-DD33-4B55-AF75-50F2BA2F7F30";
shapes = (
{
closed = 1;
nodes = (
(646,378,l),
(655,433,ls),
(713,790,o),
(1159,658,o),
(1159,1134,cs),
(1159,1351,o),
(1005,1470,o),
(759,1470,cs),
(502,1470,o),
(273,1339,o),
(198,1050,c),
(365,1029,l),
(406,1210,o),
(537,1309,o),
(718,1309,cs),
(877,1309,o),
(975,1237,o),
(975,1105,cs),
(975,768,o),
(552,870,o),
(486,485,cs),
(469,378,l)
);
},
{
closed = 1;
nodes = (
(564,-13,o),
(623,49,o),
(623,118,cs),
(623,171,o),
(585,208,o),
(531,208,cs),
(460,208,o),
(402,148,o),
(402,78,cs),
(402,25,o),
(440,-13,o),
(494,-13,cs)
);
}
);
width = 1132;
},
{
layerId = "3BB79724-DEC0-46E7-8764-1315E4CC4648";
shapes = (
{
closed = 1;
nodes = (
(513,368,l),
(524,432,ls),
(591,843,o),
(1022,723,o),
(1022,1166,cs),
(1022,1364,o),
(882,1470,o),
(673,1470,cs),
(442,1470,o),
(246,1341,o),
(205,1095,c),
(289,1091,l),
(322,1288,o),
(471,1384,o),
(655,1384,cs),
(821,1384,o),
(931,1310,o),
(931,1154,cs),
(931,756,o),
(511,912,o),
(432,430,cs),
(422,368,l)
);
},
{
closed = 1;
nodes = (
(452,-6,o),
(493,36,o),
(493,82,cs),
(493,118,o),
(468,144,o),
(430,144,cs),
(383,144,o),
(343,103,o),
(343,56,cs),
(343,20,o),
(368,-6,o),
(405,-6,cs)
);
}
);
width = 997;
}
);
unicode = 63;
},
{
glyphname = at;
layers = (
{
layerId = "52B6FC9B-A007-47B3-A216-6773BDC6150A";
shapes = (
{
closed = 1;
nodes = (
(877,-210,o),
(975,-196,o),
(1068,-166,c),
(1035,34,l),
(966,13,o),
(895,0,o),
(823,0,cs),
(556,0,o),
(374,133,o),
(374,414,cs),
(374,792,o),
(609,1080,o),
(1000,1080,cs),
(1242,1080,o),
(1445,958,o),
(1445,696,cs),
(1445,603,o),
(1434,364,o),
(1303,364,cs),
(1252,364,o),
(1235,407,o),
(1235,451,cs),
(1235,603,o),
(1283,751,o),
(1309,900,c),
(1151,900,l),
(1131,778,l),
(1181,836,l),
(1134,895,o),
(1027,928,o),
(953,928,cs),
(694,928,o),
(506,711,o),
(506,459,cs),
(506,270,o),
(635,152,o),
(821,152,cs),
(936,152,o),
(1040,200,o),
(1106,296,c),
(1039,296,l),
(1064,195,o),
(1172,152,o),
(1268,152,cs),
(1569,152,o),
(1667,452,o),
(1667,712,cs),
(1667,1102,o),
(1381,1290,o),
(1015,1290,cs),
(509,1290,o),
(149,865,o),
(149,372,cs),
(149,-3,o),
(421,-210,o),
(779,-210,cs)
);
},
{
closed = 1;
nodes = (
(785,364,o),
(731,410,o),
(731,499,cs),
(731,626,o),
(808,716,o),
(938,716,cs),
(1019,716,o),
(1061,674,o),
(1061,593,cs),
(1061,471,o),
(1007,364,o),
(872,364,cs)
);
}
);
width = 1774;
},
{
layerId = "8674DFB1-DD33-4B55-AF75-50F2BA2F7F30";
shapes = (
{
closed = 1;
nodes = (
(902,-210,o),
(1028,-179,o),
(1141,-123,c),
(1113,6,l),
(1020,-41,o),
(911,-67,o),
(806,-67,cs),
(514,-67,o),
(305,120,o),
(305,419,cs),
(305,819,o),
(604,1147,o),
(1010,1147,cs),
(1284,1147,o),
(1498,1003,o),
(1498,711,cs),
(1498,583,o),
(1461,322,o),
(1290,322,cs),
(1216,322,o),
(1178,363,o),
(1178,438,cs),
(1178,555,o),
(1220,705,o),
(1240,823,c),
(1125,823,l),
(1104,694,l),
(1151,741,l),
(1113,819,o),
(1014,851,o),
(931,851,cs),
(712,851,o),
(555,670,o),
(555,456,cs),
(555,296,o),
(663,198,o),
(820,198,cs),
(927,198,o),
(1031,243,o),
(1090,334,c),
(1040,339,l),
(1056,226,o),
(1156,179,o),
(1261,179,cs),
(1545,179,o),
(1649,486,o),
(1649,726,cs),
(1649,1100,o),
(1378,1290,o),
(1025,1290,cs),
(530,1290,o),
(152,876,o),
(152,387,cs),
(152,22,o),
(418,-210,o),
(775,-210,cs)
);
},
{
closed = 1;
nodes = (
(765,343,o),
(704,388,o),
(704,480,cs),
(704,613,o),
(781,709,o),
(918,709,cs),
(1004,709,o),
(1058,664,o),
(1058,575,cs),
(1058,448,o),
(990,343,o),
(854,343,cs)
);
}
);
width = 1753;
},
{
layerId = "3BB79724-DEC0-46E7-8764-1315E4CC4648";
shapes = (
{
closed = 1;
nodes = (
(924,-210,o),
(1074,-165,o),
(1205,-86,c),
(1181,-18,l),
(1067,-89,o),
(925,-126,o),
(791,-126,cs),
(477,-126,o),
(244,109,o),
(244,423,cs),
(244,842,o),
(599,1206,o),
(1019,1206,cs),
(1320,1206,o),
(1544,1042,o),
(1544,725,cs),
(1544,565,o),
(1484,286,o),
(1278,286,cs),
(1184,286,o),
(1129,325,o),
(1129,426,cs),
(1129,513,o),
(1165,664,o),
(1180,756,c),
(1103,756,l),
(1081,620,l),
(1124,658,l),
(1095,752,o),
(1003,784,o),
(912,784,cs),
(727,784,o),
(597,634,o),
(597,453,cs),
(597,319,o),
(688,238,o),
(820,238,cs),
(919,238,o),
(1023,281,o),
(1076,368,c),
(1040,376,l),
(1049,254,o),
(1142,202,o),
(1255,202,cs),
(1524,202,o),
(1634,515,o),
(1634,739,cs),
(1634,1099,o),
(1375,1290,o),
(1033,1290,cs),
(548,1290,o),
(154,885,o),
(154,401,cs),
(154,43,o),
(415,-210,o),
(771,-210,cs)
);
},
{
closed = 1;
nodes = (
(748,324,o),
(681,368,o),
(681,464,cs),
(681,601,o),
(758,702,o),
(900,702,cs),
(991,702,o),
(1055,655,o),
(1055,560,cs),
(1055,428,o),
(975,324,o),
(838,324,cs)
);
}
);
width = 1735;
}
);
unicode = 64;
},
{
glyphname = A;
layers = (
{
layerId = "52B6FC9B-A007-47B3-A216-6773BDC6150A";
shapes = (
{
closed = 1;
nodes = (
(-33,0,l),
(242,0,l),
(830,1270,l),
(779,1270,l),
(953,0,l),
(1228,0,l),
(1035,1440,l),
(637,1440,l)
);
},
{
closed = 1;
nodes = (
(276,300,l),
(1021,300,l),
(1063,554,l),
(318,554,l)
);
}
);
width = 1333;
},
{
layerId = "8674DFB1-DD33-4B55-AF75-50F2BA2F7F30";
shapes = (
{
closed = 1;
nodes = (
(-33,0,l),
(143,0,l),
(807,1340,l),
(751,1340,l),
(975,0,l),
(1151,0,l),
(914,1440,l),
(681,1440,l)
);
},
{
closed = 1;
nodes = (
(249,339,l),
(982,339,l),
(1008,501,l),
(276,501,l)
);
}
);
width = 1256;
},
{
layerId = "3BB79724-DEC0-46E7-8764-1315E4CC4648";
shapes = (
{
closed = 1;
nodes = (
(-33,0,l),
(56,0,l),
(786,1402,l),
(727,1402,l),
(994,0,l),
(1083,0,l),
(808,1440,l),
(719,1440,l)
);
},
{
closed = 1;
nodes = (
(225,374,l),
(947,374,l),
(960,454,l),
(239,454,l)
);
}
);
width = 1188;
}
);
leftKerningGroup = A2;
rightKerningGroup = A;
unicode = 65;
},
{
glyphname = B;
layers = (
{
layerId = "52B6FC9B-A007-47B3-A216-6773BDC6150A";
shapes = (
{
closed = 1;
nodes = (
(58,0,l),
(684,0,ls),
(977,0,o),
(1189,216,o),
(1189,503,cs),
(1189,646,o),
(1116,747,o),
(975,778,c),
(967,728,l),
(1134,776,o),
(1224,938,o),
(1224,1105,cs),
(1224,1331,o),
(1075,1440,o),
(861,1440,cs),
(297,1440,l)
);
},
{
closed = 1;
nodes = (
(371,256,l),
(432,624,l),
(760,624,ls),
(849,624,o),
(919,582,o),
(919,485,cs),
(919,359,o),
(828,256,o),
(699,256,cs)
);
},
{
closed = 1;
nodes = (
(474,878,l),
(525,1186,l),
(815,1186,ls),
(896,1186,o),
(948,1145,o),
(948,1060,cs),
(948,950,o),
(873,878,o),
(764,878,cs)
);
}
);
width = 1234;
},
{
layerId = "8674DFB1-DD33-4B55-AF75-50F2BA2F7F30";
shapes = (
{
closed = 1;
nodes = (
(58,0,l),
(656,0,ls),
(936,0,o),
(1148,203,o),
(1148,483,cs),
(1148,637,o),
(1061,743,o),
(915,784,c),
(909,735,l),
(1076,789,o),
(1188,953,o),
(1188,1127,cs),
(1188,1332,o),
(1039,1440,o),
(846,1440,cs),
(297,1440,l)
);
},
{
closed = 1;
nodes = (
(256,164,l),
(340,674,l),
(755,674,ls),
(879,674,o),
(973,591,o),
(973,463,cs),
(973,278,o),
(825,164,o),
(649,164,cs)
);
},
{
closed = 1;
nodes = (
(367,836,l),
(440,1278,l),
(817,1278,ls),
(924,1278,o),
(1012,1220,o),
(1012,1104,cs),
(1012,956,o),
(892,836,o),
(744,836,cs)
);
}
);
width = 1197;
},
{
layerId = "3BB79724-DEC0-46E7-8764-1315E4CC4648";
shapes = (
{
closed = 1;
nodes = (
(58,0,l),
(631,0,ls),
(900,0,o),
(1113,192,o),
(1113,466,cs),
(1113,630,o),
(1013,739,o),
(863,790,c),
(859,742,l),
(1026,801,o),
(1157,967,o),
(1157,1146,cs),
(1157,1332,o),
(1007,1440,o),
(832,1440,cs),
(297,1440,l)
);
},
{
closed = 1;
nodes = (
(155,84,l),
(260,718,l),
(750,718,ls),
(906,718,o),
(1021,599,o),
(1021,444,cs),
(1021,208,o),
(823,84,o),
(605,84,cs)
);
},
{
closed = 1;
nodes = (
(273,800,l),
(366,1358,l),
(818,1358,ls),
(949,1358,o),
(1068,1286,o),
(1068,1143,cs),
(1068,961,o),
(908,800,o),
(726,800,cs)
);
}
);
width = 1164;
}
);
rightKerningGroup = B;
unicode = 66;
},
{
glyphname = C;
layers = (
{
layerId = "52B6FC9B-A007-47B3-A216-6773BDC6150A";
shapes = (
{
closed = 1;
nodes = (
(986,-30,o),
(1241,140,o),
(1381,426,c),
(1125,502,l),
(1046,327,o),
(900,226,o),
(707,226,cs),
(483,226,o),
(374,362,o),
(374,580,cs),
(374,884,o),
(525,1214,o),
(871,1214,cs),
(1057,1214,o),
(1172,1124,o),
(1197,938,c),
(1478,1014,l),
(1432,1319,o),
(1211,1470,o),
(913,1470,cs),
(402,1470,o),
(90,1029,o),
(90,548,cs),
(90,189,o),
(307,-30,o),
(665,-30,cs)
);
}
);
width = 1452;
},
{
layerId = "8674DFB1-DD33-4B55-AF75-50F2BA2F7F30";
shapes = (
{
closed = 1;
nodes = (
(961,-30,o),
(1205,149,o),
(1335,440,c),
(1171,486,l),
(1080,269,o),
(905,134,o),
(665,134,cs),
(400,134,o),
(269,300,o),
(269,557,cs),
(269,913,o),
(454,1306,o),
(859,1306,cs),
(1091,1306,o),
(1225,1184,o),
(1249,954,c),
(1428,1000,l),
(1394,1309,o),
(1191,1470,o),
(886,1470,cs),
(374,1470,o),
(89,1010,o),
(89,539,cs),
(89,188,o),
(281,-30,o),
(638,-30,cs)
);
}
);
width = 1404;
},
{
layerId = "3BB79724-DEC0-46E7-8764-1315E4CC4648";
shapes = (
{
closed = 1;
nodes = (
(940,-30,o),
(1174,156,o),
(1295,452,c),
(1212,472,l),
(1109,218,o),
(909,54,o),
(628,54,cs),
(327,54,o),
(177,245,o),
(177,536,cs),
(177,938,o),
(392,1386,o),
(848,1386,cs),
(1120,1386,o),
(1272,1237,o),
(1294,968,c),
(1384,988,l),
(1361,1300,o),
(1173,1470,o),
(862,1470,cs),
(349,1470,o),
(88,994,o),
(88,531,cs),
(88,188,o),
(258,-30,o),
(614,-30,cs)
);
}
);
width = 1362;
}
);
leftKerningGroup = C2;
rightKerningGroup = C;
unicode = 67;
},
{
glyphname = D;
layers = (
{
layerId = "52B6FC9B-A007-47B3-A216-6773BDC6150A";
shapes = (
{
closed = 1;
nodes = (
(58,0,l),
(541,0,ls),
(1038,0,o),
(1348,387,o),
(1348,880,cs),
(1348,1267,o),
(1138,1440,o),
(779,1440,cs),
(297,1440,l)
);
},
{
closed = 1;
nodes = (
(371,256,l),
(525,1184,l),
(743,1184,ls),
(978,1184,o),
(1062,1069,o),
(1062,840,cs),
(1062,498,o),
(902,256,o),
(557,256,cs)
);
}
);
width = 1374;
},
{
layerId = "8674DFB1-DD33-4B55-AF75-50F2BA2F7F30";
shapes = (
{
closed = 1;
nodes = (
(58,0,l),
(504,0,ls),
(1024,0,o),
(1299,390,o),
(1299,901,cs),
(1299,1277,o),
(1111,1440,o),
(760,1440,cs),
(297,1440,l)
);
},
{
closed = 1;
nodes = (
(259,164,l),
(443,1276,l),
(718,1276,ls),
(998,1276,o),
(1119,1163,o),
(1119,878,cs),
(1119,470,o),
(940,164,o),
(519,164,cs)
);
}
);
width = 1314;
},
{
layerId = "3BB79724-DEC0-46E7-8764-1315E4CC4648";
shapes = (
{
closed = 1;
nodes = (
(58,0,l),
(472,0,ls),
(1011,0,o),
(1257,393,o),
(1257,919,cs),
(1257,1285,o),
(1087,1440,o),
(743,1440,cs),
(297,1440,l)
);
},
{
closed = 1;
nodes = (
(161,84,l),
(371,1356,l),
(696,1356,ls),
(1016,1356,o),
(1169,1245,o),
(1169,911,cs),
(1169,445,o),
(974,84,o),
(486,84,cs)
);
}
);
width = 1262;
}
);
rightKerningGroup = D;
unicode = 68;
},
{
glyphname = E;
layers = (
{
layerId = "52B6FC9B-A007-47B3-A216-6773BDC6150A";
shapes = (
{
closed = 1;
nodes = (
(58,0,l),
(980,0,l),
(1022,254,l),
(367,254,l),
(428,624,l),
(965,624,l),
(1007,878,l),
(470,878,l),
(521,1186,l),
(1176,1186,l),
(1218,1440,l),
(297,1440,l)
);
}
);
width = 1139;
},
{
layerId = "8674DFB1-DD33-4B55-AF75-50F2BA2F7F30";
shapes = (
{
closed = 1;
nodes = (
(58,0,l),
(949,0,l),
(976,163,l),
(254,163,l),
(335,653,l),
(938,653,l),
(965,816,l),
(362,816,l),
(438,1277,l),
(1159,1277,l),
(1187,1440,l),
(297,1440,l)
);
}
);
width = 1108;
},
{
layerId = "3BB79724-DEC0-46E7-8764-1315E4CC4648";
shapes = (
{
closed = 1;
nodes = (
(58,0,l),
(921,0,l),
(935,84,l),
(155,84,l),
(253,678,l),
(915,678,l),
(929,762,l),
(267,762,l),
(365,1356,l),
(1145,1356,l),
(1159,1440,l),
(297,1440,l)
);
}
);
width = 1080;
}
);
rightKerningGroup = E;
unicode = 69;
},
{
glyphname = F;
layers = (
{
layerId = "52B6FC9B-A007-47B3-A216-6773BDC6150A";
shapes = (
{
closed = 1;
nodes = (
(58,0,l),
(325,0,l),
(422,584,l),
(900,584,l),
(945,856,l),
(467,856,l),
(518,1168,l),
(1114,1168,l),
(1159,1440,l),
(297,1440,l)
);
}
);
width = 1026;
},
{
layerId = "8674DFB1-DD33-4B55-AF75-50F2BA2F7F30";
shapes = (
{
closed = 1;
nodes = (
(58,0,l),
(227,0,l),
(332,634,l),
(866,634,l),
(895,806,l),
(360,806,l),
(436,1268,l),
(1089,1268,l),
(1117,1440,l),
(297,1440,l)
);
}
);
width = 984;
},
{
layerId = "3BB79724-DEC0-46E7-8764-1315E4CC4648";
shapes = (
{
closed = 1;
nodes = (
(58,0,l),
(141,0,l),
(253,678,l),
(837,678,l),
(851,762,l),
(267,762,l),
(365,1356,l),
(1067,1356,l),
(1081,1440,l),
(297,1440,l)
);
}
);
width = 947;
}
);
unicode = 70;
},
{
glyphname = G;
layers = (
{
layerId = "52B6FC9B-A007-47B3-A216-6773BDC6150A";
shapes = (
{
closed = 1;
nodes = (
(1099,0,l),
(1313,0,l),
(1446,806,l),
(1202,806,l),
(1125,339,l)
);
},
{
closed = 1;
nodes = (
(701,1470,o),
(522,1395,o),
(382,1262,cs),
(241,1129,o),
(142,944,o),
(105,720,cs),
(62,457,o),
(110,254,o),
(228,126,cs),
(322,24,o),
(460,-30,o),
(632,-30,cs),
(728,-30,o),
(849,-6,o),
(951,43,cs),
(1017,75,o),
(1075,118,o),
(1112,173,c),
(1436,806,l),
(837,806,l),
(795,552,l),
(1153,552,l),
(1123,425,o),
(1034,330,o),
(922,276,cs),
(854,244,o),
(778,226,o),
(702,226,cs),
(565,226,o),
(480,274,o),
(431,348,cs),
(368,443,o),
(364,583,o),
(387,720,cs),
(412,863,o),
(468,1000,o),
(563,1094,cs),
(638,1168,o),
(738,1214,o),
(867,1214,cs),
(954,1214,o),
(1028,1192,o),
(1082,1147,cs),
(1138,1100,o),
(1173,1030,o),
(1178,936,c),
(1457,976,l),
(1441,1136,o),
(1389,1256,o),
(1302,1338,cs),
(1208,1426,o),
(1074,1470,o),
(900,1470,cs)
);
}
);
width = 1454;
},
{
layerId = "8674DFB1-DD33-4B55-AF75-50F2BA2F7F30";
shapes = (
{
closed = 1;
nodes = (
(1114,0,l),
(1253,0,l),
(1379,760,l),
(1225,760,l),
(1153,320,l)
);
},
{
closed = 1;
nodes = (
(681,1469,o),
(507,1397,o),
(372,1266,cs),
(237,1136,o),
(143,949,o),
(105,720,cs),
(62,459,o),
(105,256,o),
(219,127,cs),
(310,25,o),
(446,-30,o),
(620,-30,cs),
(739,-30,o),
(868,1,o),
(975,64,cs),
(1045,105,o),
(1105,160,o),
(1147,228,c),
(1372,760,l),
(811,760,l),
(784,597,l),
(1195,597,l),
(1162,425,o),
(1075,288,o),
(944,209,cs),
(864,161,o),
(769,134,o),
(660,134,cs),
(516,134,o),
(415,182,o),
(353,263,cs),
(271,367,o),
(252,527,o),
(282,714,cs),
(313,897,o),
(379,1050,o),
(484,1155,cs),
(579,1252,o),
(702,1305,o),
(857,1305,cs),
(952,1305,o),
(1033,1281,o),
(1095,1234,cs),
(1159,1186,o),
(1201,1114,o),
(1214,1017,c),
(1390,1054,l),
(1370,1191,o),
(1314,1293,o),
(1231,1361,cs),
(1143,1433,o),
(1026,1469,o),
(880,1469,cs)
);
}
);
width = 1394;
},
{
layerId = "3BB79724-DEC0-46E7-8764-1315E4CC4648";
shapes = (
{
closed = 1;
nodes = (
(1127,0,l),
(1201,0,l),
(1320,720,l),
(1246,720,l),
(1177,303,l)
);
},
{
closed = 1;
nodes = (
(664,1468,o),
(494,1398,o),
(364,1270,cs),
(234,1142,o),
(143,954,o),
(105,720,cs),
(62,460,o),
(101,257,o),
(212,128,cs),
(300,26,o),
(434,-30,o),
(609,-30,cs),
(748,-30,o),
(884,7,o),
(996,82,cs),
(1069,131,o),
(1132,196,o),
(1178,277,c),
(1316,720,l),
(788,720,l),
(774,636,l),
(1232,636,l),
(1197,425,o),
(1111,251,o),
(963,150,cs),
(873,89,o),
(761,54,o),
(623,54,cs),
(473,54,o),
(359,101,o),
(284,188,cs),
(187,300,o),
(154,478,o),
(191,708,cs),
(227,926,o),
(302,1093,o),
(415,1209,cs),
(528,1325,o),
(671,1384,o),
(848,1384,cs),
(951,1384,o),
(1038,1359,o),
(1107,1310,cs),
(1178,1261,o),
(1225,1188,o),
(1246,1088,c),
(1332,1122,l),
(1307,1239,o),
(1248,1325,o),
(1168,1382,cs),
(1086,1439,o),
(984,1468,o),
(862,1468,cs)
);
}
);
width = 1342;
}
);
leftKerningGroup = G2;
rightKerningGroup = G;
unicode = 71;
},
{
glyphname = H;
layers = (
{
layerId = "52B6FC9B-A007-47B3-A216-6773BDC6150A";
shapes = (
{
closed = 1;
nodes = (
(58,0,l),
(325,0,l),
(423,594,l),
(1054,594,l),
(956,0,l),
(1223,0,l),
(1461,1440,l),
(1194,1440,l),
(1096,848,l),
(465,848,l),
(563,1440,l),
(297,1440,l)
);
}
);
width = 1419;
},
{
layerId = "8674DFB1-DD33-4B55-AF75-50F2BA2F7F30";
shapes = (
{
closed = 1;
nodes = (
(58,0,l),
(227,0,l),
(332,639,l),
(1083,639,l),
(977,0,l),
(1146,0,l),
(1384,1440,l),
(1215,1440,l),
(1109,802,l),
(359,802,l),
(465,1440,l),
(297,1440,l)
);
}
);
width = 1342;
},
{
layerId = "3BB79724-DEC0-46E7-8764-1315E4CC4648";
shapes = (
{
closed = 1;
nodes = (
(58,0,l),
(141,0,l),
(253,678,l),
(1108,678,l),
(995,0,l),
(1078,0,l),
(1316,1440,l),
(1234,1440,l),
(1121,762,l),
(267,762,l),
(379,1440,l),
(297,1440,l)
);
}
);
width = 1274;
}
);
unicode = 72;
},
{
glyphname = I;
layers = (
{
layerId = "52B6FC9B-A007-47B3-A216-6773BDC6150A";
shapes = (
{
closed = 1;
nodes = (
(77,0,l),
(343,0,l),
(582,1440,l),
(315,1440,l)
);
}
);
width = 557;
},
{
layerId = "8674DFB1-DD33-4B55-AF75-50F2BA2F7F30";
shapes = (
{
closed = 1;
nodes = (
(77,0,l),
(245,0,l),
(483,1440,l),
(315,1440,l)
);
}
);
width = 459;
},
{
layerId = "3BB79724-DEC0-46E7-8764-1315E4CC4648";
shapes = (
{
closed = 1;
nodes = (
(77,0,l),
(159,0,l),
(397,1440,l),
(315,1440,l)
);
}
);
width = 373;
}
);
leftKerningGroup = I2;
rightKerningGroup = I;
unicode = 73;
},
{
glyphname = J;
layers = (
{
layerId = "52B6FC9B-A007-47B3-A216-6773BDC6150A";
shapes = (
{
closed = 1;
nodes = (
(550,-30,o),
(745,80,o),
(814,265,cs),
(839,333,o),
(847,408,o),
(859,480,cs),
(1018,1440,l),
(748,1440,l),
(589,480,ls),
(581,431,o),
(572,381,o),
(554,337,cs),
(528,272,o),
(481,224,o),
(389,224,cs),
(316,224,o),
(253,287,o),
(253,360,c),
(-20,296,l),
(8,84,o),
(148,-30,o),
(359,-30,cs)
);
}
);
width = 994;
},
{
layerId = "8674DFB1-DD33-4B55-AF75-50F2BA2F7F30";
shapes = (
{
closed = 1;
nodes = (
(494,-29,o),
(667,76,o),
(732,247,cs),
(756,312,o),
(764,382,o),
(776,450,cs),
(940,1440,l),
(770,1440,l),
(606,450,ls),
(597,394,o),
(588,335,o),
(566,284,cs),
(526,195,o),
(446,134,o),
(339,134,cs),
(237,134,o),
(154,209,o),
(150,312,c),
(-24,271,l),
(-4,81,o),
(126,-29,o),
(315,-29,cs)
);
}
);
width = 917;
},
{
layerId = "3BB79724-DEC0-46E7-8764-1315E4CC4648";
shapes = (
{
closed = 1;
nodes = (
(445,-28,o),
(599,72,o),
(660,231,cs),
(683,293,o),
(692,359,o),
(703,424,cs),
(871,1440,l),
(789,1440,l),
(621,424,ls),
(611,362,o),
(602,294,o),
(576,237,cs),
(525,128,o),
(416,56,o),
(295,56,cs),
(168,56,o),
(68,141,o),
(60,270,c),
(-28,250,l),
(-14,79,o),
(106,-28,o),
(277,-28,cs)
);
}
);
width = 849;
}
);
leftKerningGroup = J2;
rightKerningGroup = J;
unicode = 74;
},
{
glyphname = K;
layers = (
{
layerId = "52B6FC9B-A007-47B3-A216-6773BDC6150A";
shapes = (
{
closed = 1;
nodes = (
(1100,1440,l),
(304,696,l),
(240,323,l),
(1426,1440,l)
);
},
{
closed = 1;
nodes = (
(894,0,l),
(1225,0,l),
(716,799,l),
(451,696,l)
);
},
{
closed = 1;
nodes = (
(58,0,l),
(315,0,l),
(554,1440,l),
(297,1440,l)
);
}
);
width = 1293;
},
{
layerId = "8674DFB1-DD33-4B55-AF75-50F2BA2F7F30";
shapes = (
{
closed = 1;
nodes = (
(1088,1440,l),
(250,666,l),
(210,427,l),
(1301,1440,l)
);
},
{
closed = 1;
nodes = (
(898,0,l),
(1113,0,l),
(606,814,l),
(439,742,l)
);
},
{
closed = 1;
nodes = (
(58,0,l),
(222,0,l),
(461,1440,l),
(297,1440,l)
);
}
);
width = 1181;
},
{
layerId = "3BB79724-DEC0-46E7-8764-1315E4CC4648";
shapes = (
{
closed = 1;
nodes = (
(1078,1440,l),
(203,639,l),
(183,518,l),
(1191,1440,l)
);
},
{
closed = 1;
nodes = (
(902,0,l),
(1015,0,l),
(509,828,l),
(429,782,l)
);
},
{
closed = 1;
nodes = (
(58,0,l),
(141,0,l),
(379,1440,l),
(297,1440,l)
);
}
);
width = 1083;
}
);
rightKerningGroup = K;
unicode = 75;
},
{
glyphname = L;
layers = (
{
layerId = "52B6FC9B-A007-47B3-A216-6773BDC6150A";
shapes = (
{
closed = 1;
nodes = (
(77,0,l),
(951,0,l),
(993,254,l),
(385,254,l),
(582,1440,l),
(315,1440,l)
);
}
);
width = 1047;
},
{
layerId = "8674DFB1-DD33-4B55-AF75-50F2BA2F7F30";
shapes = (
{
closed = 1;
nodes = (
(77,0,l),
(903,0,l),
(930,163,l),
(272,163,l),
(483,1440,l),
(315,1440,l)
);
}
);
width = 998;
},
{
layerId = "3BB79724-DEC0-46E7-8764-1315E4CC4648";
shapes = (
{
closed = 1;
nodes = (
(77,0,l),
(861,0,l),
(875,84,l),
(173,84,l),
(397,1440,l),
(315,1440,l)
);
}
);
width = 956;
}
);
rightKerningGroup = L;
unicode = 76;
},
{
glyphname = M;
layers = (
{
layerId = "52B6FC9B-A007-47B3-A216-6773BDC6150A";
shapes = (
{
closed = 1;
nodes = (
(58,0,l),
(327,0,l),
(476,900,l),
(688,211,l),
(910,211,l),
(1350,900,l),
(1201,0,l),
(1470,0,l),
(1708,1440,l),
(1439,1440,l),
(850,519,l),
(565,1440,l),
(297,1440,l)
);
}
);
width = 1666;
},
{
layerId = "8674DFB1-DD33-4B55-AF75-50F2BA2F7F30";
shapes = (
{
closed = 1;
nodes = (
(58,0,l),
(228,0,l),
(407,1080,l),
(674,168,l),
(827,168,l),
(1396,1080,l),
(1218,1,l),
(1387,1,l),
(1625,1440,l),
(1456,1440,l),
(784,366,l),
(464,1440,l),
(297,1440,l)
);
}
);
width = 1583;
},
{
layerId = "3BB79724-DEC0-46E7-8764-1315E4CC4648";
shapes = (
{
closed = 1;
nodes = (
(58,0,l),
(141,0,l),
(346,1238,l),
(662,130,l),
(754,130,l),
(1437,1238,l),
(1233,2,l),
(1315,2,l),
(1553,1440,l),
(1471,1440,l),
(726,232,l),
(375,1440,l),
(297,1440,l)
);
}
);
width = 1511;
}
);
unicode = 77;
},
{
glyphname = N;
layers = (
{
layerId = "52B6FC9B-A007-47B3-A216-6773BDC6150A";
shapes = (
{
closed = 1;
nodes = (
(58,0,l),
(329,0,l),
(488,960,l),
(942,0,l),
(1213,0,l),
(1451,1440,l),
(1181,1440,l),
(1022,480,l),
(567,1440,l),
(297,1440,l)
);
}
);
width = 1409;
},
{
layerId = "8674DFB1-DD33-4B55-AF75-50F2BA2F7F30";
shapes = (
{
closed = 1;
nodes = (
(58,0,l),
(229,0,l),
(417,1137,l),
(972,0,l),
(1143,0,l),
(1381,1440,l),
(1211,1440,l),
(1023,304,l),
(467,1440,l),
(297,1440,l)
);
}
);
width = 1339;
},
{
layerId = "3BB79724-DEC0-46E7-8764-1315E4CC4648";
shapes = (
{
closed = 1;
nodes = (
(58,0,l),
(141,0,l),
(355,1292,l),
(999,0,l),
(1082,0,l),
(1320,1440,l),
(1238,1440,l),
(1024,150,l),
(379,1440,l),
(297,1440,l)
);
}
);
width = 1277;
}
);
unicode = 78;
},
{
glyphname = O;
layers = (
{
layerId = "52B6FC9B-A007-47B3-A216-6773BDC6150A";
shapes = (
{
closed = 1;
nodes = (
(1179,-30,o),
(1488,412,o),
(1488,894,cs),
(1488,1252,o),
(1271,1470,o),
(913,1470,cs),
(402,1470,o),
(90,1029,o),
(90,548,cs),
(90,190,o),
(307,-30,o),
(665,-30,cs)
);
},
{
closed = 1;
nodes = (
(480,226,o),
(375,363,o),
(375,590,cs),
(375,884,o),
(528,1214,o),
(862,1214,cs),
(1089,1214,o),
(1203,1083,o),
(1203,860,cs),
(1203,564,o),
(1056,226,o),
(716,226,cs)
);
}
);
width = 1477;
},
{
layerId = "8674DFB1-DD33-4B55-AF75-50F2BA2F7F30";
shapes = (
{
closed = 1;
nodes = (
(1153,-30,o),
(1435,431,o),
(1435,904,cs),
(1435,1254,o),
(1242,1470,o),
(886,1470,cs),
(374,1470,o),
(89,1010,o),
(89,539,cs),
(89,189,o),
(281,-30,o),
(638,-30,cs)
);
},
{
closed = 1;
nodes = (
(398,134,o),
(269,300,o),
(269,561,cs),
(269,913,o),
(455,1306,o),
(855,1306,cs),
(1126,1306,o),
(1254,1139,o),
(1254,878,cs),
(1254,526,o),
(1069,134,o),
(669,134,cs)
);
}
);
width = 1423;
},
{
layerId = "3BB79724-DEC0-46E7-8764-1315E4CC4648";
shapes = (
{
closed = 1;
nodes = (
(1131,-30,o),
(1388,448,o),
(1388,913,cs),
(1388,1255,o),
(1216,1470,o),
(862,1470,cs),
(349,1470,o),
(88,994,o),
(88,531,cs),
(88,188,o),
(258,-30,o),
(614,-30,cs)
);
},
{
closed = 1;
nodes = (
(327,54,o),
(177,245,o),
(177,536,cs),
(177,938,o),
(392,1386,o),
(848,1386,cs),
(1158,1386,o),
(1298,1188,o),
(1298,894,cs),
(1298,493,o),
(1081,54,o),
(628,54,cs)
);
}
);
width = 1375;
}
);
leftKerningGroup = G2;
rightKerningGroup = O;
unicode = 79;
},
{
glyphname = P;
layers = (
{
layerId = "52B6FC9B-A007-47B3-A216-6773BDC6150A";
shapes = (
{
closed = 1;
nodes = (
(58,0,l),
(325,0,l),
(406,488,l),
(735,488,ls),
(748,488,o),
(766,489,o),
(790,490,cs),
(814,491,o),
(835,493,o),
(854,496,cs),
(1027,523,o),
(1147,612,o),
(1222,745,cs),
(1258,810,o),
(1283,883,o),
(1296,964,cs),
(1323,1125,o),
(1296,1259,o),
(1203,1347,c),
(1155,1390,o),
(1092,1419,o),
(1009,1432,c),
(973,1439,o),
(921,1440,o),
(893,1440,cs),
(297,1440,l)
);
},
{
closed = 1;
nodes = (
(448,742,l),
(521,1186,l),
(839,1186,ls),
(866,1186,o),
(900,1184,o),
(927,1176,cs),
(996,1156,o),
(1025,1106,o),
(1030,1047,cs),
(1033,1018,o),
(1031,991,o),
(1027,964,cs),
(1019,912,o),
(996,850,o),
(949,803,cs),
(925,779,o),
(896,763,o),
(857,752,cs),
(829,744,o),
(793,742,o),
(765,742,cs)
);
}
);
width = 1260;
},
{
layerId = "8674DFB1-DD33-4B55-AF75-50F2BA2F7F30";
shapes = (
{
closed = 1;
nodes = (
(58,0,l),
(227,0,l),
(315,535,l),
(702,535,ls),
(715,535,o),
(731,536,o),
(751,537,cs),
(770,538,o),
(788,540,o),
(807,543,cs),
(962,567,o),
(1079,652,o),
(1154,780,cs),
(1190,843,o),
(1215,911,o),
(1228,987,cs),
(1253,1140,o),
(1223,1269,o),
(1132,1352,cs),
(1087,1393,o),
(1027,1420,o),
(954,1432,c),
(918,1439,o),
(880,1440,o),
(852,1440,cs),
(297,1440,l)
);
},
{
closed = 1;
nodes = (
(342,698,l),
(438,1277,l),
(819,1277,ls),
(844,1277,o),
(877,1275,o),
(906,1268,cs),
(995,1247,o),
(1042,1187,o),
(1055,1108,cs),
(1062,1068,o),
(1062,1030,o),
(1055,987,cs),
(1042,906,o),
(1003,825,o),
(935,766,cs),
(900,737,o),
(861,718,o),
(813,707,cs),
(782,700,o),
(748,698,o),
(723,698,cs)
);
}
);
width = 1187;
},
{
layerId = "3BB79724-DEC0-46E7-8764-1315E4CC4648";
shapes = (
{
closed = 1;
nodes = (
(58,0,l),
(141,0,l),
(236,576,l),
(673,576,ls),
(688,576,o),
(701,577,o),
(716,578,cs),
(731,579,o),
(746,581,o),
(765,584,cs),
(905,605,o),
(1020,689,o),
(1095,810,cs),
(1131,870,o),
(1156,936,o),
(1168,1008,cs),
(1192,1153,o),
(1158,1277,o),
(1070,1357,cs),
(1027,1396,o),
(972,1421,o),
(905,1432,c),
(870,1439,o),
(844,1440,o),
(816,1440,cs),
(297,1440,l)
);
},
{
closed = 1;
nodes = (
(250,660,l),
(365,1356,l),
(802,1356,ls),
(825,1356,o),
(856,1355,o),
(887,1348,c),
(994,1327,o),
(1056,1257,o),
(1077,1161,cs),
(1088,1113,o),
(1089,1063,o),
(1080,1008,cs),
(1061,900,o),
(1008,802,o),
(923,734,c),
(879,701,o),
(831,679,o),
(775,668,c),
(742,663,o),
(710,660,o),
(687,660,cs)
);
}
);
width = 1124;
}
);
unicode = 80;
},
{
glyphname = Q;
layers = (
{
layerId = "52B6FC9B-A007-47B3-A216-6773BDC6150A";
shapes = (
{
closed = 1;
nodes = (
(811,-30,o),
(954,0,o),
(1100,0,cs),
(1532,0,l),
(1574,254,l),
(1431,254,ls),
(1338,254,o),
(1222,222,o),
(1141,178,c),
(1139,182,l),
(1220,226,o),
(1315,304,o),
(1360,385,cs),
(1443,534,o),
(1488,711,o),
(1488,894,cs),
(1488,1252,o),
(1271,1470,o),
(913,1470,cs),
(402,1470,o),
(90,1029,o),
(90,548,cs),
(90,190,o),
(307,-30,o),
(665,-30,cs)
);
},
{
closed = 1;
nodes = (
(480,226,o),
(375,363,o),
(375,590,cs),
(375,884,o),
(528,1214,o),
(862,1214,cs),
(1089,1214,o),
(1203,1083,o),
(1203,860,cs),
(1203,564,o),
(1056,226,o),
(716,226,cs)
);
}
);
width = 1651;
},
{
layerId = "8674DFB1-DD33-4B55-AF75-50F2BA2F7F30";
shapes = (
{
closed = 1;
nodes = (
(775,-30,o),
(910,0,o),
(1047,0,cs),
(1469,0,l),
(1496,163,l),
(1246,163,ls),
(1180,163,o),
(1096,144,o),
(1038,116,c),
(1036,120,l),
(1095,148,o),
(1166,196,o),
(1204,249,c),
(1357,414,o),
(1435,659,o),
(1435,904,cs),
(1435,1254,o),
(1242,1470,o),
(886,1470,cs),
(374,1470,o),
(89,1010,o),
(89,539,cs),
(89,189,o),
(281,-30,o),
(638,-30,cs)
);
},
{
closed = 1;
nodes = (
(398,134,o),
(269,300,o),
(269,561,cs),
(269,913,o),
(456,1306,o),
(855,1306,cs),
(1126,1306,o),
(1254,1139,o),
(1254,878,cs),
(1254,526,o),
(1069,134,o),
(669,134,cs)
);
}
);
width = 1583;
},
{
layerId = "3BB79724-DEC0-46E7-8764-1315E4CC4648";
shapes = (
{
closed = 1;
nodes = (
(743,-30,o),
(871,0,o),
(1001,0,cs),
(1414,0,l),
(1428,84,l),
(1083,84,ls),
(1041,84,o),
(986,75,o),
(947,61,c),
(946,65,l),
(985,79,o),
(1035,102,o),
(1067,129,cs),
(1281,308,o),
(1388,613,o),
(1388,913,cs),
(1388,1255,o),
(1216,1470,o),
(862,1470,cs),
(349,1470,o),
(88,994,o),
(88,531,cs),
(88,188,o),
(258,-30,o),
(614,-30,cs)
);
},
{
closed = 1;
nodes = (
(327,54,o),
(177,245,o),
(177,536,cs),
(177,938,o),
(392,1386,o),
(848,1386,cs),
(1158,1386,o),
(1298,1188,o),
(1298,894,cs),
(1298,493,o),
(1081,54,o),
(628,54,cs)
);
}
);
width = 1524;
}
);
leftKerningGroup = G2;
rightKerningGroup = O;
unicode = 81;
},
{
glyphname = R;
layers = (
{
layerId = "52B6FC9B-A007-47B3-A216-6773BDC6150A";
shapes = (
{
closed = 1;
nodes = (
(864,0,l),
(1166,0,l),
(946,640,l),
(663,586,l)
);
},
{
closed = 1;
nodes = (
(58,0,l),
(325,0,l),
(412,528,l),
(742,528,ls),
(754,528,o),
(773,529,o),
(797,530,cs),
(821,531,o),
(842,533,o),
(861,536,cs),
(946,549,o),
(1019,580,o),
(1082,627,cs),
(1145,674,o),
(1192,729,o),
(1229,793,cs),
(1266,857,o),
(1288,920,o),
(1299,984,cs),
(1326,1140,o),
(1298,1266,o),
(1203,1350,cs),
(1155,1391,o),
(1092,1419,o),
(1009,1432,c),
(973,1439,o),
(921,1440,o),
(893,1440,cs),
(297,1440,l)
);
},
{
closed = 1;
nodes = (
(454,782,l),
(521,1186,l),
(839,1186,ls),
(866,1186,o),
(900,1184,o),
(927,1176,cs),
(980,1161,o),
(1011,1134,o),
(1023,1095,c),
(1034,1055,o),
(1036,1019,o),
(1031,984,c),
(1024,949,o),
(1011,917,o),
(987,882,cs),
(963,847,o),
(923,817,o),
(864,792,cs),
(837,780,o),
(800,782,o),
(772,782,cs)
);
}
);
width = 1298;
},
{
layerId = "8674DFB1-DD33-4B55-AF75-50F2BA2F7F30";
shapes = (
{
closed = 1;
nodes = (
(895,0,l),
(1088,0,l),
(861,662,l),
(678,637,l)
);
},
{
closed = 1;
nodes = (
(58,0,l),
(227,0,l),
(323,586,l),
(711,586,ls),
(724,586,o),
(740,587,o),
(759,588,cs),
(778,589,o),
(796,591,o),
(815,594,cs),
(892,606,o),
(960,633,o),
(1019,676,c),
(1078,717,o),
(1125,767,o),
(1162,827,cs),
(1198,887,o),
(1221,948,o),
(1232,1013,cs),
(1256,1156,o),
(1223,1276,o),
(1132,1355,cs),
(1087,1395,o),
(1027,1420,o),
(954,1432,c),
(918,1439,o),
(880,1440,o),
(852,1440,cs),
(297,1440,l)
);
},
{
closed = 1;
nodes = (
(351,749,l),
(438,1277,l),
(819,1277,ls),
(844,1277,o),
(877,1275,o),
(906,1268,cs),
(973,1252,o),
(1017,1219,o),
(1040,1170,cs),
(1063,1119,o),
(1068,1068,o),
(1060,1013,cs),
(1051,958,o),
(1028,909,o),
(989,861,cs),
(949,812,o),
(895,778,o),
(822,758,cs),
(791,750,o),
(757,749,o),
(732,749,cs)
);
}
);
width = 1235;
},
{
layerId = "3BB79724-DEC0-46E7-8764-1315E4CC4648";
shapes = (
{
closed = 1;
nodes = (
(922,0,l),
(1020,0,l),
(787,682,l),
(691,682,l)
);
},
{
closed = 1;
nodes = (
(58,0,l),
(141,0,l),
(246,636,l),
(683,636,ls),
(698,636,o),
(711,637,o),
(726,638,cs),
(741,639,o),
(756,641,o),
(775,644,cs),
(844,656,o),
(908,681,o),
(964,718,cs),
(1020,755,o),
(1066,801,o),
(1103,857,c),
(1138,913,o),
(1162,973,o),
(1173,1038,cs),
(1194,1170,o),
(1158,1284,o),
(1070,1360,cs),
(1027,1397,o),
(972,1421,o),
(905,1432,c),
(870,1439,o),
(844,1440,o),
(816,1440,cs),
(297,1440,l)
);
},
{
closed = 1;
nodes = (
(260,720,l),
(365,1356,l),
(802,1356,ls),
(825,1356,o),
(856,1355,o),
(887,1348,cs),
(967,1332,o),
(1023,1295,o),
(1055,1235,cs),
(1087,1175,o),
(1097,1110,o),
(1085,1038,cs),
(1073,966,o),
(1042,902,o),
(990,842,cs),
(938,781,o),
(870,743,o),
(785,728,c),
(752,723,o),
(720,720,o),
(697,720,cs)
);
}
);
width = 1180;
}
);
rightKerningGroup = R;
unicode = 82;
},
{
glyphname = S;
layers = (
{
layerId = "52B6FC9B-A007-47B3-A216-6773BDC6150A";
shapes = (
{
closed = 1;
nodes = (
(908,-30,o),
(1240,156,o),
(1240,508,cs),
(1240,924,o),
(511,808,o),
(511,1031,cs),
(511,1155,o),
(668,1214,o),
(771,1214,cs),
(907,1214,o),
(1019,1140,o),
(1027,996,c),
(1324,1046,l),
(1298,1338,o),
(1096,1468,o),
(818,1468,cs),
(509,1468,o),
(223,1290,o),
(223,954,cs),
(223,545,o),
(951,666,o),
(951,433,cs),
(951,287,o),
(771,224,o),
(650,224,cs),
(490,224,o),
(372,319,o),
(362,482,c),
(77,440,l),
(77,134,o),
(307,-30,o),
(591,-30,cs)
);
}
);
width = 1303;
},
{
layerId = "8674DFB1-DD33-4B55-AF75-50F2BA2F7F30";
shapes = (
{
closed = 1;
nodes = (
(858,-30,o),
(1161,144,o),
(1161,477,cs),
(1161,893,o),
(402,759,o),
(402,1041,cs),
(402,1216,o),
(599,1306,o),
(750,1306,cs),
(932,1306,o),
(1065,1206,o),
(1069,1016,c),
(1253,1048,l),
(1240,1331,o),
(1049,1469,o),
(779,1469,cs),
(502,1469,o),
(220,1303,o),
(220,998,cs),
(220,584,o),
(982,731,o),
(982,432,cs),
(982,228,o),
(769,133,o),
(592,133,cs),
(407,133,o),
(254,229,o),
(238,424,c),
(60,396,l),
(66,111,o),
(294,-30,o),
(557,-30,cs)
);
}
);
width = 1219;
},
{
layerId = "3BB79724-DEC0-46E7-8764-1315E4CC4648";
shapes = (
{
closed = 1;
nodes = (
(814,-30,o),
(1091,134,o),
(1091,450,cs),
(1091,865,o),
(306,716,o),
(306,1050,cs),
(306,1270,o),
(538,1386,o),
(731,1386,cs),
(953,1386,o),
(1105,1264,o),
(1105,1034,c),
(1190,1050,l),
(1190,1324,o),
(1008,1470,o),
(744,1470,cs),
(495,1470,o),
(217,1315,o),
(217,1037,cs),
(217,619,o),
(1009,788,o),
(1009,431,cs),
(1009,176,o),
(767,54,o),
(541,54,cs),
(335,54,o),
(151,151,o),
(130,374,c),
(45,358,l),
(56,90,o),
(283,-30,o),
(527,-30,cs)
);
}
);
width = 1146;
}
);
leftKerningGroup = S2;
rightKerningGroup = S;
unicode = 83;
},
{
glyphname = T;
layers = (
{
layerId = "52B6FC9B-A007-47B3-A216-6773BDC6150A";
shapes = (
{
closed = 1;
nodes = (
(394,0,l),
(661,0,l),
(857,1186,l),
(1302,1186,l),
(1344,1440,l),
(188,1440,l),
(146,1186,l),
(590,1186,l)
);
}
);
width = 1192;
},
{
layerId = "8674DFB1-DD33-4B55-AF75-50F2BA2F7F30";
shapes = (
{
closed = 1;
nodes = (
(433,0,l),
(601,0,l),
(812,1277,l),
(1296,1277,l),
(1323,1440,l),
(188,1440,l),
(161,1277,l),
(644,1277,l)
);
}
);
width = 1171;
},
{
layerId = "3BB79724-DEC0-46E7-8764-1315E4CC4648";
shapes = (
{
closed = 1;
nodes = (
(467,0,l),
(549,0,l),
(773,1356,l),
(1291,1356,l),
(1305,1440,l),
(188,1440,l),
(174,1356,l),
(691,1356,l)
);
}
);
width = 1153;
}
);
leftKerningGroup = T2;
rightKerningGroup = T;
unicode = 84;
},
{
glyphname = U;
layers = (
{
layerId = "52B6FC9B-A007-47B3-A216-6773BDC6150A";
shapes = (
{
closed = 1;
nodes = (
(857,-30,o),
(1047,67,o),
(1174,239,cs),
(1237,324,o),
(1277,424,o),
(1296,540,cs),
(1445,1440,l),
(1175,1440,l),
(1026,542,ls),
(1011,449,o),
(965,370,o),
(901,314,cs),
(837,258,o),
(757,226,o),
(670,226,cs),
(586,226,o),
(515,257,o),
(470,313,c),
(423,369,o),
(403,447,o),
(419,542,cs),
(567,1440,l),
(296,1438,l),
(148,540,ls),
(109,308,o),
(181,136,o),
(340,41,c),
(417,-7,o),
(513,-30,o),
(628,-30,cs)
);
}
);
width = 1403;
},
{
layerId = "8674DFB1-DD33-4B55-AF75-50F2BA2F7F30";
shapes = (
{
closed = 1;
nodes = (
(828,-30,o),
(1013,65,o),
(1137,233,cs),
(1198,316,o),
(1239,412,o),
(1256,524,cs),
(1408,1440,l),
(1237,1440,l),
(1088,540,ls),
(1067,401,o),
(998,299,o),
(913,232,cs),
(826,165,o),
(727,132,o),
(636,132,cs),
(547,132,o),
(457,164,o),
(393,232,cs),
(328,299,o),
(295,401,o),
(318,540,cs),
(467,1440,l),
(297,1439,l),
(145,524,ls),
(108,299,o),
(179,131,o),
(332,39,cs),
(408,-8,o),
(500,-30,o),
(609,-30,cs)
);
}
);
width = 1365;
},
{
layerId = "3BB79724-DEC0-46E7-8764-1315E4CC4648";
shapes = (
{
closed = 1;
nodes = (
(803,-30,o),
(983,64,o),
(1104,227,cs),
(1164,308,o),
(1204,402,o),
(1221,510,cs),
(1375,1440,l),
(1292,1440,l),
(1143,538,ls),
(1114,361,o),
(1028,237,o),
(923,161,cs),
(816,84,o),
(701,50,o),
(606,50,cs),
(511,50,o),
(406,84,o),
(325,161,cs),
(245,237,o),
(201,361,o),
(230,538,cs),
(379,1440,l),
(297,1440,l),
(143,510,ls),
(107,291,o),
(177,126,o),
(325,37,cs),
(400,-8,o),
(487,-30,o),
(592,-30,cs)
);
}
);
width = 1332;
}
);
leftKerningGroup = U2;
rightKerningGroup = U;
unicode = 85;
},
{
glyphname = V;
layers = (
{
layerId = "52B6FC9B-A007-47B3-A216-6773BDC6150A";
shapes = (
{
closed = 1;
nodes = (
(371,0,l),
(769,0,l),
(1439,1440,l),
(1164,1440,l),
(610,256,l),
(453,1440,l),
(178,1440,l)
);
}
);
width = 1278;
},
{
layerId = "8674DFB1-DD33-4B55-AF75-50F2BA2F7F30";
shapes = (
{
closed = 1;
nodes = (
(415,0,l),
(648,0,l),
(1362,1440,l),
(1186,1440,l),
(560,185,l),
(354,1440,l),
(178,1440,l)
);
}
);
width = 1201;
},
{
layerId = "3BB79724-DEC0-46E7-8764-1315E4CC4648";
shapes = (
{
closed = 1;
nodes = (
(454,0,l),
(542,0,l),
(1294,1440,l),
(1206,1440,l),
(517,122,l),
(267,1440,l),
(178,1440,l)
);
}
);
width = 1133;
}
);
leftKerningGroup = V2;
rightKerningGroup = V;
unicode = 86;
},
{
glyphname = W;
layers = (
{
layerId = "52B6FC9B-A007-47B3-A216-6773BDC6150A";
shapes = (
{
closed = 1;
nodes = (
(363,0,l),
(625,0,l),
(1060,972,l),
(1172,0,l),
(1435,0,l),
(2087,1440,l),
(1807,1440,l),
(1378,450,l),
(1277,1440,l),
(997,1438,l),
(569,450,l),
(468,1440,l),
(188,1440,l)
);
}
);
width = 1935;
},
{
layerId = "8674DFB1-DD33-4B55-AF75-50F2BA2F7F30";
shapes = (
{
closed = 1;
nodes = (
(367,0,l),
(535,0,l),
(1045,1139,l),
(1177,0,l),
(1345,0,l),
(1992,1440,l),
(1816,1440,l),
(1309,291,l),
(1183,1440,l),
(1006,1439,l),
(500,291,l),
(373,1440,l),
(198,1440,l)
);
}
);
width = 1850;
},
{
layerId = "3BB79724-DEC0-46E7-8764-1315E4CC4648";
shapes = (
{
closed = 1;
nodes = (
(371,0,l),
(457,0,l),
(1031,1286,l),
(1181,0,l),
(1267,0,l),
(1909,1440,l),
(1823,1440,l),
(1249,152,l),
(1100,1440,l),
(1013,1440,l),
(439,152,l),
(290,1440,l),
(206,1440,l)
);
}
);
width = 1776;
}
);
leftKerningGroup = V2;
rightKerningGroup = V;
unicode = 87;
},
{
glyphname = X;
layers = (
{
layerId = "52B6FC9B-A007-47B3-A216-6773BDC6150A";
shapes = (
{
closed = 1;
nodes = (
(-51,0,l),
(278,0,l),
(672,496,l),
(900,0,l),
(1227,0,l),
(875,728,l),
(1454,1440,l),
(1124,1440,l),
(749,960,l),
(529,1440,l),
(201,1440,l),
(544,728,l)
);
}
);
width = 1314;
},
{
layerId = "8674DFB1-DD33-4B55-AF75-50F2BA2F7F30";
shapes = (
{
closed = 1;
nodes = (
(-51,0,l),
(155,0,l),
(633,583,l),
(919,0,l),
(1124,0,l),
(759,729,l),
(1351,1440,l),
(1144,1440,l),
(681,874,l),
(405,1440,l),
(200,1440,l),
(556,729,l)
);
}
);
width = 1211;
},
{
layerId = "3BB79724-DEC0-46E7-8764-1315E4CC4648";
shapes = (
{
closed = 1;
nodes = (
(-51,0,l),
(47,0,l),
(599,660,l),
(935,0,l),
(1033,0,l),
(658,730,l),
(1260,1440,l),
(1162,1440,l),
(622,798,l),
(297,1440,l),
(199,1440,l),
(566,730,l)
);
}
);
width = 1120;
}
);
leftKerningGroup = X2;
rightKerningGroup = X;
unicode = 88;
},
{
glyphname = Y;
layers = (
{
layerId = "52B6FC9B-A007-47B3-A216-6773BDC6150A";
shapes = (
{
closed = 1;
nodes = (
(413,0,l),
(684,0,l),
(781,586,l),
(1404,1440,l),
(1093,1440,l),
(697,898,l),
(481,1440,l),
(169,1440,l),
(510,586,l)
);
}
);
width = 1234;
},
{
layerId = "8674DFB1-DD33-4B55-AF75-50F2BA2F7F30";
shapes = (
{
closed = 1;
nodes = (
(406,0,l),
(576,0,l),
(675,600,l),
(1288,1440,l),
(1093,1440,l),
(623,797,l),
(365,1440,l),
(169,1440,l),
(505,600,l)
);
}
);
width = 1118;
},
{
layerId = "3BB79724-DEC0-46E7-8764-1315E4CC4648";
shapes = (
{
closed = 1;
nodes = (
(399,0,l),
(482,0,l),
(583,612,l),
(1187,1440,l),
(1093,1440,l),
(558,708,l),
(263,1440,l),
(169,1440,l),
(501,612,l)
);
}
);
width = 1017;
}
);
leftKerningGroup = Y2;
rightKerningGroup = Y;
unicode = 89;
},
{
glyphname = Z;
layers = (
{
layerId = "52B6FC9B-A007-47B3-A216-6773BDC6150A";
shapes = (
{
closed = 1;
nodes = (
(22,0,l),
(1139,0,l),
(1182,256,l),
(535,256,l),
(1392,1406,l),
(1397,1440,l),
(319,1440,l),
(277,1186,l),
(889,1186,l),
(28,34,l)
);
}
);
width = 1318;
},
{
layerId = "8674DFB1-DD33-4B55-AF75-50F2BA2F7F30";
shapes = (
{
closed = 1;
nodes = (
(22,0,l),
(1046,0,l),
(1073,163,l),
(336,163,l),
(1289,1406,l),
(1294,1440,l),
(288,1440,l),
(260,1277,l),
(984,1277,l),
(27,32,l)
);
}
);
width = 1215;
},
{
layerId = "3BB79724-DEC0-46E7-8764-1315E4CC4648";
shapes = (
{
closed = 1;
nodes = (
(22,0,l),
(965,0,l),
(978,82,l),
(161,82,l),
(1198,1406,l),
(1203,1440,l),
(260,1440,l),
(246,1356,l),
(1068,1356,l),
(27,30,l)
);
}
);
width = 1124;
}
);
rightKerningGroup = Z;
unicode = 90;
},
{
glyphname = bracketleft;
layers = (
{
layerId = "52B6FC9B-A007-47B3-A216-6773BDC6150A";
shapes = (
{
closed = 1;
nodes = (
(116,-420,l),
(565,-420,l),
(605,-180,l),
(391,-180,l),
(679,1560,l),
(893,1560,l),
(933,1800,l),
(484,1800,l)
);
}
);
width = 812;
},
{
layerId = "8674DFB1-DD33-4B55-AF75-50F2BA2F7F30";
shapes = (
{
closed = 1;
nodes = (
(114,-433,l),
(497,-433,l),
(523,-276,l),
(294,-276,l),
(608,1624,l),
(838,1624,l),
(864,1781,l),
(481,1781,l)
);
}
);
width = 775;
},
{
layerId = "3BB79724-DEC0-46E7-8764-1315E4CC4648";
shapes = (
{
closed = 1;
nodes = (
(112,-444,l),
(438,-444,l),
(452,-360,l),
(209,-360,l),
(546,1680,l),
(789,1680,l),
(803,1764,l),
(478,1764,l)
);
}
);
width = 743;
}
);
leftKerningGroup = parenleft2;
rightKerningGroup = parenleft;
unicode = 91;
},
{
glyphname = backslash;
layers = (
{
layerId = "52B6FC9B-A007-47B3-A216-6773BDC6150A";
shapes = (
{
closed = 1;
nodes = (
(545,1440,l),
(279,1440,l),
(417,0,l),
(683,0,l)
);
}
);
width = 861;
},
{
layerId = "8674DFB1-DD33-4B55-AF75-50F2BA2F7F30";
shapes = (
{
closed = 1;
nodes = (
(450,1440,l),
(279,1440,l),
(417,0,l),
(588,0,l)
);
}
);
width = 766;
},
{
layerId = "3BB79724-DEC0-46E7-8764-1315E4CC4648";
shapes = (
{
closed = 1;
nodes = (
(367,1440,l),
(279,1440,l),
(417,0,l),
(505,0,l)
);
}
);
width = 682;
}
);
unicode = 92;
},
{
glyphname = bracketright;
layers = (
{
layerId = "52B6FC9B-A007-47B3-A216-6773BDC6150A";
shapes = (
{
closed = 1;
nodes = (
(420,-420,l),
(787,1800,l),
(338,1800,l),
(298,1560,l),
(512,1560,l),
(224,-180,l),
(10,-180,l),
(-29,-420,l)
);
}
);
width = 812;
},
{
layerId = "8674DFB1-DD33-4B55-AF75-50F2BA2F7F30";
shapes = (
{
closed = 1;
nodes = (
(381,-433,l),
(747,1781,l),
(364,1781,l),
(338,1624,l),
(567,1624,l),
(253,-276,l),
(23,-276,l),
(-2,-433,l)
);
}
);
width = 775;
},
{
layerId = "3BB79724-DEC0-46E7-8764-1315E4CC4648";
shapes = (
{
closed = 1;
nodes = (
(347,-444,l),
(712,1764,l),
(387,1764,l),
(373,1680,l),
(616,1680,l),
(278,-360,l),
(35,-360,l),
(21,-444,l)
);
}
);
width = 743;
}
);
leftKerningGroup = parenright2;
rightKerningGroup = parenright;
unicode = 93;
},
{
glyphname = asciicircum;
layers = (
{
layerId = "52B6FC9B-A007-47B3-A216-6773BDC6150A";
shapes = (
{
closed = 1;
nodes = (
(286,986,l),
(423,818,l),
(786,1146,l),
(1043,819,l),
(1235,987,l),
(840,1470,l)
);
}
);
width = 1312;
},
{
layerId = "8674DFB1-DD33-4B55-AF75-50F2BA2F7F30";
shapes = (
{
closed = 1;
nodes = (
(288,999,l),
(376,891,l),
(793,1261,l),
(1092,892,l),
(1214,1000,l),
(828,1471,l)
);
}
);
width = 1289;
},
{
layerId = "3BB79724-DEC0-46E7-8764-1315E4CC4648";
shapes = (
{
closed = 1;
nodes = (
(290,1010,l),
(334,954,l),
(800,1362,l),
(1134,955,l),
(1196,1011,l),
(818,1472,l)
);
}
);
width = 1269;
}
);
unicode = 94;
},
{
glyphname = grave;
layers = (
{
layerId = "52B6FC9B-A007-47B3-A216-6773BDC6150A";
shapes = (
{
closed = 1;
nodes = (
(802,1980,l),
(550,1980,l),
(648,1590,l),
(815,1590,l)
);
}
);
width = 1033;
},
{
layerId = "8674DFB1-DD33-4B55-AF75-50F2BA2F7F30";
shapes = (
{
closed = 1;
nodes = (
(727,1932,l),
(559,1932,l),
(631,1606,l),
(744,1606,l)
);
}
);
width = 932;
},
{
layerId = "3BB79724-DEC0-46E7-8764-1315E4CC4648";
shapes = (
{
closed = 1;
nodes = (
(661,1890,l),
(567,1890,l),
(616,1620,l),
(681,1620,l)
);
}
);
width = 843;
}
);
unicode = 96;
},
{
glyphname = a;
layers = (
{
hints = (
{
horizontal = 1;
place = (-480,21);
target = up;
type = BottomGhost;
},
{
horizontal = 1;
place = (-30,254);
type = Stem;
},
{
horizontal = 1;
place = (856,254);
type = Stem;
}
);
layerId = "52B6FC9B-A007-47B3-A216-6773BDC6150A";
shapes = (
{
closed = 1;
nodes = (
(1201,1080,l),
(945,1080,l),
(923,947,l),
(909,980,o),
(890,1010,o),
(866,1034,cs),
(817,1082,o),
(746,1110,o),
(649,1110,cs),
(388,1110,o),
(148,874,o),
(93,540,cs),
(37,204,o),
(200,-30,o),
(461,-30,cs),
(568,-30,o),
(653,2,o),
(722,61,cs),
(746,82,o),
(769,106,o),
(789,133,c),
(766,0,l),
(1022,0,l)
);
},
{
closed = 1;
nodes = (
(394,224,o),
(333,353,o),
(364,540,cs),
(396,732,o),
(500,856,o),
(663,856,cs),
(856,856,o),
(881,691,o),
(856,542,cs),
(824,347,o),
(720,224,o),
(559,224,cs)
);
}
);
width = 1218;
},
{
hints = (
{
horizontal = 1;
place = (-30,163);
type = Stem;
},
{
horizontal = 1;
place = (947,163);
type = Stem;
}
);
layerId = "8674DFB1-DD33-4B55-AF75-50F2BA2F7F30";
shapes = (
{
closed = 1;
nodes = (
(1155,1080,l),
(993,1080,l),
(965,910,l),
(953,941,o),
(937,970,o),
(918,994,c),
(862,1071,o),
(772,1110,o),
(653,1110,cs),
(368,1110,o),
(149,875,o),
(94,541,cs),
(38,202,o),
(182,-30,o),
(465,-30,cs),
(596,-30,o),
(700,16,o),
(781,98,c),
(804,120,o),
(824,144,o),
(843,171,c),
(815,0,l),
(976,0,l)
);
},
{
closed = 1;
nodes = (
(303,133,o),
(225,299,o),
(265,541,cs),
(306,787,o),
(439,947,o),
(652,947,cs),
(881,947,o),
(941,763,o),
(904,542,cs),
(863,295,o),
(728,133,o),
(517,133,cs)
);
}
);
width = 1172;
},
{
hints = (
{
horizontal = 1;
place = (-480,21);
target = up;
type = BottomGhost;
},
{
horizontal = 1;
place = (-30,84);
type = Stem;
},
{
horizontal = 1;
place = (1026,84);
type = Stem;
},
{
horizontal = 1;
place = (1080,-20);
target = down;
type = TopGhost;
}
);
layerId = "3BB79724-DEC0-46E7-8764-1315E4CC4648";
shapes = (
{
closed = 1;
nodes = (
(1114,1080,l),
(1035,1080,l),
(1001,877,l),
(991,907,o),
(979,934,o),
(964,958,cs),
(901,1062,o),
(794,1110,o),
(656,1110,cs),
(350,1110,o),
(149,875,o),
(94,542,cs),
(38,201,o),
(167,-30,o),
(468,-30,cs),
(620,-30,o),
(741,29,o),
(833,130,cs),
(854,153,o),
(873,177,o),
(890,204,c),
(857,0,l),
(935,0,l)
);
},
{
closed = 1;
nodes = (
(223,54,o),
(130,252,o),
(178,542,cs),
(227,835,o),
(386,1026,o),
(642,1026,cs),
(903,1026,o),
(993,826,o),
(946,542,cs),
(897,249,o),
(735,54,o),
(481,54,cs)
);
}
);
width = 1131;
}
);
leftKerningGroup = a2;
rightKerningGroup = a;
unicode = 97;
},
{
glyphname = b;
layers = (
{
hints = (
{
horizontal = 1;
place = (-30,254);
type = Stem;
},
{
horizontal = 1;
place = (0,21);
target = up;
type = BottomGhost;
},
{
horizontal = 1;
place = (856,254);
type = Stem;
},
{
horizontal = 1;
place = (1440,-20);
target = down;
type = TopGhost;
}
);
layerId = "52B6FC9B-A007-47B3-A216-6773BDC6150A";
shapes = (
{
closed = 1;
nodes = (
(57,0,l),
(312,0,l),
(334,133,l),
(343,111,o),
(356,89,o),
(370,71,cs),
(419,7,o),
(495,-30,o),
(608,-30,cs),
(869,-30,o),
(1109,206,o),
(1164,540,cs),
(1220,876,o),
(1058,1110,o),
(797,1110,cs),
(686,1110,o),
(598,1074,o),
(528,1011,cs),
(507,992,o),
(487,970,o),
(469,947,c),
(551,1440,l),
(295,1440,l)
);
},
{
closed = 1;
nodes = (
(864,856,o),
(925,727,o),
(894,540,cs),
(862,348,o),
(757,224,o),
(594,224,cs),
(425,224,o),
(371,354,o),
(402,542,cs),
(428,701,o),
(516,856,o),
(699,856,cs)
);
}
);
width = 1216;
},
{
hints = (
{
horizontal = 1;
place = (-30,163);
type = Stem;
},
{
horizontal = 1;
place = (0,21);
target = up;
type = BottomGhost;
},
{
horizontal = 1;
place = (947,163);
type = Stem;
},
{
horizontal = 1;
place = (1440,-20);
target = down;
type = TopGhost;
}
);
layerId = "8674DFB1-DD33-4B55-AF75-50F2BA2F7F30";
shapes = (
{
closed = 1;
nodes = (
(58,0,l),
(219,0,l),
(247,170,l),
(256,145,o),
(269,121,o),
(283,101,c),
(336,18,o),
(427,-30,o),
(559,-30,cs),
(844,-30,o),
(1064,205,o),
(1119,539,cs),
(1175,878,o),
(1030,1110,o),
(748,1110,cs),
(615,1110,o),
(509,1062,o),
(427,979,cs),
(406,958,o),
(387,935,o),
(369,909,c),
(458,1440,l),
(296,1440,l)
);
},
{
closed = 1;
nodes = (
(909,947,o),
(987,781,o),
(947,539,cs),
(906,293,o),
(772,133,o),
(560,133,cs),
(342,133,o),
(269,300,o),
(308,540,cs),
(346,771,o),
(474,947,o),
(695,947,cs)
);
}
);
width = 1171;
},
{
hints = (
{
horizontal = 1;
place = (-30,84);
type = Stem;
},
{
horizontal = 1;
place = (0,21);
target = up;
type = BottomGhost;
},
{
horizontal = 1;
place = (1026,84);
type = Stem;
},
{
horizontal = 1;
place = (1440,-20);
target = down;
type = TopGhost;
}
);
layerId = "3BB79724-DEC0-46E7-8764-1315E4CC4648";
shapes = (
{
closed = 1;
nodes = (
(58,0,l),
(137,0,l),
(171,203,l),
(180,176,o),
(192,150,o),
(206,127,cs),
(264,27,o),
(367,-30,o),
(516,-30,cs),
(822,-30,o),
(1024,205,o),
(1079,538,cs),
(1135,879,o),
(1006,1110,o),
(705,1110,cs),
(553,1110,o),
(431,1051,o),
(339,950,cs),
(318,927,o),
(299,903,o),
(282,876,c),
(376,1440,l),
(297,1440,l)
);
},
{
closed = 1;
nodes = (
(949,1026,o),
(1042,828,o),
(994,538,cs),
(945,245,o),
(786,54,o),
(530,54,cs),
(269,54,o),
(179,254,o),
(226,538,cs),
(275,831,o),
(437,1026,o),
(691,1026,cs)
);
}
);
width = 1131;
}
);
leftKerningGroup = I2;
rightKerningGroup = b;
unicode = 98;
},
{
glyphname = c;
layers = (
{
layerId = "52B6FC9B-A007-47B3-A216-6773BDC6150A";
shapes = (
{
closed = 1;
nodes = (
(632,-30,o),
(738,0,o),
(830,63,cs),
(922,126,o),
(992,212,o),
(1040,328,c),
(783,386,l),
(735,282,o),
(670,224,o),
(553,224,cs),
(473,224,o),
(419,252,o),
(390,312,c),
(358,371,o),
(351,445,o),
(367,540,cs),
(387,661,o),
(435,759,o),
(515,815,cs),
(555,842,o),
(602,856,o),
(657,856,cs),
(706,856,o),
(746,840,o),
(779,809,cs),
(811,778,o),
(830,734,o),
(837,678,c),
(1110,750,l),
(1106,862,o),
(1068,949,o),
(996,1014,cs),
(923,1078,o),
(827,1110,o),
(704,1110,cs),
(493,1110,o),
(319,1006,o),
(206,833,cs),
(149,746,o),
(112,649,o),
(93,540,cs),
(57,323,o),
(112,145,o),
(249,45,cs),
(317,-6,o),
(404,-30,o),
(512,-30,cs)
);
}
);
width = 1109;
},
{
layerId = "8674DFB1-DD33-4B55-AF75-50F2BA2F7F30";
shapes = (
{
closed = 1;
nodes = (
(598,-30,o),
(693,-4,o),
(777,49,cs),
(861,102,o),
(930,177,o),
(983,278,c),
(824,324,l),
(756,200,o),
(653,133,o),
(517,133,cs),
(412,133,o),
(340,170,o),
(299,245,cs),
(258,321,o),
(248,417,o),
(267,540,c),
(295,700,o),
(358,824,o),
(465,895,cs),
(517,930,o),
(579,947,o),
(652,947,cs),
(716,947,o),
(770,930,o),
(814,894,cs),
(858,859,o),
(886,811,o),
(898,747,c),
(1069,799,l),
(1058,896,o),
(1018,971,o),
(949,1027,c),
(877,1082,o),
(789,1110,o),
(681,1110,cs),
(473,1110,o),
(311,1010,o),
(203,837,cs),
(148,752,o),
(113,653,o),
(93,540,c),
(58,317,o),
(106,142,o),
(237,43,cs),
(301,-6,o),
(386,-30,o),
(491,-30,cs)
);
}
);
width = 1065;
},
{
layerId = "3BB79724-DEC0-46E7-8764-1315E4CC4648";
shapes = (
{
closed = 1;
nodes = (
(568,-30,o),
(653,-8,o),
(730,37,cs),
(809,82,o),
(874,146,o),
(933,234,c),
(860,270,l),
(773,129,o),
(638,54,o),
(486,54,cs),
(358,54,o),
(271,98,o),
(220,187,cs),
(169,276,o),
(158,392,o),
(179,540,c),
(214,733,o),
(292,882,o),
(421,965,cs),
(485,1006,o),
(559,1026,o),
(647,1026,cs),
(726,1026,o),
(790,1008,o),
(845,969,cs),
(898,930,o),
(934,877,o),
(951,808,c),
(1033,842,l),
(1016,926,o),
(975,991,o),
(907,1039,cs),
(838,1086,o),
(757,1110,o),
(661,1110,cs),
(456,1110,o),
(302,1013,o),
(201,841,c),
(149,756,o),
(114,656,o),
(93,540,c),
(60,313,o),
(102,138,o),
(226,42,cs),
(287,-6,o),
(369,-30,o),
(473,-30,cs)
);
}
);
width = 1026;
}
);
leftKerningGroup = c2;
rightKerningGroup = c;
unicode = 99;
},
{
glyphname = d;
layers = (
{
hints = (
{
horizontal = 1;
place = (-30,254);
type = Stem;
},
{
horizontal = 1;
place = (0,21);
target = up;
type = BottomGhost;
},
{
horizontal = 1;
place = (856,254);
type = Stem;
},
{
horizontal = 1;
place = (1440,-20);
target = down;
type = TopGhost;
}
);
layerId = "52B6FC9B-A007-47B3-A216-6773BDC6150A";
shapes = (
{
closed = 1;
nodes = (
(1005,1440,l),
(924,948,l),
(912,976,o),
(896,1001,o),
(877,1023,cs),
(827,1078,o),
(754,1110,o),
(649,1110,cs),
(388,1110,o),
(149,876,o),
(93,540,cs),
(38,206,o),
(200,-30,o),
(461,-30,cs),
(576,-30,o),
(667,8,o),
(738,76,cs),
(756,93,o),
(773,112,o),
(789,133,c),
(767,0,l),
(1022,0,l),
(1261,1440,l)
);
},
{
closed = 1;
nodes = (
(824,856,o),
(888,735,o),
(856,540,cs),
(825,352,o),
(728,224,o),
(559,224,cs),
(396,224,o),
(332,348,o),
(364,540,cs),
(395,727,o),
(498,856,o),
(663,856,cs)
);
}
);
width = 1218;
},
{
hints = (
{
horizontal = 1;
place = (-30,163);
type = Stem;
},
{
horizontal = 1;
place = (0,21);
target = up;
type = BottomGhost;
},
{
horizontal = 1;
place = (947,163);
type = Stem;
},
{
horizontal = 1;
place = (1440,-20);
target = down;
type = TopGhost;
}
);
layerId = "8674DFB1-DD33-4B55-AF75-50F2BA2F7F30";
shapes = (
{
closed = 1;
nodes = (
(1052,1440,l),
(965,910,l),
(955,937,o),
(942,962,o),
(926,984,c),
(872,1064,o),
(783,1110,o),
(653,1110,cs),
(370,1110,o),
(149,878,o),
(93,539,cs),
(38,205,o),
(180,-30,o),
(465,-30,cs),
(598,-30,o),
(705,18,o),
(788,103,cs),
(808,123,o),
(826,146,o),
(843,170,c),
(814,0,l),
(976,0,l),
(1214,1440,l)
);
},
{
closed = 1;
nodes = (
(862,947,o),
(945,786,o),
(903,539,cs),
(864,300,o),
(735,133,o),
(517,133,cs),
(305,133,o),
(223,293,o),
(264,539,cs),
(304,781,o),
(437,947,o),
(652,947,cs)
);
}
);
width = 1172;
},
{
hints = (
{
horizontal = 1;
place = (-30,84);
type = Stem;
},
{
horizontal = 1;
place = (0,21);
target = up;
type = BottomGhost;
},
{
horizontal = 1;
place = (1026,84);
type = Stem;
},
{
horizontal = 1;
place = (1440,-20);
target = down;
type = TopGhost;
}
);
layerId = "3BB79724-DEC0-46E7-8764-1315E4CC4648";
shapes = (
{
closed = 1;
nodes = (
(1094,1440,l),
(1001,876,l),
(993,903,o),
(982,927,o),
(969,950,cs),
(911,1051,o),
(808,1110,o),
(656,1110,cs),
(355,1110,o),
(149,879,o),
(93,538,cs),
(38,205,o),
(162,-30,o),
(468,-30,cs),
(617,-30,o),
(739,27,o),
(831,127,cs),
(853,150,o),
(872,176,o),
(890,203,c),
(856,0,l),
(935,0,l),
(1173,1440,l)
);
},
{
closed = 1;
nodes = (
(896,1026,o),
(994,831,o),
(945,538,cs),
(898,254,o),
(742,54,o),
(481,54,cs),
(225,54,o),
(128,245,o),
(177,538,cs),
(225,828,o),
(384,1026,o),
(642,1026,cs)
);
}
);
width = 1131;
}
);
leftKerningGroup = c2;
rightKerningGroup = I;
unicode = 100;
},
{
glyphname = e;
layers = (
{
layerId = "52B6FC9B-A007-47B3-A216-6773BDC6150A";
shapes = (
{
closed = 1;
nodes = (
(637,-30,o),
(734,-4,o),
(827,52,cs),
(920,108,o),
(993,182,o),
(1049,282,c),
(802,360,l),
(749,272,o),
(668,224,o),
(564,224,cs),
(483,224,o),
(426,251,o),
(394,307,cs),
(361,363,o),
(352,439,o),
(369,540,cs),
(388,651,o),
(422,733,o),
(474,790,c),
(523,846,o),
(594,874,o),
(683,874,cs),
(760,874,o),
(812,850,o),
(837,802,cs),
(861,753,o),
(866,675,o),
(847,564,cs),
(830,464,l),
(1087,464,l),
(1152,727,o),
(1110,922,o),
(974,1030,cs),
(906,1083,o),
(819,1110,o),
(711,1110,cs),
(504,1110,o),
(328,1010,o),
(209,834,cs),
(149,746,o),
(111,645,o),
(91,526,cs),
(72,418,o),
(80,323,o),
(112,239,cs),
(143,155,o),
(194,89,o),
(269,42,c),
(342,-6,o),
(430,-30,o),
(537,-30,cs)
);
},
{
closed = 1;
nodes = (
(276,464,l),
(962,464,l),
(995,666,l),
(310,666,l)
);
}
);
width = 1157;
},
{
layerId = "8674DFB1-DD33-4B55-AF75-50F2BA2F7F30";
shapes = (
{
closed = 1;
nodes = (
(603,-30,o),
(697,-5,o),
(788,48,cs),
(877,101,o),
(949,173,o),
(1005,269,c),
(858,327,l),
(778,202,o),
(664,133,o),
(523,133,cs),
(418,133,o),
(346,169,o),
(302,240,cs),
(257,312,o),
(245,411,o),
(268,540,c),
(289,675,o),
(334,776,o),
(403,848,cs),
(470,920,o),
(556,955,o),
(664,955,cs),
(765,955,o),
(835,923,o),
(875,855,cs),
(915,787,o),
(924,688,o),
(904,553,c),
(893,492,l),
(1059,492,l),
(1112,748,o),
(1068,935,o),
(937,1035,cs),
(872,1086,o),
(788,1110,o),
(684,1110,cs),
(483,1110,o),
(316,1013,o),
(205,840,cs),
(149,753,o),
(112,652,o),
(92,533,cs),
(73,421,o),
(78,322,o),
(106,237,cs),
(133,153,o),
(181,87,o),
(249,40,cs),
(317,-7,o),
(400,-30,o),
(503,-30,cs)
);
},
{
closed = 1;
nodes = (
(204,492,l),
(974,492,l),
(997,631,l),
(227,631,l)
);
}
);
width = 1122;
},
{
layerId = "3BB79724-DEC0-46E7-8764-1315E4CC4648";
shapes = (
{
closed = 1;
nodes = (
(574,-30,o),
(666,-6,o),
(753,45,cs),
(840,96,o),
(910,166,o),
(967,258,c),
(907,298,l),
(804,141,o),
(660,54,o),
(487,54,cs),
(362,54,o),
(277,97,o),
(222,182,cs),
(166,267,o),
(154,385,o),
(179,540,cs),
(204,695,o),
(257,814,o),
(340,899,cs),
(424,984,o),
(524,1026,o),
(648,1026,cs),
(769,1026,o),
(856,986,o),
(908,902,cs),
(961,818,o),
(975,700,o),
(954,544,c),
(949,516,l),
(1035,516,l),
(1076,768,o),
(1031,947,o),
(904,1040,cs),
(841,1087,o),
(761,1110,o),
(661,1110,cs),
(464,1110,o),
(306,1017,o),
(201,845,cs),
(149,760,o),
(113,659,o),
(93,540,cs),
(74,423,o),
(76,321,o),
(100,236,cs),
(125,151,o),
(168,86,o),
(232,39,cs),
(295,-8,o),
(374,-30,o),
(473,-30,cs)
);
},
{
closed = 1;
nodes = (
(141,516,l),
(985,516,l),
(999,600,l),
(155,600,l)
);
}
);
width = 1091;
}
);
leftKerningGroup = c2;
rightKerningGroup = e;
unicode = 101;
},
{
glyphname = f;
layers = (
{
layerId = "52B6FC9B-A007-47B3-A216-6773BDC6150A";
shapes = (
{
closed = 1;
nodes = (
(149,0,l),
(407,0,l),
(596,1140,ls),
(604,1191,o),
(631,1218,o),
(665,1233,cs),
(699,1248,o),
(739,1250,o),
(779,1250,cs),
(854,1250,l),
(891,1470,l),
(763,1470,ls),
(620,1470,o),
(523,1445,o),
(456,1384,cs),
(389,1323,o),
(351,1224,o),
(327,1076,cs)
);
},
{
closed = 1;
nodes = (
(130,870,l),
(791,870,l),
(826,1080,l),
(164,1080,l)
);
}
);
width = 734;
},
{
layerId = "8674DFB1-DD33-4B55-AF75-50F2BA2F7F30";
shapes = (
{
closed = 1;
nodes = (
(162,0,l),
(325,0,l),
(519,1169,ls),
(530,1238,o),
(558,1277,o),
(595,1300,cs),
(631,1323,o),
(677,1327,o),
(726,1327,cs),
(820,1327,l),
(844,1470,l),
(712,1470,ls),
(600,1470,o),
(518,1446,o),
(462,1394,cs),
(405,1342,o),
(371,1260,o),
(352,1143,cs)
);
},
{
closed = 1;
nodes = (
(141,937,l),
(755,937,l),
(779,1080,l),
(164,1080,l)
);
}
);
width = 687;
},
{
layerId = "3BB79724-DEC0-46E7-8764-1315E4CC4648";
shapes = (
{
closed = 1;
nodes = (
(174,0,l),
(254,0,l),
(451,1194,ls),
(466,1281,o),
(494,1330,o),
(533,1359,cs),
(572,1387,o),
(622,1394,o),
(679,1394,cs),
(790,1394,l),
(802,1470,l),
(668,1470,ls),
(583,1470,o),
(515,1447,o),
(467,1403,cs),
(418,1358,o),
(388,1291,o),
(373,1202,cs)
);
},
{
closed = 1;
nodes = (
(150,996,l),
(724,996,l),
(738,1080,l),
(164,1080,l)
);
}
);
width = 646;
}
);
leftKerningGroup = f2;
rightKerningGroup = f;
unicode = 102;
},
{
glyphname = g;
layers = (
{
hints = (
{
horizontal = 1;
place = (-510,254);
type = Stem;
},
{
horizontal = 1;
place = (10,254);
type = Stem;
},
{
horizontal = 1;
place = (856,254);
type = Stem;
}
);
layerId = "52B6FC9B-A007-47B3-A216-6773BDC6150A";
shapes = (
{
closed = 1;
nodes = (
(1201,1080,l),
(945,1080,l),
(925,957,l),
(884,1050,o),
(799,1110,o),
(649,1110,cs),
(353,1110,o),
(145,852,o),
(97,560,cs),
(49,269,o),
(172,10,o),
(467,10,cs),
(617,10,o),
(722,70,o),
(794,163,c),
(777,60,ls),
(749,-110,o),
(648,-256,o),
(470,-256,cs),
(362,-256,o),
(290,-205,o),
(276,-94,c),
(5,-152,l),
(26,-391,o),
(203,-510,o),
(428,-510,cs),
(749,-510,o),
(977,-275,o),
(1032,56,cs)
);
},
{
closed = 1;
nodes = (
(397,264,o),
(340,396,o),
(367,560,cs),
(394,722,o),
(497,856,o),
(663,856,cs),
(831,856,o),
(886,723,o),
(859,560,cs),
(832,395,o),
(735,264,o),
(565,264,cs)
);
}
);
width = 1218;
},
{
hints = (
{
horizontal = 1;
place = (-510,163);
type = Stem;
},
{
horizontal = 1;
place = (10,163);
type = Stem;
},
{
horizontal = 1;
place = (947,163);
type = Stem;
}
);
layerId = "8674DFB1-DD33-4B55-AF75-50F2BA2F7F30";
shapes = (
{
closed = 1;
nodes = (
(1155,1080,l),
(993,1080,l),
(966,915,l),
(922,1033,o),
(824,1110,o),
(653,1110,cs),
(349,1110,o),
(146,859,o),
(96,559,cs),
(47,259,o),
(168,10,o),
(471,10,cs),
(642,10,o),
(766,87,o),
(848,204,c),
(824,60,ls),
(788,-159,o),
(665,-347,o),
(434,-347,cs),
(304,-347,o),
(212,-285,o),
(184,-156,c),
(12,-202,l),
(53,-406,o),
(203,-510,o),
(407,-510,cs),
(729,-510,o),
(932,-263,o),
(986,58,cs)
);
},
{
closed = 1;
nodes = (
(304,173,o),
(232,345,o),
(268,559,cs),
(303,771,o),
(433,947,o),
(652,947,cs),
(871,947,o),
(941,771,o),
(906,559,cs),
(871,346,o),
(743,173,o),
(524,173,cs)
);
}
);
width = 1172;
},
{
hints = (
{
horizontal = 1;
place = (-510,84);
type = Stem;
},
{
horizontal = 1;
place = (10,84);
type = Stem;
},
{
horizontal = 1;
place = (1026,84);
type = Stem;
},
{
horizontal = 1;
place = (1080,-20);
target = down;
type = TopGhost;
}
);
layerId = "3BB79724-DEC0-46E7-8764-1315E4CC4648";
shapes = (
{
closed = 1;
nodes = (
(1114,1080,l),
(1035,1080,l),
(1001,877,l),
(955,1017,o),
(845,1110,o),
(656,1110,cs),
(345,1110,o),
(147,865,o),
(96,558,cs),
(45,251,o),
(165,10,o),
(474,10,cs),
(663,10,o),
(804,102,o),
(896,241,c),
(866,60,ls),
(823,-202,o),
(679,-426,o),
(402,-426,cs),
(253,-426,o),
(143,-354,o),
(103,-210,c),
(19,-246,l),
(76,-418,o),
(203,-510,o),
(388,-510,cs),
(712,-510,o),
(893,-252,o),
(945,60,cs)
);
},
{
closed = 1;
nodes = (
(222,94,o),
(138,300,o),
(181,558,cs),
(223,814,o),
(377,1026,o),
(642,1026,cs),
(906,1026,o),
(990,813,o),
(948,558,cs),
(906,303,o),
(750,94,o),
(488,94,cs)
);
}
);
width = 1131;
}
);
leftKerningGroup = g2;
rightKerningGroup = g;
unicode = 103;
},
{
glyphname = h;
layers = (
{
layerId = "52B6FC9B-A007-47B3-A216-6773BDC6150A";
shapes = (
{
closed = 1;
nodes = (
(762,0,l),
(1025,0,l),
(1125,606,ls),
(1133,654,o),
(1138,705,o),
(1138,754,cs),
(1138,978,o),
(1039,1112,o),
(806,1112,cs),
(514,1112,o),
(321,898,o),
(274,622,c),
(410,548,l),
(434,700,o),
(503,856,o),
(681,856,cs),
(817,856,o),
(861,768,o),
(861,643,cs),
(861,600,o),
(854,553,o),
(847,510,cs)
);
},
{
closed = 1;
nodes = (
(57,0,l),
(319,0,l),
(435,700,l),
(402,700,l),
(525,1440,l),
(295,1440,l)
);
}
);
width = 1202;
},
{
layerId = "8674DFB1-DD33-4B55-AF75-50F2BA2F7F30";
shapes = (
{
closed = 1;
nodes = (
(797,0,l),
(962,0,l),
(1061,596,ls),
(1069,643,o),
(1073,692,o),
(1073,739,cs),
(1073,963,o),
(968,1108,o),
(733,1108,cs),
(435,1108,o),
(259,879,o),
(214,604,c),
(317,570,l),
(348,763,o),
(450,945,o),
(668,945,cs),
(836,945,o),
(900,840,o),
(900,682,cs),
(900,637,o),
(895,589,o),
(887,543,cs)
);
},
{
closed = 1;
nodes = (
(58,0,l),
(222,0,l),
(329,641,l),
(310,641,l),
(443,1440,l),
(296,1440,l)
);
}
);
width = 1140;
},
{
layerId = "3BB79724-DEC0-46E7-8764-1315E4CC4648";
shapes = (
{
closed = 1;
nodes = (
(827,0,l),
(907,0,l),
(1005,588,ls),
(1013,634,o),
(1017,680,o),
(1017,726,cs),
(1017,949,o),
(905,1104,o),
(670,1104,cs),
(365,1104,o),
(205,862,o),
(161,588,c),
(236,590,l),
(272,819,o),
(403,1022,o),
(657,1022,cs),
(853,1022,o),
(935,903,o),
(935,717,cs),
(935,669,o),
(930,620,o),
(922,572,cs)
);
},
{
closed = 1;
nodes = (
(58,0,l),
(138,0,l),
(236,590,l),
(230,590,l),
(371,1440,l),
(297,1440,l)
);
}
);
width = 1085;
}
);
leftKerningGroup = h2;
rightKerningGroup = h;
unicode = 104;
},
{
glyphname = j;
layers = (
{
layerId = "52B6FC9B-A007-47B3-A216-6773BDC6150A";
shapes = (
{
closed = 1;
nodes = (
(-167,-480,l),
(9,-480,ls),
(97,-480,o),
(170,-454,o),
(230,-403,cs),
(289,-351,o),
(325,-283,o),
(340,-196,cs),
(551,1080,l),
(293,1080,l),
(104,-64,ls),
(95,-116,o),
(78,-156,o),
(51,-184,cs),
(24,-212,o),
(-19,-226,o),
(-79,-226,cs),
(-125,-226,l)
);
},
{
closed = 1;
nodes = (
(485,1191,o),
(521,1206,o),
(556,1237,cs),
(591,1268,o),
(611,1305,o),
(618,1349,cs),
(625,1394,o),
(618,1431,o),
(594,1462,cs),
(570,1493,o),
(537,1507,o),
(493,1507,cs),
(450,1507,o),
(413,1493,o),
(378,1462,cs),
(343,1431,o),
(324,1394,o),
(316,1349,cs),
(308,1305,o),
(317,1268,o),
(341,1237,cs),
(365,1206,o),
(398,1191,o),
(441,1191,cs)
);
}
);
width = 569;
},
{
layerId = "8674DFB1-DD33-4B55-AF75-50F2BA2F7F30";
shapes = (
{
closed = 1;
nodes = (
(-167,-480,l),
(-51,-480,ls),
(36,-480,o),
(102,-457,o),
(153,-412,c),
(204,-365,o),
(236,-298,o),
(251,-209,cs),
(464,1080,l),
(301,1080,l),
(97,-153,ls),
(88,-210,o),
(68,-252,o),
(37,-277,cs),
(6,-302,o),
(-34,-316,o),
(-83,-316,cs),
(-139,-316,l)
);
},
{
closed = 1;
nodes = (
(443,1251,o),
(469,1262,o),
(494,1283,c),
(518,1306,o),
(533,1331,o),
(537,1363,cs),
(542,1396,o),
(539,1423,o),
(520,1444,c),
(504,1467,o),
(480,1477,o),
(448,1477,cs),
(417,1477,o),
(391,1467,o),
(367,1444,c),
(342,1423,o),
(327,1396,o),
(322,1363,c),
(315,1331,o),
(323,1306,o),
(340,1283,cs),
(357,1262,o),
(380,1251,o),
(411,1251,cs)
);
}
);
width = 492;
},
{
layerId = "3BB79724-DEC0-46E7-8764-1315E4CC4648";
shapes = (
{
closed = 1;
nodes = (
(-167,-480,l),
(-104,-480,ls),
(-19,-480,o),
(42,-460,o),
(86,-419,cs),
(129,-378,o),
(158,-312,o),
(173,-220,cs),
(388,1080,l),
(308,1080,l),
(91,-230,l),
(82,-293,o),
(58,-335,o),
(25,-359,c),
(-10,-382,o),
(-46,-394,o),
(-87,-394,cs),
(-152,-394,l)
);
},
{
closed = 1;
nodes = (
(405,1303,o),
(423,1309,o),
(439,1324,cs),
(455,1339,o),
(463,1355,o),
(467,1376,cs),
(471,1397,o),
(468,1414,o),
(456,1429,cs),
(445,1444,o),
(429,1450,o),
(409,1450,cs),
(389,1450,o),
(373,1444,o),
(357,1429,cs),
(340,1414,o),
(331,1397,o),
(327,1376,cs),
(323,1355,o),
(327,1339,o),
(339,1324,cs),
(351,1309,o),
(365,1303,o),
(385,1303,cs)
);
}
);
width = 425;
}
);
leftKerningGroup = j;
unicode = 106;
},
{
glyphname = k;
layers = (
{
layerId = "52B6FC9B-A007-47B3-A216-6773BDC6150A";
shapes = (
{
closed = 1;
nodes = (
(57,0,l),
(302,0,l),
(540,1440,l),
(297,1440,l)
);
},
{
closed = 1;
nodes = (
(856,1080,l),
(274,563,l),
(218,225,l),
(1160,1080,l)
);
},
{
closed = 1;
nodes = (
(409,591,l),
(735,0,l),
(1013,0,l),
(603,743,l)
);
}
);
width = 1052;
},
{
layerId = "8674DFB1-DD33-4B55-AF75-50F2BA2F7F30";
shapes = (
{
closed = 1;
nodes = (
(58,0,l),
(215,0,l),
(453,1440,l),
(297,1440,l)
);
},
{
closed = 1;
nodes = (
(850,1080,l),
(224,544,l),
(188,330,l),
(1051,1080,l)
);
},
{
closed = 1;
nodes = (
(353,591,l),
(709,0,l),
(899,0,l),
(485,691,l)
);
}
);
width = 965;
},
{
layerId = "3BB79724-DEC0-46E7-8764-1315E4CC4648";
shapes = (
{
closed = 1;
nodes = (
(58,0,l),
(138,0,l),
(377,1440,l),
(297,1440,l)
);
},
{
closed = 1;
nodes = (
(845,1080,l),
(180,528,l),
(162,421,l),
(956,1080,l)
);
},
{
closed = 1;
nodes = (
(304,591,l),
(686,0,l),
(799,0,l),
(381,646,l)
);
}
);
width = 889;
}
);
leftKerningGroup = k2;
rightKerningGroup = k;
unicode = 107;
},
{
glyphname = l;
layers = (
{
layerId = "52B6FC9B-A007-47B3-A216-6773BDC6150A";
shapes = (
{
closed = 1;
nodes = (
(565,240,l),
(544,240,o),
(521,240,o),
(500,240,cs),
(445,240,o),
(417,256,o),
(404,283,cs),
(391,310,o),
(393,345,o),
(398,385,cs),
(402,412,o),
(408,439,o),
(412,467,c),
(573,1440,l),
(315,1440,l),
(129,318,l),
(124,282,o),
(121,250,o),
(124,219,cs),
(131,146,o),
(159,90,o),
(210,54,cs),
(259,18,o),
(328,0,o),
(409,0,cs),
(525,0,l)
);
}
);
width = 630;
},
{
layerId = "8674DFB1-DD33-4B55-AF75-50F2BA2F7F30";
shapes = (
{
closed = 1;
nodes = (
(462,157,l),
(433,157,o),
(406,157,o),
(383,161,c),
(338,165,o),
(311,181,o),
(298,209,cs),
(285,237,o),
(286,276,o),
(293,327,c),
(301,371,o),
(309,416,o),
(316,461,cs),
(478,1440,l),
(315,1440,l),
(130,323,ls),
(125,290,o),
(121,260,o),
(120,231,cs),
(116,158,o),
(137,99,o),
(178,60,cs),
(218,21,o),
(279,0,o),
(355,0,cs),
(436,0,l)
);
}
);
width = 546;
},
{
layerId = "3BB79724-DEC0-46E7-8764-1315E4CC4648";
shapes = (
{
closed = 1;
nodes = (
(372,84,l),
(335,84,o),
(305,86,o),
(280,91,cs),
(243,99,o),
(219,116,o),
(206,145,cs),
(193,173,o),
(193,216,o),
(202,276,c),
(213,336,o),
(223,395,o),
(232,455,cs),
(395,1440,l),
(315,1440,l),
(131,327,ls),
(126,298,o),
(121,270,o),
(116,241,cs),
(104,168,o),
(117,106,o),
(150,65,cs),
(182,24,o),
(236,0,o),
(307,0,cs),
(358,0,l)
);
}
);
width = 472;
}
);
leftKerningGroup = i2;
rightKerningGroup = i;
unicode = 108;
},
{
glyphname = m;
layers = (
{
layerId = "52B6FC9B-A007-47B3-A216-6773BDC6150A";
shapes = (
{
closed = 1;
nodes = (
(1301,0,l),
(1559,0,l),
(1677,710,ls),
(1683,743,o),
(1686,777,o),
(1686,811,cs),
(1686,1004,o),
(1576,1106,o),
(1385,1106,cs),
(1170,1106,o),
(985,941,o),
(951,730,c),
(1046,654,l),
(1067,765,o),
(1140,864,o),
(1262,864,cs),
(1364,864,o),
(1413,797,o),
(1413,700,cs),
(1413,679,o),
(1410,659,o),
(1407,638,cs)
);
},
{
closed = 1;
nodes = (
(57,0,l),
(317,0,l),
(436,722,l),
(404,722,l),
(463,1080,l),
(235,1080,l)
);
},
{
closed = 1;
nodes = (
(680,0,l),
(938,0,l),
(1056,710,ls),
(1061,740,o),
(1064,771,o),
(1064,801,cs),
(1064,992,o),
(964,1106,o),
(770,1106,cs),
(556,1106,o),
(365,945,o),
(330,734,c),
(425,654,l),
(444,765,o),
(519,864,o),
(640,864,cs),
(742,864,o),
(791,799,o),
(791,702,cs),
(791,681,o),
(788,659,o),
(785,638,cs)
);
}
);
width = 1737;
},
{
layerId = "8674DFB1-DD33-4B55-AF75-50F2BA2F7F30";
shapes = (
{
closed = 1;
nodes = (
(1294,0,l),
(1457,0,l),
(1579,731,ls),
(1584,762,o),
(1587,792,o),
(1587,823,cs),
(1587,1005,o),
(1474,1108,o),
(1295,1108,cs),
(1073,1108,o),
(903,937,o),
(872,724,c),
(954,688,l),
(979,831,o),
(1071,955,o),
(1228,955,cs),
(1347,955,o),
(1416,875,o),
(1416,759,cs),
(1416,738,o),
(1414,716,o),
(1410,695,cs)
);
},
{
closed = 1;
nodes = (
(58,0,l),
(222,0,l),
(353,796,l),
(335,796,l),
(382,1080,l),
(236,1080,l)
);
},
{
closed = 1;
nodes = (
(677,0,l),
(839,0,l),
(961,728,ls),
(966,758,o),
(969,789,o),
(969,819,cs),
(969,1000,o),
(862,1108,o),
(680,1108,cs),
(468,1108,o),
(291,950,o),
(256,743,c),
(335,688,l),
(359,829,o),
(454,955,o),
(608,955,cs),
(731,955,o),
(798,874,o),
(798,755,cs),
(798,733,o),
(795,710,o),
(791,687,cs)
);
}
);
width = 1636;
},
{
layerId = "3BB79724-DEC0-46E7-8764-1315E4CC4648";
shapes = (
{
closed = 1;
nodes = (
(1288,0,l),
(1367,0,l),
(1493,750,ls),
(1498,778,o),
(1500,806,o),
(1500,834,cs),
(1500,1006,o),
(1384,1110,o),
(1216,1110,cs),
(989,1110,o),
(831,934,o),
(802,718,c),
(873,718,l),
(902,889,o),
(1010,1034,o),
(1198,1034,cs),
(1332,1034,o),
(1419,944,o),
(1419,811,cs),
(1419,789,o),
(1417,766,o),
(1413,744,cs)
);
},
{
closed = 1;
nodes = (
(58,0,l),
(138,0,l),
(281,860,l),
(275,860,l),
(311,1080,l),
(237,1080,l)
);
},
{
closed = 1;
nodes = (
(674,0,l),
(752,0,l),
(877,744,ls),
(882,774,o),
(885,804,o),
(885,834,cs),
(885,1007,o),
(772,1110,o),
(602,1110,cs),
(391,1110,o),
(227,954,o),
(192,750,c),
(257,718,l),
(285,885,o),
(397,1034,o),
(580,1034,cs),
(721,1034,o),
(804,940,o),
(804,802,cs),
(804,778,o),
(801,754,o),
(797,730,cs)
);
}
);
width = 1547;
}
);
leftKerningGroup = m2;
rightKerningGroup = m;
unicode = 109;
},
{
glyphname = n;
layers = (
{
layerId = "52B6FC9B-A007-47B3-A216-6773BDC6150A";
shapes = (
{
closed = 1;
nodes = (
(762,0,l),
(1025,0,l),
(1125,606,ls),
(1133,654,o),
(1138,705,o),
(1138,754,cs),
(1138,978,o),
(1039,1112,o),
(806,1112,cs),
(514,1112,o),
(321,898,o),
(274,622,c),
(410,548,l),
(434,700,o),
(503,856,o),
(681,856,cs),
(817,856,o),
(861,768,o),
(861,643,cs),
(861,600,o),
(854,553,o),
(847,510,cs)
);
},
{
closed = 1;
nodes = (
(57,0,l),
(319,0,l),
(438,722,l),
(406,722,l),
(465,1080,l),
(235,1080,l)
);
}
);
width = 1202;
},
{
layerId = "8674DFB1-DD33-4B55-AF75-50F2BA2F7F30";
shapes = (
{
closed = 1;
nodes = (
(797,0,l),
(962,0,l),
(1061,596,ls),
(1069,643,o),
(1073,692,o),
(1073,739,cs),
(1073,963,o),
(968,1108,o),
(733,1108,cs),
(435,1108,o),
(259,879,o),
(214,604,c),
(317,570,l),
(348,763,o),
(450,945,o),
(668,945,cs),
(836,945,o),
(900,840,o),
(900,682,cs),
(900,637,o),
(895,589,o),
(887,543,cs)
);
},
{
closed = 1;
nodes = (
(58,0,l),
(222,0,l),
(354,796,l),
(336,796,l),
(383,1080,l),
(236,1080,l)
);
}
);
width = 1140;
},
{
layerId = "3BB79724-DEC0-46E7-8764-1315E4CC4648";
shapes = (
{
closed = 1;
nodes = (
(827,0,l),
(907,0,l),
(1005,588,ls),
(1013,634,o),
(1017,680,o),
(1017,726,cs),
(1017,949,o),
(905,1104,o),
(670,1104,cs),
(365,1104,o),
(205,862,o),
(161,588,c),
(236,590,l),
(272,819,o),
(403,1022,o),
(657,1022,cs),
(853,1022,o),
(935,903,o),
(935,717,cs),
(935,669,o),
(930,620,o),
(922,572,cs)
);
},
{
closed = 1;
nodes = (
(58,0,l),
(138,0,l),
(281,860,l),
(275,860,l),
(311,1080,l),
(237,1080,l)
);
}
);
width = 1085;
}
);
leftKerningGroup = m2;
rightKerningGroup = m;
unicode = 110;
},
{
glyphname = o;
layers = (
{
layerId = "52B6FC9B-A007-47B3-A216-6773BDC6150A";
shapes = (
{
closed = 1;
nodes = (
(897,-30,o),
(1148,304,o),
(1148,662,cs),
(1148,931,o),
(981,1110,o),
(709,1110,cs),
(331,1110,o),
(82,773,o),
(82,415,cs),
(82,148,o),
(250,-30,o),
(520,-30,cs)
);
},
{
closed = 1;
nodes = (
(419,224,o),
(359,318,o),
(359,452,cs),
(359,640,o),
(450,856,o),
(667,856,cs),
(812,856,o),
(872,764,o),
(872,627,cs),
(872,440,o),
(776,224,o),
(562,224,cs)
);
}
);
width = 1190;
},
{
layerId = "8674DFB1-DD33-4B55-AF75-50F2BA2F7F30";
shapes = (
{
closed = 1;
nodes = (
(877,-30,o),
(1097,325,o),
(1097,676,cs),
(1097,937,o),
(951,1110,o),
(683,1110,cs),
(301,1110,o),
(81,756,o),
(81,404,cs),
(81,146,o),
(228,-30,o),
(494,-30,cs)
);
},
{
closed = 1;
nodes = (
(337,133,o),
(257,253,o),
(257,428,cs),
(257,670,o),
(377,947,o),
(656,947,cs),
(842,947,o),
(923,833,o),
(923,655,cs),
(923,412,o),
(800,133,o),
(521,133,cs)
);
}
);
width = 1138;
},
{
layerId = "3BB79724-DEC0-46E7-8764-1315E4CC4648";
shapes = (
{
closed = 1;
nodes = (
(859,-30,o),
(1053,343,o),
(1053,689,cs),
(1053,942,o),
(925,1110,o),
(661,1110,cs),
(274,1110,o),
(81,742,o),
(81,395,cs),
(81,144,o),
(208,-30,o),
(472,-30,cs)
);
},
{
closed = 1;
nodes = (
(265,54,o),
(167,197,o),
(167,407,cs),
(167,697,o),
(314,1026,o),
(647,1026,cs),
(869,1026,o),
(967,893,o),
(967,680,cs),
(967,388,o),
(821,54,o),
(486,54,cs)
);
}
);
width = 1092;
}
);
leftKerningGroup = c2;
rightKerningGroup = b;
unicode = 111;
},
{
glyphname = p;
layers = (
{
hints = (
{
horizontal = 1;
place = (-480,21);
target = up;
type = BottomGhost;
},
{
horizontal = 1;
place = (-30,254);
type = Stem;
},
{
horizontal = 1;
place = (856,254);
type = Stem;
}
);
layerId = "52B6FC9B-A007-47B3-A216-6773BDC6150A";
shapes = (
{
closed = 1;
nodes = (
(235,-480,l),
(336,133,l),
(347,105,o),
(362,81,o),
(380,60,cs),
(429,3,o),
(504,-30,o),
(610,-30,cs),
(871,-30,o),
(1110,204,o),
(1166,540,cs),
(1221,874,o),
(1060,1110,o),
(799,1110,cs),
(687,1110,o),
(598,1074,o),
(528,1010,cs),
(507,991,o),
(488,970,o),
(471,947,c),
(493,1080,l),
(237,1080,l),
(-21,-480,l)
);
},
{
closed = 1;
nodes = (
(434,224,o),
(372,347,o),
(404,542,cs),
(431,702,o),
(515,856,o),
(701,856,cs),
(864,856,o),
(928,732,o),
(896,540,cs),
(865,353,o),
(761,224,o),
(596,224,cs)
);
}
);
width = 1218;
},
{
hints = (
{
horizontal = 1;
place = (-480,21);
target = up;
type = BottomGhost;
},
{
horizontal = 1;
place = (-30,163);
type = Stem;
},
{
horizontal = 1;
place = (947,163);
type = Stem;
}
);
layerId = "8674DFB1-DD33-4B55-AF75-50F2BA2F7F30";
shapes = (
{
closed = 1;
nodes = (
(141,-480,l),
(248,171,l),
(257,143,o),
(270,119,o),
(286,97,c),
(339,17,o),
(429,-30,o),
(560,-30,cs),
(842,-30,o),
(1064,202,o),
(1120,541,cs),
(1175,875,o),
(1034,1110,o),
(749,1110,cs),
(617,1110,o),
(511,1063,o),
(429,980,cs),
(408,959,o),
(388,935,o),
(371,910,c),
(399,1080,l),
(237,1080,l),
(-21,-480,l)
);
},
{
closed = 1;
nodes = (
(350,133,o),
(269,295,o),
(310,542,cs),
(347,768,o),
(470,947,o),
(696,947,cs),
(908,947,o),
(990,787,o),
(949,541,cs),
(909,299,o),
(775,133,o),
(561,133,cs)
);
}
);
width = 1172;
},
{
hints = (
{
horizontal = 1;
place = (-480,21);
target = up;
type = BottomGhost;
},
{
horizontal = 1;
place = (-30,84);
type = Stem;
},
{
horizontal = 1;
place = (1026,84);
type = Stem;
},
{
horizontal = 1;
place = (1080,-20);
target = down;
type = TopGhost;
}
);
layerId = "3BB79724-DEC0-46E7-8764-1315E4CC4648";
shapes = (
{
closed = 1;
nodes = (
(58,-480,l),
(171,204,l),
(179,177,o),
(190,153,o),
(203,130,cs),
(261,29,o),
(364,-30,o),
(516,-30,cs),
(817,-30,o),
(1023,201,o),
(1079,542,cs),
(1134,875,o),
(1011,1110,o),
(705,1110,cs),
(556,1110,o),
(434,1053,o),
(343,954,cs),
(321,930,o),
(301,904,o),
(283,877,c),
(316,1080,l),
(237,1080,l),
(-21,-480,l)
);
},
{
closed = 1;
nodes = (
(276,54,o),
(178,249,o),
(227,542,cs),
(274,826,o),
(430,1026,o),
(691,1026,cs),
(947,1026,o),
(1044,835,o),
(995,542,cs),
(947,252,o),
(788,54,o),
(530,54,cs)
);
}
);
width = 1131;
}
);
leftKerningGroup = m2;
rightKerningGroup = b;
unicode = 112;
},
{
glyphname = q;
layers = (
{
hints = (
{
horizontal = 1;
place = (-480,21);
target = up;
type = BottomGhost;
},
{
horizontal = 1;
place = (-30,254);
type = Stem;
},
{
horizontal = 1;
place = (856,254);
type = Stem;
}
);
layerId = "52B6FC9B-A007-47B3-A216-6773BDC6150A";
shapes = (
{
closed = 1;
nodes = (
(1201,1080,l),
(945,1080,l),
(923,947,l),
(909,980,o),
(890,1010,o),
(866,1034,cs),
(817,1082,o),
(746,1110,o),
(649,1110,cs),
(388,1110,o),
(148,874,o),
(93,540,cs),
(37,204,o),
(200,-30,o),
(461,-30,cs),
(568,-30,o),
(653,2,o),
(722,61,cs),
(746,82,o),
(769,106,o),
(789,133,c),
(687,-480,l),
(943,-480,l)
);
},
{
closed = 1;
nodes = (
(394,224,o),
(333,353,o),
(364,540,cs),
(396,732,o),
(500,856,o),
(663,856,cs),
(856,856,o),
(881,691,o),
(856,542,cs),
(824,347,o),
(720,224,o),
(559,224,cs)
);
}
);
width = 1218;
},
{
hints = (
{
horizontal = 1;
place = (-480,21);
target = up;
type = BottomGhost;
},
{
horizontal = 1;
place = (-30,163);
type = Stem;
},
{
horizontal = 1;
place = (947,163);
type = Stem;
}
);
layerId = "8674DFB1-DD33-4B55-AF75-50F2BA2F7F30";
shapes = (
{
closed = 1;
nodes = (
(1155,1080,l),
(993,1080,l),
(965,910,l),
(953,941,o),
(937,970,o),
(918,994,c),
(862,1071,o),
(772,1110,o),
(653,1110,cs),
(368,1110,o),
(149,875,o),
(94,541,cs),
(38,202,o),
(182,-30,o),
(465,-30,cs),
(596,-30,o),
(700,16,o),
(781,98,c),
(804,120,o),
(824,144,o),
(843,171,c),
(735,-480,l),
(896,-480,l)
);
},
{
closed = 1;
nodes = (
(303,133,o),
(225,299,o),
(265,541,cs),
(306,787,o),
(439,947,o),
(652,947,cs),
(881,947,o),
(941,763,o),
(904,542,cs),
(863,295,o),
(728,133,o),
(517,133,cs)
);
}
);
width = 1172;
},
{
hints = (
{
horizontal = 1;
place = (-480,21);
target = up;
type = BottomGhost;
},
{
horizontal = 1;
place = (-30,84);
type = Stem;
},
{
horizontal = 1;
place = (1026,84);
type = Stem;
},
{
horizontal = 1;
place = (1080,-20);
target = down;
type = TopGhost;
}
);
layerId = "3BB79724-DEC0-46E7-8764-1315E4CC4648";
shapes = (
{
closed = 1;
nodes = (
(1114,1080,l),
(1035,1080,l),
(1001,877,l),
(991,907,o),
(979,934,o),
(964,958,cs),
(901,1062,o),
(794,1110,o),
(656,1110,cs),
(350,1110,o),
(149,875,o),
(94,542,cs),
(38,201,o),
(167,-30,o),
(468,-30,cs),
(620,-30,o),
(741,29,o),
(833,130,cs),
(854,153,o),
(873,177,o),
(890,204,c),
(777,-480,l),
(855,-480,l)
);
},
{
closed = 1;
nodes = (
(223,54,o),
(130,252,o),
(178,542,cs),
(227,835,o),
(386,1026,o),
(642,1026,cs),
(903,1026,o),
(993,826,o),
(946,542,cs),
(897,249,o),
(735,54,o),
(481,54,cs)
);
}
);
width = 1131;
}
);
unicode = 113;
},
{
glyphname = r;
layers = (
{
layerId = "52B6FC9B-A007-47B3-A216-6773BDC6150A";
shapes = (
{
closed = 1;
nodes = (
(58,0,l),
(319,0,l),
(410,552,ls),
(437,716,o),
(555,853,o),
(727,853,cs),
(752,853,o),
(780,845,o),
(799,828,c),
(937,1050,l),
(894,1082,o),
(834,1100,o),
(781,1100,cs),
(613,1100,o),
(479,997,o),
(402,850,c),
(421,816,l),
(465,1080,l),
(237,1080,l)
);
}
);
width = 778;
},
{
layerId = "8674DFB1-DD33-4B55-AF75-50F2BA2F7F30";
shapes = (
{
closed = 1;
nodes = (
(58,0,l),
(222,0,l),
(312,541,ls),
(343,732,o),
(439,940,o),
(661,940,cs),
(687,940,o),
(718,935,o),
(738,918,c),
(825,1059,l),
(793,1084,o),
(732,1100,o),
(692,1100,cs),
(527,1100,o),
(396,996,o),
(321,853,c),
(340,819,l),
(383,1080,l),
(237,1080,l)
);
}
);
width = 700;
},
{
layerId = "3BB79724-DEC0-46E7-8764-1315E4CC4648";
shapes = (
{
closed = 1;
nodes = (
(58,0,l),
(138,0,l),
(226,532,ls),
(261,746,o),
(338,1017,o),
(604,1017,cs),
(631,1017,o),
(663,1013,o),
(684,997,c),
(727,1066,l),
(705,1085,o),
(642,1100,o),
(614,1100,cs),
(452,1100,o),
(324,995,o),
(250,856,c),
(269,822,l),
(311,1080,l),
(237,1080,l)
);
}
);
width = 632;
}
);
leftKerningGroup = r2;
rightKerningGroup = r;
unicode = 114;
},
{
glyphname = s;
layers = (
{
layerId = "52B6FC9B-A007-47B3-A216-6773BDC6150A";
shapes = (
{
closed = 1;
nodes = (
(711,-30,o),
(954,107,o),
(954,387,cs),
(954,697,o),
(424,632,o),
(424,772,cs),
(424,850,o),
(514,877,o),
(578,877,cs),
(669,877,o),
(744,843,o),
(744,740,c),
(1016,790,l),
(1016,1012,o),
(827,1110,o),
(632,1110,cs),
(393,1110,o),
(161,974,o),
(161,711,cs),
(161,413,o),
(685,471,o),
(685,330,cs),
(685,238,o),
(595,204,o),
(517,204,cs),
(415,204,o),
(332,256,o),
(329,366,c),
(57,324,l),
(57,74,o),
(227,-30,o),
(459,-30,cs)
);
}
);
width = 1036;
},
{
layerId = "8674DFB1-DD33-4B55-AF75-50F2BA2F7F30";
shapes = (
{
closed = 1;
nodes = (
(682,-29,o),
(917,96,o),
(917,361,cs),
(917,675,o),
(332,592,o),
(332,785,cs),
(332,907,o),
(473,956,o),
(575,956,cs),
(702,956,o),
(818,907,o),
(818,762,c),
(990,794,l),
(995,1015,o),
(810,1110,o),
(615,1110,cs),
(399,1110,o),
(164,988,o),
(164,745,cs),
(164,452,o),
(746,522,o),
(746,328,cs),
(746,184,o),
(605,125,o),
(481,125,cs),
(357,125,o),
(234,180,o),
(224,318,c),
(52,290,l),
(55,60,o),
(239,-29,o),
(446,-29,cs)
);
}
);
width = 1005;
},
{
layerId = "3BB79724-DEC0-46E7-8764-1315E4CC4648";
shapes = (
{
closed = 1;
nodes = (
(657,-28,o),
(885,87,o),
(885,339,cs),
(885,655,o),
(252,557,o),
(252,796,cs),
(252,957,o),
(438,1026,o),
(573,1026,cs),
(731,1026,o),
(883,963,o),
(883,782,c),
(967,798,l),
(976,1018,o),
(796,1110,o),
(601,1110,cs),
(405,1110,o),
(166,1001,o),
(166,774,cs),
(166,486,o),
(799,567,o),
(799,327,cs),
(799,137,o),
(614,56,o),
(450,56,cs),
(307,56,o),
(148,113,o),
(132,276,c),
(47,260,l),
(53,47,o),
(250,-28,o),
(434,-28,cs)
);
}
);
width = 977;
}
);
leftKerningGroup = s2;
rightKerningGroup = s;
unicode = 115;
},
{
glyphname = t;
layers = (
{
layerId = "52B6FC9B-A007-47B3-A216-6773BDC6150A";
shapes = (
{
closed = 1;
nodes = (
(721,226,l),
(680,220,o),
(638,217,o),
(597,217,cs),
(519,217,o),
(444,228,o),
(444,325,cs),
(444,374,o),
(455,426,o),
(463,474,cs),
(613,1380,l),
(354,1380,l),
(202,458,ls),
(190,388,o),
(172,311,o),
(172,240,cs),
(172,43,o),
(313,-19,o),
(490,-19,cs),
(555,-19,o),
(620,-13,o),
(684,0,c)
);
},
{
closed = 1;
nodes = (
(93,870,l),
(828,870,l),
(863,1080,l),
(128,1080,l)
);
}
);
width = 843;
},
{
layerId = "8674DFB1-DD33-4B55-AF75-50F2BA2F7F30";
shapes = (
{
closed = 1;
nodes = (
(663,148,l),
(623,142,o),
(583,138,o),
(543,138,cs),
(452,138,o),
(374,159,o),
(374,267,cs),
(374,315,o),
(385,366,o),
(393,412,cs),
(553,1380,l),
(390,1380,l),
(229,405,ls),
(219,345,o),
(205,280,o),
(205,219,cs),
(205,46,o),
(321,-17,o),
(480,-17,cs),
(534,-17,o),
(586,-11,o),
(639,0,c)
);
},
{
closed = 1;
nodes = (
(104,937,l),
(794,937,l),
(818,1080,l),
(128,1080,l)
);
}
);
width = 778;
},
{
layerId = "3BB79724-DEC0-46E7-8764-1315E4CC4648";
shapes = (
{
closed = 1;
nodes = (
(612,80,l),
(574,73,o),
(535,68,o),
(496,68,cs),
(394,68,o),
(313,99,o),
(313,217,cs),
(313,263,o),
(324,313,o),
(332,358,cs),
(501,1380,l),
(421,1380,l),
(252,358,ls),
(244,307,o),
(233,252,o),
(233,201,cs),
(233,49,o),
(328,-15,o),
(472,-15,cs),
(515,-15,o),
(557,-9,o),
(599,0,c)
);
},
{
closed = 1;
nodes = (
(114,996,l),
(764,996,l),
(778,1080,l),
(128,1080,l)
);
}
);
width = 722;
}
);
leftKerningGroup = t2;
rightKerningGroup = t;
unicode = 116;
},
{
glyphname = u;
layers = (
{
layerId = "52B6FC9B-A007-47B3-A216-6773BDC6150A";
shapes = (
{
closed = 1;
nodes = (
(539,-32,o),
(627,-10,o),
(702,37,cs),
(775,84,o),
(836,142,o),
(881,218,cs),
(926,294,o),
(955,373,o),
(970,458,c),
(834,532,l),
(811,399,o),
(767,321,o),
(715,278,cs),
(663,235,o),
(607,224,o),
(562,224,cs),
(506,224,o),
(465,236,o),
(440,263,c),
(413,290,o),
(398,321,o),
(390,360,cs),
(382,399,o),
(381,437,o),
(385,476,cs),
(389,515,o),
(393,545,o),
(397,570,cs),
(481,1080,l),
(219,1080,l),
(119,474,l),
(112,438,o),
(101,354,o),
(109,258,cs),
(113,210,o),
(124,164,o),
(147,120,c),
(168,76,o),
(200,40,o),
(247,11,cs),
(294,-18,o),
(357,-32,o),
(438,-32,cs)
);
},
{
closed = 1;
nodes = (
(778,0,l),
(1006,0,l),
(1185,1080,l),
(925,1080,l),
(805,358,l),
(837,358,l)
);
}
);
width = 1202;
},
{
layerId = "8674DFB1-DD33-4B55-AF75-50F2BA2F7F30";
shapes = (
{
closed = 1;
nodes = (
(535,-28,o),
(615,-8,o),
(688,32,cs),
(760,72,o),
(820,129,o),
(868,205,cs),
(917,281,o),
(950,371,o),
(967,476,c),
(864,510,l),
(843,385,o),
(800,292,o),
(740,229,c),
(679,168,o),
(601,135,o),
(512,135,cs),
(457,135,o),
(414,145,o),
(382,168,cs),
(349,191,o),
(324,219,o),
(308,258,cs),
(293,295,o),
(283,338,o),
(283,386,c),
(282,435,o),
(285,484,o),
(294,537,cs),
(384,1080,l),
(219,1080,l),
(121,484,ls),
(106,397,o),
(105,301,o),
(126,212,cs),
(137,167,o),
(154,127,o),
(181,91,c),
(205,55,o),
(239,26,o),
(284,5,c),
(328,-18,o),
(381,-28,o),
(448,-28,cs)
);
},
{
closed = 1;
nodes = (
(798,0,l),
(944,0,l),
(1123,1080,l),
(959,1080,l),
(827,284,l),
(844,284,l)
);
}
);
width = 1140;
},
{
layerId = "3BB79724-DEC0-46E7-8764-1315E4CC4648";
shapes = (
{
closed = 1;
nodes = (
(532,-24,o),
(604,-7,o),
(675,28,cs),
(746,63,o),
(805,118,o),
(857,194,cs),
(909,270,o),
(945,368,o),
(965,492,c),
(890,490,l),
(871,373,o),
(829,267,o),
(761,187,cs),
(692,107,o),
(597,58,o),
(469,58,cs),
(416,58,o),
(368,66,o),
(331,85,cs),
(292,104,o),
(260,131,o),
(237,168,cs),
(214,205,o),
(198,251,o),
(194,308,cs),
(189,365,o),
(191,431,o),
(204,508,cs),
(299,1080,l),
(219,1080,l),
(122,492,ls),
(101,363,o),
(108,256,o),
(141,172,cs),
(157,129,o),
(181,95,o),
(210,66,cs),
(238,37,o),
(273,14,o),
(316,-1,cs),
(357,-16,o),
(403,-24,o),
(456,-24,cs)
);
},
{
closed = 1;
nodes = (
(815,0,l),
(889,0,l),
(1068,1080,l),
(988,1080,l),
(846,220,l),
(851,220,l)
);
}
);
width = 1085;
}
);
leftKerningGroup = u;
rightKerningGroup = I;
unicode = 117;
},
{
glyphname = v;
layers = (
{
layerId = "52B6FC9B-A007-47B3-A216-6773BDC6150A";
shapes = (
{
closed = 1;
nodes = (
(344,0,l),
(605,0,l),
(1160,1080,l),
(899,1080,l),
(529,332,l),
(407,1080,l),
(146,1080,l)
);
}
);
width = 1086;
},
{
layerId = "8674DFB1-DD33-4B55-AF75-50F2BA2F7F30";
shapes = (
{
closed = 1;
nodes = (
(344,0,l),
(513,0,l),
(1068,1080,l),
(900,1080,l),
(464,220,l),
(313,1080,l),
(146,1080,l)
);
}
);
width = 994;
},
{
layerId = "3BB79724-DEC0-46E7-8764-1315E4CC4648";
shapes = (
{
closed = 1;
nodes = (
(344,0,l),
(432,0,l),
(987,1080,l),
(901,1080,l),
(408,122,l),
(231,1080,l),
(146,1080,l)
);
}
);
width = 913;
}
);
leftKerningGroup = v2;
rightKerningGroup = v;
unicode = 118;
},
{
glyphname = w;
layers = (
{
layerId = "52B6FC9B-A007-47B3-A216-6773BDC6150A";
shapes = (
{
closed = 1;
nodes = (
(284,0,l),
(484,0,l),
(827,704,l),
(937,0,l),
(1137,0,l),
(1632,1080,l),
(1377,1080,l),
(1082,436,l),
(998,1080,l),
(781,1080,l),
(483,436,l),
(402,1080,l),
(147,1080,l)
);
}
);
width = 1558;
},
{
layerId = "8674DFB1-DD33-4B55-AF75-50F2BA2F7F30";
shapes = (
{
closed = 1;
nodes = (
(284,0,l),
(423,0,l),
(812,829,l),
(927,0,l),
(1065,0,l),
(1561,1080,l),
(1397,1080,l),
(1030,280,l),
(927,1080,l),
(780,1080,l),
(412,280,l),
(311,1080,l),
(146,1080,l)
);
}
);
width = 1487;
},
{
layerId = "3BB79724-DEC0-46E7-8764-1315E4CC4648";
shapes = (
{
closed = 1;
nodes = (
(284,0,l),
(369,0,l),
(799,938,l),
(918,0,l),
(1002,0,l),
(1498,1080,l),
(1415,1080,l),
(984,144,l),
(864,1080,l),
(780,1080,l),
(350,144,l),
(231,1080,l),
(146,1080,l)
);
}
);
width = 1424;
}
);
leftKerningGroup = v2;
rightKerningGroup = v;
unicode = 119;
},
{
glyphname = x;
layers = (
{
layerId = "52B6FC9B-A007-47B3-A216-6773BDC6150A";
shapes = (
{
closed = 1;
nodes = (
(-51,0,l),
(256,0,l),
(526,332,l),
(685,0,l),
(992,0,l),
(710,546,l),
(1161,1080,l),
(854,1080,l),
(597,760,l),
(443,1080,l),
(136,1080,l),
(410,546,l)
);
}
);
width = 1078;
},
{
layerId = "8674DFB1-DD33-4B55-AF75-50F2BA2F7F30";
shapes = (
{
closed = 1;
nodes = (
(-51,0,l),
(147,0,l),
(512,413,l),
(739,0,l),
(937,0,l),
(628,546,l),
(1106,1080,l),
(909,1080,l),
(556,679,l),
(333,1080,l),
(137,1080,l),
(438,546,l)
);
}
);
width = 1023;
},
{
layerId = "3BB79724-DEC0-46E7-8764-1315E4CC4648";
shapes = (
{
closed = 1;
nodes = (
(-51,0,l),
(51,0,l),
(500,484,l),
(786,0,l),
(888,0,l),
(556,546,l),
(1057,1080,l),
(957,1080,l),
(520,608,l),
(237,1080,l),
(138,1080,l),
(462,546,l)
);
}
);
width = 975;
}
);
leftKerningGroup = x2;
rightKerningGroup = x;
unicode = 120;
},
{
glyphname = y;
layers = (
{
layerId = "52B6FC9B-A007-47B3-A216-6773BDC6150A";
shapes = (
{
closed = 1;
nodes = (
(183,1080,l),
(380,0,l),
(314,-125,o),
(209,-239,o),
(93,-241,cs),
(40,-242,l),
(1,-480,l),
(78,-480,ls),
(381,-480,o),
(486,-301,o),
(641,0,cs),
(1196,1080,l),
(935,1080,l),
(566,332,l),
(444,1080,l)
);
}
);
width = 1122;
},
{
layerId = "8674DFB1-DD33-4B55-AF75-50F2BA2F7F30";
shapes = (
{
closed = 1;
nodes = (
(183,1080,l),
(380,0,l),
(309,-135,o),
(208,-327,o),
(50,-328,c),
(6,-328,l),
(-19,-480,l),
(48,-480,ls),
(319,-480,o),
(427,-236,o),
(549,0,cs),
(1104,1080,l),
(936,1080,l),
(501,220,l),
(350,1080,l)
);
}
);
width = 1030;
},
{
layerId = "3BB79724-DEC0-46E7-8764-1315E4CC4648";
shapes = (
{
closed = 1;
nodes = (
(183,1080,l),
(380,0,l),
(305,-143,o),
(207,-404,o),
(13,-404,cs),
(-23,-404,l),
(-36,-480,l),
(22,-480,ls),
(264,-480,o),
(376,-179,o),
(468,0,cs),
(1024,1080,l),
(937,1080,l),
(444,122,l),
(267,1080,l)
);
}
);
width = 950;
}
);
leftKerningGroup = y2;
rightKerningGroup = y;
unicode = 121;
},
{
glyphname = z;
layers = (
{
layerId = "52B6FC9B-A007-47B3-A216-6773BDC6150A";
shapes = (
{
closed = 1;
nodes = (
(-33,0,l),
(860,0,l),
(899,236,l),
(412,236,l),
(1053,1046,l),
(1058,1080,l),
(204,1080,l),
(165,844,l),
(616,844,l),
(-27,34,l)
);
}
);
width = 1021;
},
{
layerId = "8674DFB1-DD33-4B55-AF75-50F2BA2F7F30";
shapes = (
{
closed = 1;
nodes = (
(-33,0,l),
(838,0,l),
(864,157,l),
(262,157,l),
(1044,1046,l),
(1050,1080,l),
(198,1080,l),
(172,923,l),
(757,923,l),
(-28,32,l)
);
}
);
width = 1012;
},
{
layerId = "3BB79724-DEC0-46E7-8764-1315E4CC4648";
shapes = (
{
closed = 1;
nodes = (
(-33,0,l),
(818,0,l),
(833,88,l),
(130,88,l),
(1037,1046,l),
(1043,1080,l),
(192,1080,l),
(178,992,l),
(880,992,l),
(-28,30,l)
);
}
);
width = 1005;
}
);
leftKerningGroup = z2;
rightKerningGroup = z;
unicode = 122;
},
{
glyphname = braceleft;
layers = (
{
layerId = "52B6FC9B-A007-47B3-A216-6773BDC6150A";
shapes = (
{
closed = 1;
nodes = (
(663,-420,l),
(705,-166,l),
(586,-166,ls),
(570,-166,o),
(557,-160,o),
(548,-149,c),
(540,-137,o),
(536,-123,o),
(539,-106,cs),
(632,458,ls),
(643,523,o),
(633,582,o),
(605,638,c),
(576,690,l),
(622,742,ls),
(670,798,o),
(698,857,o),
(709,922,cs),
(802,1486,ls),
(805,1502,o),
(814,1516,o),
(826,1527,cs),
(838,1538,o),
(853,1544,o),
(869,1544,cs),
(988,1544,l),
(1031,1800,l),
(891,1800,ls),
(802,1800,o),
(727,1774,o),
(667,1722,cs),
(607,1669,o),
(570,1598,o),
(555,1506,cs),
(458,922,l),
(457,911,o),
(451,901,o),
(443,890,c),
(334,762,ls),
(297,718,o),
(289,662,o),
(310,618,c),
(377,490,l),
(381,481,o),
(384,471,o),
(381,458,c),
(285,-126,ls),
(269,-218,o),
(282,-290,o),
(325,-342,cs),
(368,-394,o),
(433,-420,o),
(524,-420,cs)
);
}
);
width = 874;
},
{
layerId = "8674DFB1-DD33-4B55-AF75-50F2BA2F7F30";
shapes = (
{
closed = 1;
nodes = (
(594,-433,l),
(621,-269,l),
(509,-269,ls),
(482,-269,o),
(464,-261,o),
(448,-242,cs),
(432,-223,o),
(428,-202,o),
(432,-175,cs),
(535,454,ls),
(544,509,o),
(537,557,o),
(514,602,c),
(475,674,l),
(538,746,ls),
(577,791,o),
(600,839,o),
(609,894,cs),
(712,1522,ls),
(716,1549,o),
(730,1572,o),
(751,1589,c),
(772,1608,o),
(796,1617,o),
(821,1617,cs),
(933,1617,l),
(960,1781,l),
(838,1781,ls),
(766,1781,o),
(704,1759,o),
(651,1712,cs),
(598,1665,o),
(565,1605,o),
(553,1532,cs),
(448,894,l),
(444,875,o),
(436,858,o),
(423,841,c),
(319,720,ls),
(295,693,o),
(289,656,o),
(304,628,cs),
(367,507,ls),
(375,491,o),
(378,474,o),
(375,454,cs),
(270,-185,ls),
(257,-258,o),
(270,-317,o),
(307,-364,c),
(346,-411,o),
(400,-433,o),
(472,-433,cs)
);
}
);
width = 812;
},
{
layerId = "3BB79724-DEC0-46E7-8764-1315E4CC4648";
shapes = (
{
closed = 1;
nodes = (
(533,-444,l),
(547,-360,l),
(441,-360,ls),
(406,-360,o),
(381,-348,o),
(360,-324,cs),
(339,-299,o),
(333,-271,o),
(338,-236,c),
(451,450,ls),
(459,495,o),
(453,535,o),
(434,570,cs),
(386,660,l),
(464,750,ls),
(495,785,o),
(513,825,o),
(521,870,cs),
(634,1554,l),
(639,1589,o),
(656,1619,o),
(685,1644,cs),
(714,1668,o),
(746,1680,o),
(779,1680,cs),
(884,1680,l),
(898,1764,l),
(792,1764,ls),
(735,1764,o),
(685,1744,o),
(637,1703,cs),
(590,1662,o),
(561,1613,o),
(552,1554,cs),
(439,870,l),
(434,845,o),
(424,821,o),
(405,798,cs),
(306,684,ls),
(294,671,o),
(291,651,o),
(298,636,c),
(359,522,l),
(370,499,o),
(373,475,o),
(369,450,cs),
(256,-236,l),
(245,-293,o),
(259,-342,o),
(292,-383,cs),
(325,-424,o),
(370,-444,o),
(427,-444,cs)
);
}
);
width = 757;
}
);
leftKerningGroup = parenleft2;
rightKerningGroup = parenleft;
unicode = 123;
},
{
glyphname = bar;
layers = (
{
layerId = "52B6FC9B-A007-47B3-A216-6773BDC6150A";
shapes = (
{
closed = 1;
nodes = (
(95,0,l),
(361,0,l),
(600,1440,l),
(333,1440,l)
);
}
);
width = 594;
},
{
layerId = "8674DFB1-DD33-4B55-AF75-50F2BA2F7F30";
shapes = (
{
closed = 1;
nodes = (
(95,0,l),
(263,0,l),
(502,1440,l),
(333,1440,l)
);
}
);
width = 495;
},
{
layerId = "3BB79724-DEC0-46E7-8764-1315E4CC4648";
shapes = (
{
closed = 1;
nodes = (
(95,0,l),
(177,0,l),
(416,1440,l),
(333,1440,l)
);
}
);
width = 409;
}
);
unicode = 124;
},
{
glyphname = braceright;
layers = (
{
layerId = "52B6FC9B-A007-47B3-A216-6773BDC6150A";
shapes = (
{
closed = 1;
nodes = (
(-66,-420,l),
(73,-420,ls),
(164,-420,o),
(238,-394,o),
(298,-342,cs),
(358,-290,o),
(395,-218,o),
(410,-126,cs),
(507,458,l),
(510,471,o),
(514,481,o),
(522,490,cs),
(631,618,l),
(667,662,o),
(676,718,o),
(655,762,c),
(588,890,l),
(584,901,o),
(583,911,o),
(584,922,c),
(680,1506,ls),
(696,1598,o),
(683,1669,o),
(640,1722,cs),
(597,1774,o),
(532,1800,o),
(441,1800,cs),
(302,1800,l),
(259,1544,l),
(379,1544,ls),
(395,1544,o),
(407,1538,o),
(416,1527,cs),
(425,1516,o),
(429,1502,o),
(426,1486,cs),
(333,922,ls),
(322,857,o),
(332,798,o),
(360,742,c),
(389,690,l),
(343,638,ls),
(295,582,o),
(267,523,o),
(256,458,cs),
(163,-106,l),
(159,-123,o),
(151,-137,o),
(139,-149,cs),
(127,-160,o),
(112,-166,o),
(96,-166,cs),
(-24,-166,l)
);
}
);
width = 874;
},
{
layerId = "8674DFB1-DD33-4B55-AF75-50F2BA2F7F30";
shapes = (
{
closed = 1;
nodes = (
(-63,-433,l),
(58,-433,ls),
(131,-433,o),
(193,-411,o),
(246,-364,cs),
(299,-317,o),
(331,-258,o),
(343,-185,cs),
(449,454,l),
(453,474,o),
(460,491,o),
(475,507,c),
(578,628,ls),
(601,656,o),
(607,693,o),
(594,720,c),
(529,841,l),
(522,858,o),
(520,875,o),
(523,894,cs),
(628,1532,ls),
(640,1605,o),
(629,1665,o),
(590,1712,c),
(553,1759,o),
(498,1781,o),
(425,1781,cs),
(304,1781,l),
(276,1617,l),
(389,1617,ls),
(414,1617,o),
(433,1608,o),
(449,1589,c),
(465,1572,o),
(469,1549,o),
(465,1522,cs),
(361,894,l),
(353,839,o),
(360,791,o),
(383,746,c),
(422,674,l),
(360,602,ls),
(320,557,o),
(297,509,o),
(289,454,c),
(184,-175,ls),
(180,-202,o),
(167,-223,o),
(146,-242,cs),
(126,-261,o),
(101,-269,o),
(76,-269,cs),
(-36,-269,l)
);
}
);
width = 812;
},
{
layerId = "3BB79724-DEC0-46E7-8764-1315E4CC4648";
shapes = (
{
closed = 1;
nodes = (
(-61,-444,l),
(45,-444,ls),
(102,-444,o),
(153,-424,o),
(201,-383,cs),
(249,-342,o),
(276,-293,o),
(285,-236,cs),
(399,450,ls),
(403,475,o),
(414,499,o),
(433,522,cs),
(532,636,l),
(543,651,o),
(547,671,o),
(540,684,cs),
(478,798,l),
(467,821,o),
(465,845,o),
(469,870,cs),
(582,1554,ls),
(591,1613,o),
(580,1662,o),
(547,1703,c),
(512,1744,o),
(468,1764,o),
(411,1764,cs),
(305,1764,l),
(291,1680,l),
(397,1680,ls),
(430,1680,o),
(457,1668,o),
(478,1644,cs),
(499,1619,o),
(504,1589,o),
(499,1554,c),
(386,870,ls),
(379,825,o),
(385,785,o),
(404,750,cs),
(451,660,l),
(374,570,ls),
(343,535,o),
(325,495,o),
(317,450,cs),
(203,-236,l),
(198,-271,o),
(181,-299,o),
(152,-324,cs),
(124,-348,o),
(92,-360,o),
(59,-360,cs),
(-47,-360,l)
);
}
);
width = 757;
}
);
leftKerningGroup = parenright2;
rightKerningGroup = parenright;
unicode = 125;
},
{
glyphname = asciitilde;
layers = (
{
layerId = "52B6FC9B-A007-47B3-A216-6773BDC6150A";
shapes = (
{
closed = 1;
nodes = (
(1093,390,o),
(1193,475,o),
(1237,608,cs),
(1258,675,o),
(1266,747,o),
(1262,830,c),
(1029,830,l),
(1034,782,o),
(1029,742,o),
(1013,711,cs),
(997,679,o),
(975,663,o),
(947,663,cs),
(892,663,o),
(836,712,o),
(771,768,cs),
(706,823,o),
(632,872,o),
(541,872,cs),
(388,872,o),
(287,787,o),
(243,655,cs),
(220,587,o),
(213,515,o),
(218,432,c),
(450,432,l),
(445,480,o),
(451,520,o),
(467,552,cs),
(483,583,o),
(504,599,o),
(532,599,cs),
(559,599,o),
(587,588,o),
(616,567,cs),
(645,546,o),
(675,521,o),
(708,494,cs),
(772,439,o),
(846,390,o),
(937,390,cs)
);
}
);
width = 1408;
},
{
layerId = "8674DFB1-DD33-4B55-AF75-50F2BA2F7F30";
shapes = (
{
closed = 1;
nodes = (
(986,451,o),
(1071,517,o),
(1111,618,cs),
(1131,667,o),
(1138,723,o),
(1134,784,c),
(972,784,l),
(977,744,o),
(972,710,o),
(956,682,cs),
(939,653,o),
(915,638,o),
(884,638,cs),
(828,638,o),
(774,678,o),
(710,723,cs),
(647,768,o),
(577,808,o),
(496,808,cs),
(379,808,o),
(295,744,o),
(255,645,cs),
(234,594,o),
(226,539,o),
(231,478,c),
(392,478,l),
(385,514,o),
(391,546,o),
(407,577,cs),
(422,605,o),
(446,620,o),
(481,620,cs),
(508,620,o),
(536,612,o),
(565,595,c),
(593,576,o),
(623,557,o),
(655,536,c),
(716,491,o),
(785,451,o),
(866,451,cs)
);
}
);
width = 1293;
},
{
layerId = "3BB79724-DEC0-46E7-8764-1315E4CC4648";
shapes = (
{
closed = 1;
nodes = (
(892,504,o),
(964,553,o),
(1001,626,cs),
(1020,662,o),
(1026,700,o),
(1022,743,c),
(923,743,l),
(928,711,o),
(923,683,o),
(906,656,c),
(887,629,o),
(861,616,o),
(828,616,cs),
(772,616,o),
(718,648,o),
(657,684,cs),
(596,720,o),
(530,752,o),
(457,752,cs),
(372,752,o),
(302,707,o),
(265,636,c),
(245,601,o),
(238,561,o),
(242,518,c),
(341,518,l),
(334,543,o),
(339,570,o),
(354,598,cs),
(369,625,o),
(396,639,o),
(436,639,cs),
(464,639,o),
(492,632,o),
(520,619,c),
(548,604,o),
(577,589,o),
(608,572,c),
(667,536,o),
(731,504,o),
(803,504,cs)
);
}
);
width = 1193;
}
);
unicode = 126;
},
{
glyphname = exclamdown;
leftMetricsKey = "=123";
widthMetricsKey = "=523";
layers = (
{
layerId = "52B6FC9B-A007-47B3-A216-6773BDC6150A";
widthMetricsKey = "=706";
shapes = (
{
closed = 1;
nodes = (
(352,1102,o),
(311,1087,o),
(276,1056,cs),
(241,1025,o),
(220,988,o),
(212,944,cs),
(205,899,o),
(214,862,o),
(239,831,cs),
(264,801,o),
(299,786,o),
(345,786,cs),
(390,786,o),
(431,801,o),
(466,831,cs),
(502,862,o),
(523,899,o),
(530,944,cs),
(538,988,o),
(529,1025,o),
(503,1056,cs),
(478,1087,o),
(443,1102,o),
(398,1102,cs)
);
},
{
closed = 1;
nodes = (
(440,660,l),
(208,660,l),
(112,247,l),
(12,-360,l),
(300,-360,l),
(400,247,l)
);
}
);
width = 706;
},
{
layerId = "8674DFB1-DD33-4B55-AF75-50F2BA2F7F30";
widthMetricsKey = "=608";
shapes = (
{
closed = 1;
nodes = (
(318,1093,o),
(290,1083,o),
(264,1061,cs),
(239,1039,o),
(224,1013,o),
(218,981,cs),
(213,949,o),
(219,922,o),
(237,900,cs),
(256,878,o),
(281,868,o),
(314,868,cs),
(346,868,o),
(374,878,o),
(399,900,cs),
(425,922,o),
(440,949,o),
(446,981,cs),
(451,1012,o),
(445,1038,o),
(426,1060,c),
(408,1083,o),
(383,1093,o),
(351,1093,cs)
);
},
{
closed = 1;
nodes = (
(349,692,l),
(213,692,l),
(124,265,l),
(21,-360,l),
(200,-360,l),
(303,265,l)
);
}
);
width = 608;
},
{
layerId = "3BB79724-DEC0-46E7-8764-1315E4CC4648";
shapes = (
{
closed = 1;
nodes = (
(352,1086,o),
(334,1079,o),
(317,1065,cs),
(300,1051,o),
(290,1034,o),
(287,1013,cs),
(283,992,o),
(287,974,o),
(299,960,cs),
(312,946,o),
(328,939,o),
(349,939,cs),
(370,939,o),
(388,946,o),
(404,960,cs),
(421,974,o),
(431,992,o),
(435,1013,cs),
(438,1033,o),
(434,1050,o),
(421,1064,c),
(410,1079,o),
(394,1086,o),
(373,1086,cs)
);
},
{
closed = 1;
nodes = (
(332,720,l),
(280,720,l),
(198,280,l),
(92,-360,l),
(176,-360,l),
(282,280,l)
);
}
);
width = 523;
}
);
unicode = 161;
},
{
glyphname = cent;
layers = (
{
layerId = "52B6FC9B-A007-47B3-A216-6773BDC6150A";
shapes = (
{
closed = 1;
nodes = (
(429,-58,l),
(635,-58,l),
(666,130,l),
(858,166,o),
(1005,285,o),
(1088,478,c),
(826,536,l),
(777,432,o),
(711,374,o),
(591,374,cs),
(510,374,o),
(455,402,o),
(424,462,cs),
(392,521,o),
(384,595,o),
(400,690,cs),
(420,811,o),
(470,909,o),
(551,965,cs),
(591,992,o),
(640,1006,o),
(696,1006,cs),
(745,1006,o),
(785,990,o),
(820,959,c),
(853,928,o),
(873,884,o),
(880,828,c),
(1158,900,l),
(1154,995,o),
(1124,1071,o),
(1071,1132,cs),
(1018,1193,o),
(944,1231,o),
(852,1250,c),
(883,1440,l),
(677,1440,l),
(646,1252,l),
(461,1224,o),
(312,1117,o),
(215,957,cs),
(167,877,o),
(134,789,o),
(118,690,cs),
(86,493,o),
(129,329,o),
(242,225,cs),
(298,173,o),
(371,141,o),
(460,126,c)
);
}
);
width = 1132;
},
{
layerId = "8674DFB1-DD33-4B55-AF75-50F2BA2F7F30";
shapes = (
{
closed = 1;
nodes = (
(434,-59,l),
(574,-59,l),
(605,126,l),
(788,149,o),
(932,252,o),
(1029,428,c),
(867,474,l),
(798,350,o),
(694,283,o),
(554,283,cs),
(446,283,o),
(374,320,o),
(331,395,cs),
(288,471,o),
(277,567,o),
(297,690,cs),
(324,850,o),
(390,974,o),
(498,1045,cs),
(551,1080,o),
(614,1097,o),
(689,1097,cs),
(754,1097,o),
(808,1080,o),
(855,1044,cs),
(899,1009,o),
(927,961,o),
(940,897,c),
(1115,949,l),
(1104,1034,o),
(1069,1102,o),
(1012,1157,c),
(955,1210,o),
(881,1242,o),
(792,1254,c),
(822,1440,l),
(682,1440,l),
(652,1255,l),
(461,1236,o),
(314,1133,o),
(218,970,cs),
(170,887,o),
(137,795,o),
(118,690,c),
(86,482,o),
(126,317,o),
(241,214,cs),
(297,163,o),
(372,135,o),
(465,124,c)
);
}
);
width = 1086;
},
{
layerId = "3BB79724-DEC0-46E7-8764-1315E4CC4648";
shapes = (
{
closed = 1;
nodes = (
(439,-60,l),
(521,-60,l),
(551,122,l),
(726,134,o),
(868,223,o),
(977,384,c),
(902,420,l),
(815,279,o),
(678,204,o),
(522,204,cs),
(391,204,o),
(302,248,o),
(250,337,cs),
(198,426,o),
(185,542,o),
(206,690,c),
(241,883,o),
(321,1032,o),
(452,1115,cs),
(517,1156,o),
(592,1176,o),
(683,1176,cs),
(762,1176,o),
(829,1158,o),
(885,1119,cs),
(940,1080,o),
(974,1027,o),
(993,958,c),
(1077,992,l),
(1061,1069,o),
(1021,1131,o),
(961,1178,cs),
(900,1225,o),
(827,1251,o),
(739,1258,c),
(769,1440,l),
(687,1440,l),
(657,1258,l),
(461,1246,o),
(316,1148,o),
(220,981,cs),
(172,897,o),
(139,802,o),
(118,690,c),
(86,473,o),
(125,305,o),
(240,205,cs),
(297,156,o),
(372,129,o),
(469,122,c)
);
}
);
width = 1045;
}
);
leftKerningGroup = xi;
rightKerningGroup = c;
unicode = 162;
},
{
glyphname = sterling;
layers = (
{
layerId = "52B6FC9B-A007-47B3-A216-6773BDC6150A";
shapes = (
{
closed = 1;
nodes = (
(403,188,l),
(436,217,o),
(463,253,o),
(482,292,cs),
(501,331,o),
(512,372,o),
(519,412,cs),
(536,515,o),
(524,611,o),
(510,707,cs),
(496,803,o),
(483,901,o),
(500,1002,cs),
(513,1082,o),
(550,1135,o),
(602,1168,cs),
(653,1200,o),
(719,1214,o),
(788,1214,cs),
(855,1214,o),
(912,1193,o),
(953,1155,cs),
(993,1117,o),
(1019,1063,o),
(1022,996,c),
(1319,1046,l),
(1307,1186,o),
(1256,1293,o),
(1172,1363,cs),
(1088,1433,o),
(974,1468,o),
(834,1468,cs),
(682,1468,o),
(542,1435,o),
(434,1360,cs),
(325,1285,o),
(247,1167,o),
(219,999,cs),
(202,895,o),
(216,798,o),
(230,703,cs),
(244,608,o),
(257,517,o),
(242,429,cs),
(230,358,o),
(200,299,o),
(137,254,c)
);
},
{
closed = 1;
nodes = (
(4,0,l),
(1091,0,l),
(1133,254,l),
(46,254,l)
);
},
{
closed = 1;
nodes = (
(100,580,l),
(974,580,l),
(1016,834,l),
(142,834,l)
);
}
);
width = 1287;
},
{
layerId = "8674DFB1-DD33-4B55-AF75-50F2BA2F7F30";
shapes = (
{
closed = 1;
nodes = (
(312,126,l),
(351,155,o),
(379,194,o),
(400,235,cs),
(420,276,o),
(433,321,o),
(440,364,cs),
(459,481,o),
(443,591,o),
(427,701,cs),
(410,811,o),
(394,919,o),
(414,1034,cs),
(429,1129,o),
(477,1197,o),
(541,1241,cs),
(605,1285,o),
(687,1305,o),
(772,1305,cs),
(861,1305,o),
(939,1279,o),
(995,1230,cs),
(1051,1181,o),
(1085,1109,o),
(1084,1016,c),
(1268,1048,l),
(1267,1183,o),
(1218,1289,o),
(1135,1360,cs),
(1052,1431,o),
(938,1469,o),
(807,1469,cs),
(668,1469,o),
(539,1437,o),
(437,1366,cs),
(335,1294,o),
(260,1184,o),
(235,1031,cs),
(215,914,o),
(233,805,o),
(250,697,cs),
(267,588,o),
(285,480,o),
(266,371,cs),
(251,283,o),
(211,212,o),
(128,163,c)
);
},
{
closed = 1;
nodes = (
(-6,0,l),
(1060,0,l),
(1087,163,l),
(21,163,l)
);
},
{
closed = 1;
nodes = (
(105,628,l),
(945,628,l),
(972,791,l),
(132,791,l)
);
}
);
width = 1226;
},
{
layerId = "3BB79724-DEC0-46E7-8764-1315E4CC4648";
shapes = (
{
closed = 1;
nodes = (
(233,71,l),
(276,102,o),
(306,141,o),
(328,185,cs),
(350,228,o),
(363,277,o),
(370,322,cs),
(391,451,o),
(374,574,o),
(355,695,cs),
(335,816,o),
(317,937,o),
(338,1062,cs),
(355,1170,o),
(412,1251,o),
(488,1305,cs),
(564,1359,o),
(659,1385,o),
(758,1385,cs),
(866,1385,o),
(964,1355,o),
(1033,1296,cs),
(1102,1237,o),
(1143,1150,o),
(1139,1034,c),
(1224,1050,l),
(1231,1181,o),
(1183,1286,o),
(1102,1358,cs),
(1021,1430,o),
(907,1470,o),
(784,1470,cs),
(657,1470,o),
(535,1438,o),
(439,1370,cs),
(343,1302,o),
(272,1199,o),
(249,1059,cs),
(228,931,o),
(248,811,o),
(268,691,cs),
(288,570,o),
(308,449,o),
(287,321,cs),
(270,217,o),
(221,136,o),
(120,84,c)
);
},
{
closed = 1;
nodes = (
(-14,0,l),
(1033,0,l),
(1047,84,l),
(0,84,l)
);
},
{
closed = 1;
nodes = (
(110,670,l),
(920,670,l),
(934,754,l),
(124,754,l)
);
}
);
width = 1173;
}
);
unicode = 163;
},
{
glyphname = currency;
layers = (
{
layerId = "52B6FC9B-A007-47B3-A216-6773BDC6150A";
shapes = (
{
closed = 1;
nodes = (
(769,196,o),
(904,254,o),
(1016,351,cs),
(1125,447,o),
(1204,577,o),
(1228,722,cs),
(1252,867,o),
(1218,996,o),
(1139,1092,cs),
(1059,1188,o),
(942,1246,o),
(799,1246,cs),
(658,1246,o),
(520,1188,o),
(411,1092,cs),
(302,996,o),
(223,867,o),
(199,722,cs),
(175,577,o),
(210,447,o),
(289,351,c),
(366,254,o),
(483,196,o),
(626,196,cs)
);
},
{
closed = 1;
nodes = (
(179,100,l),
(471,354,l),
(323,534,l),
(32,280,l)
);
},
{
closed = 1;
nodes = (
(384,904,l),
(591,1086,l),
(384,1340,l),
(177,1158,l)
);
},
{
closed = 1;
nodes = (
(1041,100,l),
(1247,280,l),
(1040,534,l),
(834,354,l)
);
},
{
closed = 1;
nodes = (
(608,424,o),
(564,438,o),
(524,465,cs),
(484,492,o),
(456,528,o),
(437,573,cs),
(418,618,o),
(413,667,o),
(422,720,cs),
(431,776,o),
(453,824,o),
(486,869,cs),
(519,914,o),
(560,949,o),
(609,976,cs),
(657,1003,o),
(706,1016,o),
(761,1016,cs),
(814,1016,o),
(860,1003,o),
(900,976,cs),
(940,949,o),
(969,914,o),
(988,869,cs),
(1007,824,o),
(1011,776,o),
(1002,720,cs),
(994,667,o),
(972,618,o),
(939,573,cs),
(906,528,o),
(865,492,o),
(816,465,cs),
(768,438,o),
(718,424,o),
(663,424,cs)
);
},
{
closed = 1;
nodes = (
(1104,906,l),
(1393,1158,l),
(1246,1340,l),
(955,1086,l)
);
}
);
width = 1324;
},
{
layerId = "8674DFB1-DD33-4B55-AF75-50F2BA2F7F30";
shapes = (
{
closed = 1;
nodes = (
(739,196,o),
(874,254,o),
(986,351,cs),
(1095,447,o),
(1174,577,o),
(1198,722,cs),
(1222,867,o),
(1188,996,o),
(1109,1092,cs),
(1029,1188,o),
(912,1246,o),
(769,1246,cs),
(628,1246,o),
(490,1188,o),
(381,1092,cs),
(272,996,o),
(193,867,o),
(169,722,cs),
(145,577,o),
(180,447,o),
(259,351,c),
(336,254,o),
(453,196,o),
(596,196,cs)
);
},
{
closed = 1;
nodes = (
(121,132,l),
(375,353,l),
(280,469,l),
(27,248,l)
);
},
{
closed = 1;
nodes = (
(364,970,l),
(496,1087,l),
(316,1308,l),
(183,1192,l)
);
},
{
closed = 1;
nodes = (
(1048,132,l),
(1181,248,l),
(1001,469,l),
(868,353,l)
);
},
{
closed = 1;
nodes = (
(552,347,o),
(496,364,o),
(445,399,c),
(394,432,o),
(358,478,o),
(335,535,cs),
(312,592,o),
(305,652,o),
(316,720,cs),
(328,789,o),
(356,851,o),
(397,908,cs),
(438,967,o),
(490,1009,o),
(551,1044,c),
(614,1077,o),
(676,1094,o),
(744,1094,cs),
(811,1094,o),
(868,1077,o),
(919,1044,c),
(970,1009,o),
(1005,967,o),
(1030,908,cs),
(1054,851,o),
(1060,789,o),
(1048,720,cs),
(1037,652,o),
(1010,592,o),
(969,535,c),
(926,478,o),
(876,432,o),
(813,399,c),
(752,364,o),
(688,347,o),
(620,347,cs)
);
},
{
closed = 1;
nodes = (
(1084,971,l),
(1338,1192,l),
(1243,1308,l),
(990,1087,l)
);
}
);
width = 1263;
},
{
layerId = "3BB79724-DEC0-46E7-8764-1315E4CC4648";
shapes = (
{
closed = 1;
nodes = (
(712,196,o),
(847,254,o),
(959,351,cs),
(1070,447,o),
(1147,577,o),
(1171,722,cs),
(1195,867,o),
(1161,996,o),
(1082,1092,cs),
(1002,1188,o),
(886,1246,o),
(743,1246,cs),
(600,1246,o),
(464,1188,o),
(355,1092,cs),
(244,996,o),
(166,867,o),
(142,722,cs),
(118,577,o),
(153,447,o),
(232,351,c),
(309,254,o),
(426,196,o),
(569,196,cs)
);
},
{
closed = 1;
nodes = (
(71,160,l),
(291,352,l),
(242,412,l),
(22,220,l)
);
},
{
closed = 1;
nodes = (
(346,1028,l),
(413,1088,l),
(256,1280,l),
(188,1222,l)
);
},
{
closed = 1;
nodes = (
(1055,160,l),
(1124,220,l),
(967,412,l),
(898,352,l)
);
},
{
closed = 1;
nodes = (
(503,280,o),
(435,300,o),
(375,341,cs),
(315,381,o),
(273,433,o),
(246,501,cs),
(219,569,o),
(211,640,o),
(224,720,cs),
(237,801,o),
(270,875,o),
(319,943,cs),
(368,1011,o),
(428,1063,o),
(501,1103,cs),
(574,1142,o),
(649,1162,o),
(729,1162,cs),
(808,1162,o),
(875,1142,o),
(935,1103,cs),
(995,1063,o),
(1037,1011,o),
(1066,943,cs),
(1095,875,o),
(1102,801,o),
(1089,720,cs),
(1076,640,o),
(1044,569,o),
(995,501,c),
(944,433,o),
(884,381,o),
(811,341,cs),
(738,300,o),
(663,280,o),
(583,280,cs)
);
},
{
closed = 1;
nodes = (
(1067,1028,l),
(1289,1222,l),
(1240,1280,l),
(1020,1088,l)
);
}
);
width = 1210;
}
);
leftKerningGroup = G2;
rightKerningGroup = O;
unicode = 164;
},
{
glyphname = yen;
layers = (
{
layerId = "52B6FC9B-A007-47B3-A216-6773BDC6150A";
shapes = (
{
closed = 1;
nodes = (
(224,526,l),
(1047,526,l),
(1082,736,l),
(259,736,l)
);
},
{
closed = 1;
nodes = (
(168,188,l),
(991,188,l),
(1026,398,l),
(203,398,l)
);
},
{
closed = 1;
nodes = (
(413,0,l),
(684,0,l),
(781,586,l),
(1404,1440,l),
(1093,1440,l),
(697,898,l),
(481,1440,l),
(169,1440,l),
(510,586,l)
);
}
);
width = 1234;
},
{
layerId = "8674DFB1-DD33-4B55-AF75-50F2BA2F7F30";
shapes = (
{
closed = 1;
nodes = (
(197,519,l),
(957,519,l),
(981,661,l),
(220,661,l)
);
},
{
closed = 1;
nodes = (
(147,218,l),
(907,218,l),
(931,361,l),
(170,361,l)
);
},
{
closed = 1;
nodes = (
(406,0,l),
(576,0,l),
(675,600,l),
(1288,1440,l),
(1093,1440,l),
(623,797,l),
(365,1440,l),
(169,1440,l),
(505,600,l)
);
}
);
width = 1118;
},
{
layerId = "3BB79724-DEC0-46E7-8764-1315E4CC4648";
shapes = (
{
closed = 1;
nodes = (
(173,512,l),
(878,512,l),
(892,596,l),
(186,596,l)
);
},
{
closed = 1;
nodes = (
(128,244,l),
(834,244,l),
(848,328,l),
(142,328,l)
);
},
{
closed = 1;
nodes = (
(399,0,l),
(482,0,l),
(583,612,l),
(1187,1440,l),
(1093,1440,l),
(558,708,l),
(263,1440,l),
(169,1440,l),
(501,612,l)
);
}
);
width = 1017;
}
);
leftKerningGroup = Y2;
rightKerningGroup = Y;
unicode = 165;
},
{
glyphname = brokenbar;
layers = (
{
layerId = "52B6FC9B-A007-47B3-A216-6773BDC6150A";
shapes = (
{
closed = 1;
nodes = (
(194,600,l),
(461,600,l),
(600,1440,l),
(333,1440,l)
);
},
{
closed = 1;
nodes = (
(22,-440,l),
(289,-440,l),
(428,400,l),
(161,400,l)
);
}
);
width = 594;
},
{
layerId = "8674DFB1-DD33-4B55-AF75-50F2BA2F7F30";
shapes = (
{
closed = 1;
nodes = (
(207,681,l),
(376,681,l),
(502,1440,l),
(333,1440,l)
);
},
{
closed = 1;
nodes = (
(39,-338,l),
(207,-338,l),
(333,421,l),
(165,421,l)
);
}
);
width = 495;
},
{
layerId = "3BB79724-DEC0-46E7-8764-1315E4CC4648";
shapes = (
{
closed = 1;
nodes = (
(219,752,l),
(302,752,l),
(416,1440,l),
(333,1440,l)
);
},
{
closed = 1;
nodes = (
(54,-248,l),
(136,-248,l),
(250,440,l),
(168,440,l)
);
}
);
width = 409;
}
);
unicode = 166;
},
{
glyphname = section;
layers = (
{
layerId = "52B6FC9B-A007-47B3-A216-6773BDC6150A";
shapes = (
{
closed = 1;
nodes = (
(683,-270,o),
(919,-121,o),
(919,154,cs),
(919,449,o),
(373,392,o),
(373,536,cs),
(373,620,o),
(472,654,o),
(538,676,c),
(531,790,l),
(519,790,o),
(506,790,o),
(493,789,cs),
(307,777,o),
(99,679,o),
(99,466,cs),
(99,182,o),
(639,232,o),
(639,89,cs),
(639,4,o),
(560,-36,o),
(485,-36,cs),
(385,-36,o),
(320,26,o),
(316,126,c),
(36,84,l),
(36,-161,o),
(199,-270,o),
(428,-270,cs)
);
},
{
closed = 1;
nodes = (
(567,274,l),
(585,273,o),
(604,272,o),
(622,272,cs),
(838,272,o),
(1015,386,o),
(1015,617,cs),
(1015,906,o),
(468,854,o),
(468,993,cs),
(468,1070,o),
(543,1098,o),
(608,1098,cs),
(701,1098,o),
(736,1050,o),
(736,960,c),
(1017,1010,l),
(1017,1220,o),
(846,1330,o),
(654,1330,cs),
(422,1330,o),
(196,1181,o),
(196,931,cs),
(196,633,o),
(735,695,o),
(735,549,cs),
(735,466,o),
(649,405,o),
(578,384,c)
);
}
);
width = 1059;
},
{
layerId = "8674DFB1-DD33-4B55-AF75-50F2BA2F7F30";
shapes = (
{
closed = 1;
nodes = (
(651,-301,o),
(874,-162,o),
(874,95,cs),
(874,398,o),
(273,320,o),
(273,514,cs),
(273,638,o),
(422,698,o),
(522,724,c),
(524,786,l),
(507,787,o),
(489,788,o),
(472,788,c),
(290,782,o),
(98,672,o),
(98,471,cs),
(98,183,o),
(696,250,o),
(696,56,cs),
(696,-77,o),
(568,-147,o),
(449,-147,cs),
(329,-147,o),
(222,-80,o),
(213,46,c),
(36,18,l),
(41,-205,o),
(208,-301,o),
(414,-301,cs)
);
},
{
closed = 1;
nodes = (
(566,252,l),
(590,245,o),
(616,242,o),
(642,242,cs),
(837,242,o),
(984,381,o),
(984,578,cs),
(984,878,o),
(382,802,o),
(382,994,cs),
(382,1112,o),
(510,1166,o),
(611,1166,cs),
(735,1166,o),
(820,1100,o),
(820,972,c),
(997,1004,l),
(1003,1210,o),
(833,1319,o),
(645,1319,cs),
(434,1319,o),
(208,1186,o),
(208,954,cs),
(208,661,o),
(805,732,o),
(805,537,cs),
(805,415,o),
(687,326,o),
(574,316,c)
);
}
);
width = 1025;
},
{
layerId = "3BB79724-DEC0-46E7-8764-1315E4CC4648";
shapes = (
{
closed = 1;
nodes = (
(623,-328,o),
(835,-197,o),
(835,44,cs),
(835,354,o),
(185,257,o),
(185,495,cs),
(185,653,o),
(378,736,o),
(508,766,c),
(517,782,l),
(496,785,o),
(475,787,o),
(453,787,cs),
(275,787,o),
(97,666,o),
(97,475,cs),
(97,184,o),
(745,266,o),
(745,27,cs),
(745,-148,o),
(575,-244,o),
(417,-244,cs),
(280,-244,o),
(137,-173,o),
(122,-24,c),
(36,-40,l),
(46,-244,o),
(216,-328,o),
(401,-328,cs)
);
},
{
closed = 1;
nodes = (
(565,232,l),
(595,221,o),
(627,215,o),
(660,215,cs),
(837,215,o),
(957,376,o),
(957,544,cs),
(957,854,o),
(307,757,o),
(307,995,cs),
(307,1148,o),
(482,1226,o),
(614,1226,cs),
(765,1226,o),
(893,1144,o),
(893,982,c),
(980,998,l),
(991,1201,o),
(822,1310,o),
(637,1310,cs),
(445,1310,o),
(219,1191,o),
(219,975,cs),
(219,685,o),
(867,765,o),
(867,527,cs),
(867,370,o),
(720,256,o),
(571,256,c)
);
}
);
width = 996;
}
);
unicode = 167;
},
{
glyphname = dieresis;
layers = (
{
layerId = "52B6FC9B-A007-47B3-A216-6773BDC6150A";
shapes = (
{
closed = 1;
nodes = (
(593,1193,o),
(675,1280,o),
(675,1381,cs),
(675,1460,o),
(620,1509,o),
(543,1509,cs),
(443,1509,o),
(359,1423,o),
(359,1324,cs),
(359,1245,o),
(415,1193,o),
(492,1193,cs)
);
},
{
closed = 1;
nodes = (
(1013,1193,o),
(1094,1281,o),
(1094,1384,cs),
(1094,1461,o),
(1037,1509,o),
(962,1509,cs),
(859,1509,o),
(777,1423,o),
(777,1321,cs),
(777,1245,o),
(835,1193,o),
(909,1193,cs)
);
}
);
width = 1144;
},
{
layerId = "8674DFB1-DD33-4B55-AF75-50F2BA2F7F30";
shapes = (
{
closed = 1;
nodes = (
(602,1252,o),
(661,1314,o),
(661,1386,cs),
(661,1442,o),
(621,1478,o),
(566,1478,cs),
(495,1478,o),
(435,1416,o),
(435,1344,cs),
(435,1289,o),
(476,1252,o),
(529,1252,cs)
);
},
{
closed = 1;
nodes = (
(954,1252,o),
(1012,1314,o),
(1012,1388,cs),
(1012,1443,o),
(971,1478,o),
(918,1478,cs),
(845,1478,o),
(786,1416,o),
(786,1343,cs),
(786,1289,o),
(828,1252,o),
(880,1252,cs)
);
}
);
width = 1133;
},
{
layerId = "3BB79724-DEC0-46E7-8764-1315E4CC4648";
shapes = (
{
closed = 1;
nodes = (
(610,1303,o),
(649,1343,o),
(649,1391,cs),
(649,1427,o),
(621,1450,o),
(587,1450,cs),
(540,1450,o),
(501,1409,o),
(501,1362,cs),
(501,1328,o),
(529,1303,o),
(562,1303,cs)
);
},
{
closed = 1;
nodes = (
(902,1303,o),
(941,1343,o),
(941,1391,cs),
(941,1427,o),
(913,1450,o),
(879,1450,cs),
(832,1450,o),
(793,1409,o),
(793,1362,cs),
(793,1328,o),
(821,1303,o),
(854,1303,cs)
);
}
);
width = 1123;
}
);
unicode = 168;
},
{
glyphname = copyright;
layers = (
{
layerId = "52B6FC9B-A007-47B3-A216-6773BDC6150A";
shapes = (
{
closed = 1;
nodes = (
(1324,-140,o),
(1790,338,o),
(1790,860,cs),
(1790,1269,o),
(1490,1568,o),
(1082,1568,cs),
(557,1568,o),
(91,1088,o),
(91,566,cs),
(91,160,o),
(394,-140,o),
(799,-140,cs)
);
},
{
closed = 1;
nodes = (
(1072,286,o),
(1218,387,o),
(1291,556,c),
(1094,598,l),
(1055,523,o),
(1010,478,o),
(921,478,cs),
(812,478,o),
(768,550,o),
(768,651,cs),
(768,786,o),
(839,952,o),
(996,952,cs),
(1074,952,o),
(1128,894,o),
(1134,818,c),
(1343,872,l),
(1336,1045,o),
(1204,1142,o),
(1039,1142,cs),
(756,1142,o),
(554,902,o),
(554,627,cs),
(554,418,o),
(679,286,o),
(888,286,cs)
);
},
{
closed = 1;
nodes = (
(558,114,o),
(344,325,o),
(344,609,cs),
(344,976,o),
(670,1314,o),
(1040,1314,cs),
(1325,1314,o),
(1538,1107,o),
(1538,820,cs),
(1538,452,o),
(1212,114,o),
(841,114,cs)
);
}
);
width = 1783;
},
{
layerId = "8674DFB1-DD33-4B55-AF75-50F2BA2F7F30";
shapes = (
{
closed = 1;
nodes = (
(1194,-71,o),
(1612,358,o),
(1612,826,cs),
(1612,1193,o),
(1343,1460,o),
(977,1460,cs),
(508,1460,o),
(89,1031,o),
(89,564,cs),
(89,199,o),
(359,-71,o),
(724,-71,cs)
);
},
{
closed = 1;
nodes = (
(958,272,o),
(1094,360,o),
(1169,508,c),
(1036,544,l),
(986,456,o),
(918,405,o),
(814,405,cs),
(680,405,o),
(625,495,o),
(625,619,cs),
(625,789,o),
(714,987,o),
(910,987,cs),
(1002,987,o),
(1070,932,o),
(1088,841,c),
(1231,882,l),
(1215,1039,o),
(1087,1120,o),
(938,1120,cs),
(649,1120,o),
(476,867,o),
(476,597,cs),
(476,399,o),
(592,272,o),
(791,272,cs)
);
},
{
closed = 1;
nodes = (
(467,95,o),
(253,305,o),
(253,591,cs),
(253,958,o),
(580,1295,o),
(950,1295,cs),
(1233,1295,o),
(1447,1088,o),
(1447,802,cs),
(1447,434,o),
(1122,95,o),
(751,95,cs)
);
}
);
width = 1609;
},
{
layerId = "3BB79724-DEC0-46E7-8764-1315E4CC4648";
shapes = (
{
closed = 1;
nodes = (
(1081,-10,o),
(1456,376,o),
(1456,797,cs),
(1456,1126,o),
(1214,1366,o),
(886,1366,cs),
(466,1366,o),
(88,982,o),
(88,563,cs),
(88,234,o),
(328,-10,o),
(658,-10,cs)
);
},
{
closed = 1;
nodes = (
(859,260,o),
(985,336,o),
(1062,466,c),
(985,496,l),
(925,398,o),
(837,342,o),
(720,342,cs),
(564,342,o),
(499,447,o),
(499,591,cs),
(499,791,o),
(605,1018,o),
(834,1018,cs),
(939,1018,o),
(1020,966,o),
(1048,862,c),
(1133,890,l),
(1110,1034,o),
(985,1100,o),
(850,1100,cs),
(556,1100,o),
(407,836,o),
(407,570,cs),
(407,382,o),
(515,260,o),
(707,260,cs)
);
},
{
closed = 1;
nodes = (
(387,78,o),
(173,288,o),
(173,575,cs),
(173,943,o),
(502,1278,o),
(871,1278,cs),
(1153,1278,o),
(1367,1071,o),
(1367,786,cs),
(1367,419,o),
(1044,78,o),
(673,78,cs)
);
}
);
width = 1457;
}
);
unicode = 169;
},
{
glyphname = ordfeminine;
layers = (
{
hints = (
{
horizontal = 1;
place = (560,138);
type = Stem;
},
{
horizontal = 1;
place = (788,147);
type = Stem;
},
{
horizontal = 1;
place = (1304,168);
type = Stem;
},
{
place = (477,146);
type = Stem;
}
);
layerId = "52B6FC9B-A007-47B3-A216-6773BDC6150A";
shapes = (
{
closed = 1;
nodes = (
(480,710,o),
(557,751,o),
(616,833,c),
(599,730,l),
(791,730,l),
(861,1150,ls),
(897,1368,o),
(813,1470,o),
(601,1470,cs),
(440,1470,o),
(318,1393,o),
(254,1252,c),
(420,1211,l),
(449,1267,o),
(495,1291,o),
(570,1291,cs),
(630,1291,o),
(665,1273,o),
(675,1234,cs),
(678,1223,o),
(678,1211,o),
(677,1198,c),
(503,1177,ls),
(308,1153,o),
(197,1071,o),
(174,931,cs),
(152,799,o),
(234,710,o),
(376,710,cs)
);
},
{
closed = 1;
nodes = (
(388,878,o),
(357,902,o),
(365,950,cs),
(373,998,o),
(419,1025,o),
(504,1035,cs),
(653,1053,l),
(649,1035,o),
(646,1017,o),
(642,999,c),
(617,920,o),
(536,878,o),
(456,878,cs)
);
},
{
closed = 1;
nodes = (
(112,480,l),
(776,480,l),
(799,618,l),
(135,618,l)
);
}
);
width = 732;
},
{
layerId = "8674DFB1-DD33-4B55-AF75-50F2BA2F7F30";
shapes = (
{
closed = 1;
nodes = (
(521,710,o),
(613,760,o),
(678,854,c),
(658,730,l),
(779,730,l),
(851,1167,ls),
(885,1371,o),
(806,1470,o),
(611,1470,cs),
(454,1470,o),
(339,1395,o),
(280,1257,c),
(390,1233,l),
(426,1314,o),
(491,1353,o),
(590,1353,cs),
(676,1353,o),
(723,1324,o),
(734,1262,cs),
(738,1240,o),
(737,1214,o),
(733,1184,c),
(529,1158,ls),
(345,1135,o),
(221,1073,o),
(196,922,cs),
(174,792,o),
(255,710,o),
(405,710,cs)
);
},
{
closed = 1;
nodes = (
(351,822,o),
(306,859,o),
(318,931,cs),
(330,1005,o),
(391,1043,o),
(524,1058,cs),
(716,1082,l),
(711,1055,o),
(707,1026,o),
(699,1000,cs),
(663,887,o),
(566,822,o),
(451,822,cs)
);
},
{
closed = 1;
nodes = (
(132,501,l),
(764,501,l),
(781,606,l),
(150,606,l)
);
}
);
width = 725;
},
{
guides = (
{
position = "{0, 1440}";
}
);
hints = (
{
horizontal = 1;
place = (593,75);
type = Stem;
},
{
horizontal = 1;
place = (790,67);
type = Stem;
},
{
horizontal = 1;
place = (1403,71);
type = Stem;
},
{
place = (81,625);
type = Stem;
}
);
layerId = "3BB79724-DEC0-46E7-8764-1315E4CC4648";
shapes = (
{
closed = 1;
nodes = (
(556,710,o),
(662,768,o),
(732,873,c),
(709,730,l),
(768,730,l),
(842,1181,ls),
(874,1373,o),
(799,1470,o),
(620,1470,cs),
(467,1470,o),
(357,1397,o),
(303,1262,c),
(363,1252,l),
(406,1356,o),
(487,1407,o),
(608,1407,cs),
(716,1407,o),
(773,1369,o),
(786,1286,cs),
(791,1254,o),
(789,1216,o),
(782,1171,c),
(552,1142,ls),
(378,1120,o),
(242,1074,o),
(216,915,cs),
(194,785,o),
(274,710,o),
(430,710,cs)
);
},
{
closed = 1;
nodes = (
(318,773,o),
(262,822,o),
(277,915,cs),
(293,1012,o),
(366,1058,o),
(541,1079,cs),
(771,1107,l),
(766,1072,o),
(760,1034,o),
(749,1001,cs),
(704,858,o),
(592,773,o),
(447,773,cs)
);
},
{
closed = 1;
nodes = (
(150,520,l),
(753,520,l),
(766,595,l),
(163,595,l)
);
}
);
width = 719;
}
);
unicode = 170;
},
{
glyphname = guillemotleft;
layers = (
{
layerId = "52B6FC9B-A007-47B3-A216-6773BDC6150A";
shapes = (
{
closed = 1;
nodes = (
(860,94,l),
(1018,206,l),
(813,540,l),
(1129,874,l),
(1008,986,l),
(587,540,l)
);
},
{
closed = 1;
nodes = (
(439,94,l),
(597,206,l),
(391,540,l),
(707,874,l),
(587,986,l),
(166,540,l)
);
}
);
width = 1162;
},
{
layerId = "8674DFB1-DD33-4B55-AF75-50F2BA2F7F30";
shapes = (
{
closed = 1;
nodes = (
(787,104,l),
(898,181,l),
(677,541,l),
(1017,900,l),
(932,977,l),
(519,541,l)
);
},
{
closed = 1;
nodes = (
(434,104,l),
(545,181,l),
(323,541,l),
(663,900,l),
(579,977,l),
(166,541,l)
);
}
);
width = 1055;
},
{
layerId = "3BB79724-DEC0-46E7-8764-1315E4CC4648";
shapes = (
{
closed = 1;
nodes = (
(724,112,l),
(793,160,l),
(558,542,l),
(919,922,l),
(866,970,l),
(460,542,l)
);
},
{
closed = 1;
nodes = (
(430,112,l),
(499,160,l),
(264,542,l),
(625,922,l),
(572,970,l),
(166,542,l)
);
}
);
width = 962;
}
);
unicode = 171;
},
{
glyphname = logicalnot;
layers = (
{
layerId = "52B6FC9B-A007-47B3-A216-6773BDC6150A";
shapes = (
{
closed = 1;
nodes = (
(836,366,l),
(1042,366,l),
(1114,806,l),
(174,806,l),
(139,596,l),
(874,596,l)
);
}
);
width = 1159;
},
{
layerId = "8674DFB1-DD33-4B55-AF75-50F2BA2F7F30";
shapes = (
{
closed = 1;
nodes = (
(905,385,l),
(1045,385,l),
(1109,772,l),
(168,772,l),
(144,629,l),
(945,629,l)
);
}
);
width = 1159;
},
{
layerId = "3BB79724-DEC0-46E7-8764-1315E4CC4648";
shapes = (
{
closed = 1;
nodes = (
(965,402,l),
(1048,402,l),
(1104,742,l),
(163,742,l),
(149,658,l),
(1008,658,l)
);
}
);
width = 1159;
}
);
unicode = 172;
},
{
glyphname = registered;
layers = (
{
layerId = "52B6FC9B-A007-47B3-A216-6773BDC6150A";
shapes = (
{
closed = 1;
nodes = (
(804,536,o),
(939,594,o),
(1051,691,cs),
(1160,787,o),
(1239,917,o),
(1263,1062,cs),
(1287,1207,o),
(1253,1336,o),
(1174,1432,cs),
(1094,1528,o),
(977,1586,o),
(834,1586,cs),
(693,1586,o),
(555,1528,o),
(446,1432,cs),
(337,1336,o),
(258,1207,o),
(234,1062,cs),
(210,917,o),
(245,787,o),
(324,691,c),
(401,594,o),
(518,536,o),
(661,536,cs)
);
},
{
closed = 1;
nodes = (
(628,712,o),
(574,728,o),
(527,760,cs),
(480,792,o),
(445,835,o),
(424,888,cs),
(403,941,o),
(396,998,o),
(407,1062,cs),
(418,1127,o),
(443,1186,o),
(482,1239,cs),
(521,1292,o),
(570,1334,o),
(627,1365,cs),
(684,1396,o),
(744,1412,o),
(808,1412,cs),
(871,1412,o),
(924,1396,o),
(971,1365,cs),
(1019,1334,o),
(1052,1292,o),
(1075,1239,cs),
(1098,1186,o),
(1104,1127,o),
(1093,1062,cs),
(1082,998,o),
(1057,941,o),
(1017,888,cs),
(977,835,o),
(928,792,o),
(871,760,cs),
(814,728,o),
(755,712,o),
(692,712,cs)
);
},
{
closed = 1;
nodes = (
(546,824,l),
(634,824,l),
(661,986,l),
(759,986,l),
(808,824,l),
(908,824,l),
(851,1002,l),
(912,1034,o),
(946,1085,o),
(955,1142,c),
(960,1190,o),
(953,1228,o),
(930,1257,cs),
(907,1286,o),
(869,1300,o),
(820,1300,cs),
(624,1300,l)
);
},
{
closed = 1;
nodes = (
(675,1070,l),
(698,1214,l),
(810,1214,ls),
(833,1214,o),
(850,1208,o),
(858,1196,cs),
(866,1183,o),
(869,1165,o),
(865,1142,cs),
(861,1121,o),
(853,1104,o),
(838,1091,cs),
(822,1076,o),
(806,1070,o),
(786,1070,cs)
);
}
);
width = 1283;
},
{
layerId = "8674DFB1-DD33-4B55-AF75-50F2BA2F7F30";
shapes = (
{
closed = 1;
nodes = (
(770,567,o),
(897,621,o),
(1001,712,cs),
(1105,803,o),
(1177,924,o),
(1200,1061,cs),
(1223,1198,o),
(1191,1318,o),
(1116,1409,cs),
(1043,1498,o),
(933,1553,o),
(798,1553,cs),
(665,1553,o),
(536,1498,o),
(433,1409,cs),
(329,1318,o),
(257,1198,o),
(234,1061,cs),
(211,924,o),
(245,803,o),
(318,712,cs),
(391,621,o),
(502,567,o),
(635,567,cs)
);
},
{
closed = 1;
nodes = (
(590,694,o),
(533,711,o),
(485,744,cs),
(436,777,o),
(400,821,o),
(377,877,cs),
(353,933,o),
(347,993,o),
(358,1061,cs),
(370,1129,o),
(397,1190,o),
(438,1245,cs),
(478,1301,o),
(530,1345,o),
(590,1378,cs),
(649,1410,o),
(711,1427,o),
(779,1427,cs),
(844,1427,o),
(902,1410,o),
(951,1378,cs),
(1000,1345,o),
(1035,1301,o),
(1059,1245,cs),
(1083,1190,o),
(1089,1129,o),
(1077,1061,cs),
(1065,993,o),
(1039,933,o),
(998,877,c),
(955,821,o),
(906,777,o),
(846,744,cs),
(786,711,o),
(724,694,o),
(657,694,cs)
);
},
{
closed = 1;
nodes = (
(518,829,l),
(597,829,l),
(624,992,l),
(733,992,l),
(783,829,l),
(872,829,l),
(816,1007,l),
(876,1035,o),
(913,1089,o),
(922,1144,c),
(927,1188,o),
(920,1224,o),
(896,1253,cs),
(872,1282,o),
(837,1297,o),
(793,1297,cs),
(596,1297,l)
);
},
{
closed = 1;
nodes = (
(637,1068,l),
(662,1220,l),
(782,1220,ls),
(802,1220,o),
(818,1213,o),
(830,1200,cs),
(841,1187,o),
(845,1168,o),
(841,1144,cs),
(838,1123,o),
(828,1105,o),
(811,1090,cs),
(794,1075,o),
(777,1068,o),
(757,1068,cs)
);
}
);
width = 1221;
},
{
layerId = "3BB79724-DEC0-46E7-8764-1315E4CC4648";
shapes = (
{
closed = 1;
nodes = (
(740,594,o),
(860,645,o),
(957,730,cs),
(1056,815,o),
(1124,931,o),
(1145,1060,cs),
(1166,1189,o),
(1135,1303,o),
(1066,1388,cs),
(997,1473,o),
(894,1524,o),
(767,1524,cs),
(640,1524,o),
(518,1473,o),
(421,1388,cs),
(324,1303,o),
(255,1189,o),
(234,1060,cs),
(213,931,o),
(244,815,o),
(313,730,cs),
(382,645,o),
(486,594,o),
(613,594,cs)
);
},
{
closed = 1;
nodes = (
(556,678,o),
(499,695,o),
(448,730,cs),
(396,765,o),
(359,809,o),
(335,868,cs),
(311,925,o),
(304,988,o),
(316,1060,cs),
(328,1131,o),
(355,1194,o),
(399,1251,cs),
(442,1308,o),
(494,1354,o),
(557,1389,cs),
(618,1424,o),
(682,1440,o),
(753,1440,cs),
(822,1440,o),
(881,1424,o),
(933,1389,cs),
(984,1354,o),
(1021,1308,o),
(1045,1251,cs),
(1069,1194,o),
(1075,1131,o),
(1063,1060,cs),
(1051,988,o),
(1025,925,o),
(981,868,cs),
(937,809,o),
(885,765,o),
(824,730,cs),
(761,695,o),
(696,678,o),
(627,678,cs)
);
},
{
closed = 1;
nodes = (
(494,834,l),
(565,834,l),
(592,998,l),
(710,998,l),
(761,834,l),
(841,834,l),
(785,1012,l),
(844,1036,o),
(885,1094,o),
(893,1146,cs),
(900,1186,o),
(891,1221,o),
(866,1250,cs),
(841,1279,o),
(807,1294,o),
(770,1294,cs),
(571,1294,l)
);
},
{
closed = 1;
nodes = (
(603,1066,l),
(630,1226,l),
(757,1226,ls),
(774,1226,o),
(790,1219,o),
(805,1204,c),
(818,1189,o),
(824,1170,o),
(820,1146,cs),
(817,1123,o),
(807,1105,o),
(788,1090,cs),
(769,1074,o),
(751,1066,o),
(731,1066,cs)
);
}
);
width = 1166;
}
);
unicode = 174;
},
{
glyphname = macron;
layers = (
{
layerId = "52B6FC9B-A007-47B3-A216-6773BDC6150A";
shapes = (
{
closed = 1;
nodes = (
(428,1680,l),
(961,1680,l),
(995,1888,l),
(462,1888,l)
);
}
);
width = 969;
},
{
layerId = "8674DFB1-DD33-4B55-AF75-50F2BA2F7F30";
shapes = (
{
closed = 1;
nodes = (
(428,1680,l),
(927,1680,l),
(951,1822,l),
(451,1822,l)
);
}
);
width = 936;
},
{
layerId = "3BB79724-DEC0-46E7-8764-1315E4CC4648";
shapes = (
{
closed = 1;
nodes = (
(428,1680,l),
(898,1680,l),
(912,1764,l),
(441,1764,l)
);
}
);
width = 907;
}
);
unicode = 175;
},
{
glyphname = degree;
layers = (
{
layerId = "52B6FC9B-A007-47B3-A216-6773BDC6150A";
shapes = (
{
closed = 1;
nodes = (
(594,750,o),
(714,820,o),
(797,929,cs),
(838,984,o),
(864,1042,o),
(875,1110,cs),
(898,1243,o),
(846,1357,o),
(751,1422,c),
(702,1454,o),
(647,1470,o),
(582,1470,cs),
(519,1470,o),
(459,1454,o),
(399,1421,cs),
(339,1388,o),
(289,1346,o),
(248,1290,cs),
(207,1234,o),
(180,1175,o),
(169,1110,cs),
(148,977,o),
(197,863,o),
(293,799,cs),
(342,766,o),
(398,750,o),
(463,750,cs)
);
},
{
closed = 1;
nodes = (
(456,980,o),
(419,1006,o),
(402,1046,c),
(393,1065,o),
(391,1087,o),
(395,1110,cs),
(403,1157,o),
(435,1198,o),
(478,1222,cs),
(498,1234,o),
(521,1240,o),
(544,1240,cs),
(589,1240,o),
(626,1214,o),
(643,1175,cs),
(651,1155,o),
(654,1133,o),
(650,1110,cs),
(642,1063,o),
(608,1022,o),
(567,998,cs),
(546,986,o),
(524,980,o),
(501,980,cs)
);
}
);
width = 869;
},
{
layerId = "8674DFB1-DD33-4B55-AF75-50F2BA2F7F30";
shapes = (
{
closed = 1;
nodes = (
(594,750,o),
(714,820,o),
(797,929,cs),
(838,984,o),
(864,1042,o),
(875,1110,cs),
(898,1243,o),
(846,1357,o),
(751,1422,c),
(702,1454,o),
(647,1470,o),
(582,1470,cs),
(519,1470,o),
(459,1454,o),
(399,1421,cs),
(339,1388,o),
(289,1346,o),
(248,1290,cs),
(207,1234,o),
(180,1175,o),
(169,1110,cs),
(148,977,o),
(197,863,o),
(293,799,cs),
(342,766,o),
(398,750,o),
(463,750,cs)
);
},
{
closed = 1;
nodes = (
(413,902,o),
(357,943,o),
(329,1007,cs),
(316,1038,o),
(312,1073,o),
(319,1110,c),
(331,1185,o),
(383,1251,o),
(451,1290,cs),
(484,1309,o),
(520,1318,o),
(557,1318,cs),
(630,1318,o),
(688,1277,o),
(716,1214,c),
(729,1182,o),
(733,1147,o),
(726,1110,c),
(714,1035,o),
(662,968,o),
(594,931,cs),
(559,911,o),
(524,902,o),
(488,902,cs)
);
}
);
width = 869;
},
{
layerId = "3BB79724-DEC0-46E7-8764-1315E4CC4648";
shapes = (
{
closed = 1;
nodes = (
(594,750,o),
(714,820,o),
(797,929,cs),
(838,984,o),
(864,1042,o),
(875,1110,cs),
(898,1243,o),
(846,1357,o),
(751,1422,c),
(702,1454,o),
(647,1470,o),
(582,1470,cs),
(519,1470,o),
(459,1454,o),
(399,1421,cs),
(339,1388,o),
(289,1346,o),
(248,1290,cs),
(207,1234,o),
(180,1175,o),
(169,1110,cs),
(148,977,o),
(197,863,o),
(293,799,cs),
(342,766,o),
(398,750,o),
(463,750,cs)
);
},
{
closed = 1;
nodes = (
(377,834,o),
(302,888,o),
(266,972,c),
(249,1015,o),
(244,1059,o),
(252,1110,cs),
(268,1210,o),
(336,1298,o),
(427,1349,cs),
(472,1374,o),
(519,1386,o),
(568,1386,cs),
(665,1386,o),
(743,1332,o),
(779,1248,cs),
(798,1205,o),
(801,1161,o),
(793,1110,cs),
(776,1010,o),
(709,923,o),
(618,872,c),
(571,847,o),
(525,834,o),
(476,834,cs)
);
}
);
width = 869;
}
);
unicode = 176;
},
{
glyphname = plusminus;
layers = (
{
layerId = "52B6FC9B-A007-47B3-A216-6773BDC6150A";
shapes = (
{
closed = 1;
nodes = (
(482,440,l),
(687,440,l),
(723,656,l),
(1090,656,l),
(1124,866,l),
(758,866,l),
(793,1080,l),
(587,1080,l),
(552,866,l),
(184,866,l),
(149,656,l),
(517,656,l)
);
},
{
closed = 1;
nodes = (
(60,120,l),
(1001,120,l),
(1036,330,l),
(95,330,l)
);
}
);
width = 1159;
},
{
layerId = "8674DFB1-DD33-4B55-AF75-50F2BA2F7F30";
shapes = (
{
closed = 1;
nodes = (
(514,440,l),
(654,440,l),
(695,689,l),
(1095,689,l),
(1119,832,l),
(719,832,l),
(760,1080,l),
(620,1080,l),
(579,832,l),
(178,832,l),
(154,689,l),
(555,689,l)
);
},
{
closed = 1;
nodes = (
(65,150,l),
(1006,150,l),
(1030,293,l),
(89,293,l)
);
}
);
width = 1159;
},
{
layerId = "3BB79724-DEC0-46E7-8764-1315E4CC4648";
shapes = (
{
closed = 1;
nodes = (
(542,440,l),
(625,440,l),
(671,718,l),
(1100,718,l),
(1114,802,l),
(685,802,l),
(731,1080,l),
(648,1080,l),
(602,802,l),
(173,802,l),
(159,718,l),
(588,718,l)
);
},
{
closed = 1;
nodes = (
(69,176,l),
(1010,176,l),
(1024,260,l),
(83,260,l)
);
}
);
width = 1159;
}
);
unicode = 177;
},
{
glyphname = twosuperior;
layers = (
{
layerId = "52B6FC9B-A007-47B3-A216-6773BDC6150A";
shapes = (
{
closed = 1;
nodes = (
(188,700,l),
(162,540,l),
(790,540,l),
(813,700,l),
(458,700,l),
(726,891,ls),
(832,966,o),
(903,1073,o),
(903,1206,cs),
(903,1363,o),
(766,1459,o),
(623,1459,cs),
(438,1459,o),
(316,1403,o),
(242,1220,c),
(421,1171,l),
(453,1262,o),
(510,1296,o),
(600,1296,cs),
(665,1296,o),
(719,1257,o),
(719,1188,cs),
(719,1101,o),
(664,1060,o),
(603,1013,cs)
);
}
);
width = 818;
},
{
layerId = "8674DFB1-DD33-4B55-AF75-50F2BA2F7F30";
shapes = (
{
closed = 1;
nodes = (
(144,657,l),
(125,540,l),
(722,540,l),
(739,657,l),
(330,657,l),
(656,905,ls),
(754,979,o),
(836,1077,o),
(836,1205,cs),
(836,1370,o),
(680,1463,o),
(535,1463,cs),
(376,1463,o),
(261,1395,o),
(204,1237,c),
(330,1197,l),
(361,1292,o),
(431,1343,o),
(528,1343,c),
(614,1341,o),
(704,1293,o),
(704,1195,cs),
(704,1100,o),
(631,1042,o),
(565,990,cs)
);
}
);
width = 789;
},
{
layerId = "3BB79724-DEC0-46E7-8764-1315E4CC4648";
shapes = (
{
closed = 1;
nodes = (
(181,619,l),
(168,540,l),
(738,540,l),
(750,619,l),
(294,619,l),
(670,916,l),
(760,990,o),
(852,1079,o),
(852,1205,cs),
(852,1376,o),
(680,1466,o),
(534,1466,cs),
(395,1466,o),
(287,1387,o),
(245,1250,c),
(325,1218,l),
(355,1320,o),
(436,1384,o),
(540,1384,c),
(644,1381,o),
(764,1324,o),
(764,1201,cs),
(764,1099,o),
(677,1028,o),
(606,969,cs)
);
}
);
width = 764;
}
);
unicode = 178;
},
{
glyphname = threesuperior;
layers = (
{
layerId = "52B6FC9B-A007-47B3-A216-6773BDC6150A";
shapes = (
{
closed = 1;
nodes = (
(695,517,o),
(870,653,o),
(870,874,cs),
(870,1006,o),
(780,1060,o),
(665,1076,c),
(900,1281,l),
(925,1440,l),
(331,1440,l),
(306,1281,l),
(697,1281,l),
(470,1080,l),
(449,946,l),
(558,946,ls),
(593,946,o),
(628,939,o),
(652,921,c),
(677,906,o),
(691,878,o),
(691,839,cs),
(691,743,o),
(608,676,o),
(520,676,cs),
(406,676,o),
(364,742,o),
(364,838,c),
(187,813,l),
(190,599,o),
(330,517,o),
(491,517,cs)
);
}
);
width = 853;
},
{
layerId = "8674DFB1-DD33-4B55-AF75-50F2BA2F7F30";
shapes = (
{
closed = 1;
nodes = (
(646,518,o),
(800,649,o),
(800,853,cs),
(800,997,o),
(697,1057,o),
(569,1069,c),
(840,1323,l),
(858,1440,l),
(292,1440,l),
(273,1323,l),
(691,1323,l),
(428,1073,l),
(413,971,l),
(506,971,l),
(560,970,o),
(604,957,o),
(630,932,cs),
(656,907,o),
(671,873,o),
(671,831,cs),
(671,713,o),
(579,634,o),
(469,634,c),
(345,635,o),
(280,702,o),
(271,823,c),
(144,807,l),
(152,605,o),
(285,518,o),
(455,518,cs)
);
}
);
width = 824;
},
{
layerId = "3BB79724-DEC0-46E7-8764-1315E4CC4648";
shapes = (
{
closed = 1;
nodes = (
(678,519,o),
(812,646,o),
(812,834,cs),
(812,990,o),
(699,1054,o),
(562,1063,c),
(861,1361,l),
(875,1440,l),
(332,1440,l),
(320,1361,l),
(762,1361,l),
(467,1066,l),
(457,994,l),
(535,993,ls),
(607,992,o),
(657,974,o),
(686,941,c),
(714,907,o),
(728,868,o),
(728,824,cs),
(728,688,o),
(628,598,o),
(500,598,c),
(365,600,o),
(281,667,o),
(264,809,c),
(182,802,l),
(194,611,o),
(322,519,o),
(499,519,cs)
);
}
);
width = 799;
}
);
unicode = 179;
},
{
glyphname = acute;
layers = (
{
layerId = "52B6FC9B-A007-47B3-A216-6773BDC6150A";
shapes = (
{
closed = 1;
nodes = (
(749,1980,l),
(607,1590,l),
(774,1590,l),
(1001,1980,l)
);
}
);
width = 1033;
},
{
layerId = "8674DFB1-DD33-4B55-AF75-50F2BA2F7F30";
shapes = (
{
closed = 1;
nodes = (
(707,1932,l),
(582,1606,l),
(695,1606,l),
(875,1932,l)
);
}
);
width = 932;
},
{
layerId = "3BB79724-DEC0-46E7-8764-1315E4CC4648";
shapes = (
{
closed = 1;
nodes = (
(670,1890,l),
(560,1620,l),
(625,1620,l),
(764,1890,l)
);
}
);
width = 843;
}
);
unicode = 180;
},
{
glyphname = paragraph;
layers = (
{
layerId = "52B6FC9B-A007-47B3-A216-6773BDC6150A";
shapes = (
{
closed = 1;
nodes = (
(533,-282,l),
(800,-282,l),
(1085,1440,l),
(724,1440,ls),
(720,1440,o),
(705,1440,o),
(683,1439,cs),
(661,1438,o),
(633,1436,o),
(605,1432,cs),
(432,1408,o),
(312,1316,o),
(239,1183,cs),
(202,1115,o),
(176,1044,o),
(163,964,cs),
(136,803,o),
(167,667,o),
(260,579,c),
(308,536,o),
(370,508,o),
(450,496,cs),
(478,492,o),
(503,490,o),
(526,489,cs),
(549,488,o),
(563,488,o),
(567,488,cs),
(661,488,l)
);
},
{
closed = 1;
nodes = (
(988,-282,l),
(1255,-282,l),
(1540,1440,l),
(1273,1440,l)
);
}
);
width = 1443;
},
{
layerId = "8674DFB1-DD33-4B55-AF75-50F2BA2F7F30";
shapes = (
{
closed = 1;
nodes = (
(545,-282,l),
(714,-282,l),
(999,1440,l),
(742,1440,ls),
(733,1440,o),
(718,1439,o),
(700,1439,c),
(682,1438,o),
(660,1436,o),
(637,1432,cs),
(481,1409,o),
(364,1322,o),
(291,1195,cs),
(254,1131,o),
(228,1063,o),
(216,987,cs),
(191,835,o),
(223,707,o),
(314,623,cs),
(359,582,o),
(417,554,o),
(490,543,cs),
(513,539,o),
(532,537,o),
(551,536,cs),
(568,535,o),
(583,535,o),
(592,535,cs),
(681,535,l)
);
},
{
closed = 1;
nodes = (
(862,-282,l),
(1030,-282,l),
(1315,1440,l),
(1147,1440,l)
);
}
);
width = 1267;
},
{
layerId = "3BB79724-DEC0-46E7-8764-1315E4CC4648";
shapes = (
{
closed = 1;
nodes = (
(556,-282,l),
(638,-282,l),
(923,1440,l),
(757,1440,ls),
(744,1440,o),
(729,1439,o),
(714,1439,c),
(699,1438,o),
(684,1436,o),
(665,1432,c),
(524,1409,o),
(411,1327,o),
(336,1206,cs),
(299,1146,o),
(274,1080,o),
(262,1008,cs),
(238,863,o),
(273,741,o),
(361,661,cs),
(404,621,o),
(458,595,o),
(525,584,cs),
(542,581,o),
(557,579,o),
(572,578,cs),
(585,577,o),
(599,576,o),
(614,576,cs),
(698,576,l)
);
},
{
closed = 1;
nodes = (
(752,-282,l),
(834,-282,l),
(1119,1440,l),
(1037,1440,l)
);
}
);
width = 1113;
}
);
unicode = 182;
},
{
glyphname = periodcentered;
layers = (
{
layerId = "52B6FC9B-A007-47B3-A216-6773BDC6150A";
shapes = (
{
closed = 1;
nodes = (
(320,470,o),
(359,485,o),
(394,516,cs),
(429,547,o),
(450,583,o),
(458,630,cs),
(466,677,o),
(457,714,o),
(432,745,cs),
(407,776,o),
(373,790,o),
(332,790,cs),
(285,790,o),
(246,776,o),
(211,745,cs),
(174,714,o),
(152,677,o),
(144,630,cs),
(137,583,o),
(146,547,o),
(173,516,c),
(197,485,o),
(234,470,o),
(279,470,cs)
);
}
);
width = 532;
},
{
layerId = "8674DFB1-DD33-4B55-AF75-50F2BA2F7F30";
shapes = (
{
closed = 1;
nodes = (
(274,513,o),
(302,525,o),
(327,546,c),
(352,569,o),
(369,597,o),
(374,630,c),
(381,663,o),
(374,692,o),
(355,715,cs),
(338,736,o),
(313,747,o),
(282,747,cs),
(247,747,o),
(220,736,o),
(193,715,c),
(166,692,o),
(149,663,o),
(144,630,cs),
(140,597,o),
(146,569,o),
(166,546,cs),
(183,525,o),
(210,513,o),
(243,513,cs)
);
}
);
width = 448;
},
{
layerId = "3BB79724-DEC0-46E7-8764-1315E4CC4648";
shapes = (
{
closed = 1;
nodes = (
(233,550,o),
(252,558,o),
(269,573,cs),
(286,588,o),
(297,607,o),
(301,630,cs),
(305,653,o),
(300,673,o),
(288,688,cs),
(276,703,o),
(259,710,o),
(238,710,cs),
(215,710,o),
(197,703,o),
(178,688,cs),
(159,673,o),
(148,653,o),
(144,630,cs),
(141,607,o),
(146,588,o),
(159,573,cs),
(172,558,o),
(189,550,o),
(212,550,cs)
);
}
);
width = 375;
}
);
unicode = 183;
},
{
glyphname = cedilla;
layers = (
{
layerId = "52B6FC9B-A007-47B3-A216-6773BDC6150A";
shapes = (
{
closed = 1;
nodes = (
(265,-484,o),
(319,-464,o),
(367,-423,cs),
(416,-382,o),
(446,-329,o),
(457,-262,cs),
(472,-175,o),
(440,-112,o),
(369,-72,c),
(422,36,l),
(267,34,l),
(164,-170,l),
(197,-181,o),
(225,-191,o),
(249,-203,cs),
(272,-214,o),
(282,-232,o),
(278,-256,cs),
(276,-267,o),
(269,-277,o),
(258,-287,cs),
(247,-297,o),
(232,-302,o),
(215,-302,cs),
(200,-302,o),
(183,-298,o),
(158,-290,c),
(76,-446,l),
(111,-467,o),
(153,-484,o),
(208,-484,cs)
);
}
);
width = 787;
},
{
layerId = "8674DFB1-DD33-4B55-AF75-50F2BA2F7F30";
shapes = (
{
closed = 1;
nodes = (
(249,-481,o),
(297,-462,o),
(341,-426,cs),
(385,-389,o),
(412,-342,o),
(421,-285,cs),
(436,-198,o),
(398,-144,o),
(331,-109,c),
(400,24,l),
(284,23,l),
(178,-182,l),
(210,-193,o),
(238,-204,o),
(262,-217,cs),
(286,-230,o),
(296,-250,o),
(291,-281,cs),
(288,-298,o),
(279,-315,o),
(264,-330,cs),
(248,-345,o),
(228,-352,o),
(205,-352,cs),
(185,-352,o),
(163,-347,o),
(135,-336,c),
(75,-448,l),
(108,-467,o),
(149,-481,o),
(197,-481,cs)
);
}
);
width = 753;
},
{
layerId = "3BB79724-DEC0-46E7-8764-1315E4CC4648";
shapes = (
{
closed = 1;
nodes = (
(235,-478,o),
(278,-461,o),
(318,-428,cs),
(357,-395,o),
(381,-354,o),
(389,-306,cs),
(404,-219,o),
(361,-170,o),
(298,-142,c),
(381,14,l),
(299,14,l),
(190,-192,l),
(221,-203,o),
(249,-215,o),
(274,-230,cs),
(299,-245,o),
(308,-267,o),
(303,-302,cs),
(299,-326,o),
(288,-348,o),
(269,-367,cs),
(250,-386,o),
(225,-396,o),
(196,-396,cs),
(172,-396,o),
(146,-389,o),
(115,-376,c),
(75,-450,l),
(107,-466,o),
(145,-478,o),
(188,-478,cs)
);
}
);
width = 723;
}
);
unicode = 184;
},
{
glyphname = onesuperior;
layers = (
{
layerId = "52B6FC9B-A007-47B3-A216-6773BDC6150A";
shapes = (
{
closed = 1;
nodes = (
(408,540,l),
(574,540,l),
(712,1440,l),
(547,1440,l),
(281,1288,l),
(336,1159,l),
(516,1261,l)
);
}
);
width = 726;
},
{
layerId = "8674DFB1-DD33-4B55-AF75-50F2BA2F7F30";
shapes = (
{
closed = 1;
nodes = (
(348,540,l),
(469,540,l),
(605,1440,l),
(486,1440,l),
(244,1302,l),
(284,1205,l),
(464,1308,l)
);
}
);
width = 661;
},
{
layerId = "3BB79724-DEC0-46E7-8764-1315E4CC4648";
shapes = (
{
closed = 1;
nodes = (
(369,540,l),
(450,540,l),
(587,1440,l),
(507,1440,l),
(286,1314,l),
(313,1246,l),
(493,1349,l)
);
}
);
width = 602;
}
);
unicode = 185;
},
{
glyphname = ordmasculine;
layers = (
{
layerId = "52B6FC9B-A007-47B3-A216-6773BDC6150A";
shapes = (
{
closed = 1;
nodes = (
(910,480,l),
(933,618,l),
(149,618,l),
(126,480,l)
);
},
{
closed = 1;
nodes = (
(785,710,o),
(952,875,o),
(988,1090,cs),
(1025,1311,o),
(904,1470,o),
(683,1470,cs),
(456,1470,o),
(289,1304,o),
(254,1090,cs),
(217,869,o),
(337,710,o),
(558,710,cs)
);
},
{
closed = 1;
nodes = (
(470,901,o),
(440,990,o),
(457,1090,cs),
(474,1194,o),
(533,1279,o),
(652,1279,cs),
(773,1279,o),
(802,1192,o),
(785,1090,cs),
(768,989,o),
(708,901,o),
(589,901,cs)
);
}
);
width = 847;
},
{
layerId = "8674DFB1-DD33-4B55-AF75-50F2BA2F7F30";
shapes = (
{
closed = 1;
nodes = (
(857,501,l),
(874,606,l),
(153,606,l),
(136,501,l)
);
},
{
closed = 1;
nodes = (
(755,710,o),
(900,880,o),
(935,1091,cs),
(971,1307,o),
(874,1470,o),
(655,1470,cs),
(431,1470,o),
(285,1300,o),
(251,1091,cs),
(215,874,o),
(311,710,o),
(530,710,cs)
);
},
{
closed = 1;
nodes = (
(397,833,o),
(357,953,o),
(380,1091,cs),
(403,1232,o),
(484,1347,o),
(635,1347,cs),
(792,1347,o),
(829,1231,o),
(806,1091,cs),
(783,954,o),
(706,833,o),
(550,833,cs)
);
}
);
width = 787;
},
{
layerId = "3BB79724-DEC0-46E7-8764-1315E4CC4648";
shapes = (
{
closed = 1;
nodes = (
(810,520,l),
(823,596,l),
(156,596,l),
(144,520,l)
);
},
{
closed = 1;
nodes = (
(729,710,o),
(854,885,o),
(888,1091,cs),
(923,1304,o),
(847,1470,o),
(631,1470,cs),
(409,1470,o),
(282,1296,o),
(248,1091,cs),
(213,878,o),
(289,710,o),
(505,710,cs)
);
},
{
closed = 1;
nodes = (
(333,773,o),
(284,920,o),
(312,1091,cs),
(341,1266,o),
(441,1407,o),
(621,1407,cs),
(808,1407,o),
(853,1265,o),
(824,1091,cs),
(796,923,o),
(704,773,o),
(516,773,cs)
);
}
);
width = 735;
}
);
unicode = 186;
},
{
glyphname = guillemotright;
layers = (
{
layerId = "52B6FC9B-A007-47B3-A216-6773BDC6150A";
shapes = (
{
closed = 1;
nodes = (
(195,94,l),
(616,540,l),
(343,986,l),
(185,874,l),
(390,540,l),
(74,206,l)
);
},
{
closed = 1;
nodes = (
(616,94,l),
(1037,540,l),
(764,986,l),
(606,874,l),
(812,540,l),
(496,206,l)
);
}
);
width = 1162;
},
{
layerId = "8674DFB1-DD33-4B55-AF75-50F2BA2F7F30";
shapes = (
{
closed = 1;
nodes = (
(165,104,l),
(578,541,l),
(309,977,l),
(199,900,l),
(420,541,l),
(80,181,l)
);
},
{
closed = 1;
nodes = (
(518,104,l),
(931,541,l),
(663,977,l),
(552,900,l),
(774,541,l),
(434,181,l)
);
}
);
width = 1055;
},
{
layerId = "3BB79724-DEC0-46E7-8764-1315E4CC4648";
shapes = (
{
closed = 1;
nodes = (
(138,112,l),
(544,542,l),
(280,970,l),
(211,922,l),
(446,542,l),
(85,160,l)
);
},
{
closed = 1;
nodes = (
(432,112,l),
(838,542,l),
(574,970,l),
(505,922,l),
(740,542,l),
(379,160,l)
);
}
);
width = 962;
}
);
unicode = 187;
},
{
glyphname = onequarter;
layers = (
{
layerId = "52B6FC9B-A007-47B3-A216-6773BDC6150A";
shapes = (
{
closed = 1;
nodes = (
(605,-1,l),
(1738,1337,l),
(1608,1454,l),
(474,114,l)
);
},
{
closed = 1;
nodes = (
(1613,0,l),
(1779,0,l),
(1802,153,l),
(1887,153,l),
(1911,310,l),
(1826,310,l),
(1868,581,l),
(1702,581,l),
(1661,310,l),
(1431,310,l),
(1795,900,l),
(1613,900,l),
(1249,310,l),
(1225,153,l),
(1636,153,l)
);
},
{
closed = 1;
nodes = (
(420,540,l),
(586,540,l),
(724,1440,l),
(559,1440,l),
(293,1288,l),
(348,1159,l),
(527,1261,l)
);
}
);
width = 2009;
},
{
layerId = "8674DFB1-DD33-4B55-AF75-50F2BA2F7F30";
shapes = (
{
closed = 1;
nodes = (
(413,-1,l),
(1615,1360,l),
(1522,1447,l),
(319,85,l)
);
},
{
closed = 1;
nodes = (
(1475,0,l),
(1595,0,l),
(1620,168,l),
(1705,168,l),
(1723,283,l),
(1639,283,l),
(1684,581,l),
(1564,581,l),
(1518,283,l),
(1215,283,l),
(1594,900,l),
(1462,900,l),
(1082,283,l),
(1065,168,l),
(1500,168,l)
);
},
{
closed = 1;
nodes = (
(372,540,l),
(493,540,l),
(629,1440,l),
(510,1440,l),
(268,1302,l),
(308,1205,l),
(488,1308,l)
);
}
);
width = 1879;
},
{
layerId = "3BB79724-DEC0-46E7-8764-1315E4CC4648";
shapes = (
{
closed = 1;
nodes = (
(321,-1,l),
(1582,1381,l),
(1522,1441,l),
(258,60,l)
);
},
{
closed = 1;
nodes = (
(1429,0,l),
(1509,0,l),
(1537,182,l),
(1622,182,l),
(1634,260,l),
(1550,260,l),
(1599,581,l),
(1519,581,l),
(1468,260,l),
(1102,260,l),
(1494,900,l),
(1406,900,l),
(1012,260,l),
(1001,182,l),
(1457,182,l)
);
},
{
closed = 1;
nodes = (
(405,540,l),
(486,540,l),
(623,1440,l),
(543,1440,l),
(322,1314,l),
(349,1246,l),
(529,1349,l)
);
}
);
width = 1765;
}
);
unicode = 188;
},
{
glyphname = onehalf;
layers = (
{
layerId = "52B6FC9B-A007-47B3-A216-6773BDC6150A";
shapes = (
{
closed = 1;
nodes = (
(547,-1,l),
(1680,1337,l),
(1550,1454,l),
(416,114,l)
);
},
{
closed = 1;
nodes = (
(1276,0,l),
(1902,0,l),
(1928,160,l),
(1562,160,l),
(1834,366,ls),
(1936,443,o),
(2004,539,o),
(2004,673,cs),
(2004,851,o),
(1845,917,o),
(1695,917,cs),
(1538,917,o),
(1428,832,o),
(1365,684,c),
(1539,636,l),
(1563,706,o),
(1619,759,o),
(1694,759,cs),
(1760,759,o),
(1829,732,o),
(1829,654,cs),
(1829,572,o),
(1772,529,o),
(1716,484,cs),
(1301,160,l)
);
},
{
closed = 1;
nodes = (
(359,540,l),
(525,540,l),
(663,1440,l),
(498,1440,l),
(232,1288,l),
(287,1159,l),
(466,1261,l)
);
}
);
width = 1989;
},
{
layerId = "8674DFB1-DD33-4B55-AF75-50F2BA2F7F30";
shapes = (
{
closed = 1;
nodes = (
(351,-1,l),
(1553,1360,l),
(1460,1447,l),
(257,85,l)
);
},
{
closed = 1;
nodes = (
(1093,0,l),
(1689,0,l),
(1707,117,l),
(1291,117,l),
(1618,383,ls),
(1713,460,o),
(1792,551,o),
(1792,683,cs),
(1792,849,o),
(1641,917,o),
(1499,917,cs),
(1346,917,o),
(1233,829,o),
(1178,683,c),
(1302,649,l),
(1332,739,o),
(1403,801,o),
(1497,801,cs),
(1578,800,o),
(1665,765,o),
(1665,669,cs),
(1665,578,o),
(1593,515,o),
(1530,462,cs),
(1110,117,l)
);
},
{
closed = 1;
nodes = (
(306,540,l),
(427,540,l),
(563,1440,l),
(444,1440,l),
(202,1302,l),
(242,1205,l),
(422,1308,l)
);
}
);
width = 1824;
},
{
layerId = "3BB79724-DEC0-46E7-8764-1315E4CC4648";
shapes = (
{
closed = 1;
nodes = (
(251,-1,l),
(1512,1381,l),
(1452,1441,l),
(188,60,l)
);
},
{
closed = 1;
nodes = (
(1004,0,l),
(1573,0,l),
(1584,79,l),
(1125,79,l),
(1500,397,ls),
(1589,474,o),
(1678,561,o),
(1678,692,cs),
(1678,848,o),
(1533,917,o),
(1398,917,cs),
(1249,917,o),
(1133,827,o),
(1086,682,c),
(1166,660,l),
(1200,768,o),
(1285,838,o),
(1396,838,c),
(1489,836,o),
(1593,793,o),
(1593,683,cs),
(1593,583,o),
(1508,502,o),
(1438,443,cs),
(1014,79,l)
);
},
{
closed = 1;
nodes = (
(337,540,l),
(418,540,l),
(555,1440,l),
(475,1440,l),
(254,1314,l),
(281,1246,l),
(461,1349,l)
);
}
);
width = 1679;
}
);
unicode = 189;
},
{
glyphname = threequarters;
layers = (
{
layerId = "52B6FC9B-A007-47B3-A216-6773BDC6150A";
shapes = (
{
closed = 1;
nodes = (
(678,-1,l),
(1809,1337,l),
(1678,1454,l),
(546,114,l)
);
},
{
closed = 1;
nodes = (
(1669,0,l),
(1835,0,l),
(1859,153,l),
(1943,153,l),
(1968,310,l),
(1884,310,l),
(1925,581,l),
(1758,581,l),
(1717,310,l),
(1489,310,l),
(1852,900,l),
(1669,900,l),
(1306,310,l),
(1283,153,l),
(1692,153,l)
);
},
{
closed = 1;
nodes = (
(647,517,o),
(822,653,o),
(822,874,cs),
(822,1006,o),
(732,1060,o),
(617,1076,c),
(852,1281,l),
(877,1440,l),
(283,1440,l),
(258,1281,l),
(649,1281,l),
(422,1080,l),
(401,946,l),
(510,946,ls),
(545,946,o),
(580,939,o),
(604,921,c),
(629,906,o),
(643,878,o),
(643,839,cs),
(643,743,o),
(560,676,o),
(472,676,cs),
(358,676,o),
(316,742,o),
(316,838,c),
(139,813,l),
(142,599,o),
(282,517,o),
(443,517,cs)
);
}
);
width = 1992;
},
{
layerId = "8674DFB1-DD33-4B55-AF75-50F2BA2F7F30";
shapes = (
{
closed = 1;
nodes = (
(515,-1,l),
(1716,1360,l),
(1622,1447,l),
(420,85,l)
);
},
{
closed = 1;
nodes = (
(1570,0,l),
(1691,0,l),
(1718,168,l),
(1802,168,l),
(1820,283,l),
(1735,283,l),
(1781,581,l),
(1659,581,l),
(1615,283,l),
(1312,283,l),
(1692,900,l),
(1559,900,l),
(1179,283,l),
(1163,168,l),
(1597,168,l)
);
},
{
closed = 1;
nodes = (
(605,518,o),
(759,649,o),
(759,853,cs),
(759,997,o),
(656,1057,o),
(528,1069,c),
(799,1323,l),
(817,1440,l),
(251,1440,l),
(232,1323,l),
(650,1323,l),
(387,1073,l),
(372,971,l),
(465,971,l),
(519,970,o),
(563,957,o),
(589,932,cs),
(615,907,o),
(630,873,o),
(630,831,cs),
(630,713,o),
(538,634,o),
(428,634,c),
(304,635,o),
(239,702,o),
(230,823,c),
(103,807,l),
(111,605,o),
(244,518,o),
(414,518,cs)
);
}
);
width = 1892;
},
{
layerId = "3BB79724-DEC0-46E7-8764-1315E4CC4648";
shapes = (
{
closed = 1;
nodes = (
(447,-1,l),
(1709,1381,l),
(1647,1441,l),
(384,60,l)
);
},
{
closed = 1;
nodes = (
(1558,0,l),
(1639,0,l),
(1668,182,l),
(1752,182,l),
(1764,260,l),
(1679,260,l),
(1729,581,l),
(1647,581,l),
(1599,260,l),
(1231,260,l),
(1626,900,l),
(1537,900,l),
(1142,260,l),
(1131,182,l),
(1587,182,l)
);
},
{
closed = 1;
nodes = (
(642,519,o),
(776,646,o),
(776,834,cs),
(776,990,o),
(663,1054,o),
(526,1063,c),
(825,1361,l),
(839,1440,l),
(296,1440,l),
(284,1361,l),
(726,1361,l),
(431,1066,l),
(421,994,l),
(499,993,ls),
(571,992,o),
(622,974,o),
(650,941,cs),
(679,907,o),
(692,868,o),
(692,824,cs),
(692,688,o),
(592,597,o),
(464,598,cs),
(329,599,o),
(245,667,o),
(228,809,c),
(146,802,l),
(158,611,o),
(286,519,o),
(463,519,cs)
);
}
);
width = 1804;
}
);
unicode = 190;
},
{
glyphname = questiondown;
leftMetricsKey = "|question";
widthMetricsKey = question;
layers = (
{
layerId = "52B6FC9B-A007-47B3-A216-6773BDC6150A";
shapes = (
{
closed = 1;
nodes = (
(532,689,l),
(525,646,ls),
(479,369,o),
(15,507,o),
(15,-11,cs),
(15,-255,o),
(186,-390,o),
(482,-390,cs),
(774,-390,o),
(1047,-256,o),
(1167,91,c),
(889,134,l),
(836,-26,o),
(730,-130,o),
(552,-130,cs),
(404,-130,o),
(321,-59,o),
(321,37,cs),
(321,295,o),
(755,264,o),
(797,521,cs),
(824,689,l)
);
},
{
closed = 1;
nodes = (
(642,1102,o),
(559,1015,o),
(559,915,cs),
(559,839,o),
(612,786,o),
(690,786,cs),
(791,786,o),
(874,872,o),
(874,972,cs),
(874,1048,o),
(821,1102,o),
(743,1102,cs)
);
}
);
width = 1313;
},
{
layerId = "8674DFB1-DD33-4B55-AF75-50F2BA2F7F30";
shapes = (
{
closed = 1;
nodes = (
(528,702,l),
(519,647,ls),
(461,290,o),
(15,422,o),
(15,-54,cs),
(15,-271,o),
(169,-390,o),
(415,-390,cs),
(672,-390,o),
(901,-259,o),
(976,30,c),
(809,51,l),
(768,-130,o),
(637,-229,o),
(456,-229,cs),
(297,-229,o),
(199,-157,o),
(199,-25,cs),
(199,312,o),
(622,210,o),
(688,595,cs),
(705,702,l)
);
},
{
closed = 1;
nodes = (
(610,1093,o),
(551,1031,o),
(551,962,cs),
(551,909,o),
(589,872,o),
(643,872,cs),
(714,872,o),
(772,932,o),
(772,1002,cs),
(772,1055,o),
(734,1093,o),
(680,1093,cs)
);
}
);
width = 1131;
},
{
layerId = "3BB79724-DEC0-46E7-8764-1315E4CC4648";
shapes = (
{
closed = 1;
nodes = (
(526,712,l),
(515,648,ls),
(448,237,o),
(17,357,o),
(17,-86,cs),
(17,-284,o),
(157,-390,o),
(366,-390,cs),
(597,-390,o),
(793,-261,o),
(834,-15,c),
(750,-11,l),
(717,-208,o),
(568,-304,o),
(384,-304,cs),
(218,-304,o),
(108,-230,o),
(108,-74,cs),
(108,324,o),
(528,168,o),
(607,650,cs),
(617,712,l)
);
},
{
closed = 1;
nodes = (
(587,1086,o),
(546,1044,o),
(546,998,cs),
(546,962,o),
(571,936,o),
(609,936,cs),
(656,936,o),
(696,977,o),
(696,1024,cs),
(696,1060,o),
(671,1086,o),
(634,1086,cs)
);
}
);
width = 997;
}
);
unicode = 191;
},
{
glyphname = Agrave;
layers = (
{
layerId = "52B6FC9B-A007-47B3-A216-6773BDC6150A";
shapes = (
{
closed = 1;
nodes = (
(901,1590,l),
(888,1980,l),
(636,1980,l),
(734,1590,l)
);
},
{
closed = 1;
nodes = (
(953,0,l),
(1228,0,l),
(1035,1440,l),
(637,1440,l),
(-33,0,l),
(242,0,l),
(836,1270,l),
(785,1270,l)
);
},
{
closed = 1;
nodes = (
(274,300,l),
(1019,300,l),
(1061,554,l),
(316,554,l)
);
}
);
width = 1333;
},
{
layerId = "8674DFB1-DD33-4B55-AF75-50F2BA2F7F30";
shapes = (
{
closed = 1;
nodes = (
(851,1606,l),
(835,1932,l),
(667,1932,l),
(739,1606,l)
);
},
{
closed = 1;
nodes = (
(975,0,l),
(1151,0,l),
(914,1440,l),
(681,1440,l),
(-33,0,l),
(143,0,l),
(810,1340,l),
(755,1340,l)
);
},
{
closed = 1;
nodes = (
(249,339,l),
(982,339,l),
(1008,501,l),
(276,501,l)
);
}
);
width = 1256;
},
{
layerId = "3BB79724-DEC0-46E7-8764-1315E4CC4648";
shapes = (
{
closed = 1;
nodes = (
(808,1620,l),
(788,1890,l),
(694,1890,l),
(743,1620,l)
);
},
{
closed = 1;
nodes = (
(994,0,l),
(1083,0,l),
(808,1440,l),
(719,1440,l),
(-33,0,l),
(56,0,l),
(787,1402,l),
(729,1402,l)
);
},
{
closed = 1;
nodes = (
(227,374,l),
(949,374,l),
(962,454,l),
(241,454,l)
);
}
);
width = 1188;
}
);
leftKerningGroup = A2;
rightKerningGroup = A;
unicode = 192;
},
{
glyphname = Aacute;
layers = (
{
layerId = "52B6FC9B-A007-47B3-A216-6773BDC6150A";
shapes = (
{
closed = 1;
nodes = (
(963,1980,l),
(821,1590,l),
(987,1590,l),
(1214,1980,l)
);
},
{
closed = 1;
nodes = (
(-33,0,l),
(242,0,l),
(830,1270,l),
(779,1270,l),
(953,0,l),
(1228,0,l),
(1035,1440,l),
(637,1440,l)
);
},
{
closed = 1;
nodes = (
(276,300,l),
(1021,300,l),
(1063,554,l),
(318,554,l)
);
}
);
width = 1333;
},
{
layerId = "8674DFB1-DD33-4B55-AF75-50F2BA2F7F30";
shapes = (
{
closed = 1;
nodes = (
(923,1932,l),
(799,1606,l),
(910,1606,l),
(1090,1932,l)
);
},
{
closed = 1;
nodes = (
(-33,0,l),
(143,0,l),
(807,1340,l),
(751,1340,l),
(975,0,l),
(1151,0,l),
(914,1440,l),
(681,1440,l)
);
},
{
closed = 1;
nodes = (
(249,339,l),
(982,339,l),
(1008,501,l),
(276,501,l)
);
}
);
width = 1256;
},
{
layerId = "3BB79724-DEC0-46E7-8764-1315E4CC4648";
shapes = (
{
closed = 1;
nodes = (
(888,1890,l),
(779,1620,l),
(843,1620,l),
(982,1890,l)
);
},
{
closed = 1;
nodes = (
(-33,0,l),
(56,0,l),
(786,1402,l),
(727,1402,l),
(994,0,l),
(1083,0,l),
(808,1440,l),
(719,1440,l)
);
},
{
closed = 1;
nodes = (
(225,374,l),
(947,374,l),
(960,454,l),
(239,454,l)
);
}
);
width = 1188;
}
);
leftKerningGroup = A2;
rightKerningGroup = A;
unicode = 193;
},
{
glyphname = Acircumflex;
layers = (
{
layerId = "52B6FC9B-A007-47B3-A216-6773BDC6150A";
shapes = (
{
closed = 1;
nodes = (
(466,1590,l),
(711,1590,l),
(888,1770,l),
(1005,1590,l),
(1250,1590,l),
(1022,1920,l),
(803,1920,l)
);
},
{
closed = 1;
nodes = (
(-33,0,l),
(242,0,l),
(830,1270,l),
(779,1270,l),
(953,0,l),
(1228,0,l),
(1035,1440,l),
(637,1440,l)
);
},
{
closed = 1;
nodes = (
(276,300,l),
(1021,300,l),
(1063,554,l),
(318,554,l)
);
}
);
width = 1333;
},
{
layerId = "8674DFB1-DD33-4B55-AF75-50F2BA2F7F30";
shapes = (
{
closed = 1;
nodes = (
(512,1606,l),
(679,1606,l),
(853,1781,l),
(969,1606,l),
(1135,1606,l),
(946,1888,l),
(796,1888,l)
);
},
{
closed = 1;
nodes = (
(-33,0,l),
(143,0,l),
(807,1340,l),
(751,1340,l),
(975,0,l),
(1151,0,l),
(914,1440,l),
(681,1440,l)
);
},
{
closed = 1;
nodes = (
(249,339,l),
(982,339,l),
(1008,501,l),
(276,501,l)
);
}
);
width = 1256;
},
{
layerId = "3BB79724-DEC0-46E7-8764-1315E4CC4648";
shapes = (
{
closed = 1;
nodes = (
(553,1620,l),
(651,1620,l),
(822,1790,l),
(937,1620,l),
(1035,1620,l),
(879,1860,l),
(789,1860,l)
);
},
{
closed = 1;
nodes = (
(-33,0,l),
(56,0,l),
(786,1402,l),
(727,1402,l),
(994,0,l),
(1083,0,l),
(808,1440,l),
(719,1440,l)
);
},
{
closed = 1;
nodes = (
(225,374,l),
(947,374,l),
(960,454,l),
(239,454,l)
);
}
);
width = 1188;
}
);
leftKerningGroup = A2;
rightKerningGroup = A;
unicode = 194;
},
